<svg xmlns="http://www.w3.org/2000/svg" xmlns:xlink="http://www.w3.org/1999/xlink" width="1515" height="1145" version="1.1" viewBox="0 0 1515 1145"><title>Group</title><desc>Created with Sketch.</desc><g id="Page-1" fill="none" fill-rule="evenodd" stroke="none" stroke-width="1"><g id="Group" transform="translate(0.000000, -12.000000)"><polygon id="path22" fill="#FFF880" fill-rule="nonzero" stroke="#000" stroke-width=".996" points="155 421 190.433 421 190.433 456.433 155 456.433" transform="translate(172.716744, 438.716745) scale(-1, 1) rotate(-180.000000) translate(-172.716744, -438.716745)"/><polygon id="path22" fill="#FFF880" fill-rule="nonzero" stroke="#000" stroke-width=".996" points="286 231 321.433 231 321.433 266.433 286 266.433" transform="translate(303.716744, 248.716744) scale(-1, 1) rotate(-180.000000) translate(-303.716744, -248.716744)"/><polygon id="path22" fill="#FFF880" fill-rule="nonzero" stroke="#000" stroke-width=".996" points="286 278 321.433 278 321.433 313.433 286 313.433" transform="translate(303.716744, 295.716745) scale(-1, 1) rotate(-180.000000) translate(-303.716744, -295.716745)"/><polygon id="path22" fill="#FFF880" fill-rule="nonzero" stroke="#000" stroke-width=".996" points="286 326 321.433 326 321.433 361.433 286 361.433" transform="translate(303.716744, 343.716745) scale(-1, 1) rotate(-180.000000) translate(-303.716744, -343.716745)"/><polygon id="path22" fill="#FFF880" fill-rule="nonzero" stroke="#000" stroke-width=".996" points="286 373 321.433 373 321.433 408.433 286 408.433" transform="translate(303.716744, 390.716745) scale(-1, 1) rotate(-180.000000) translate(-303.716744, -390.716745)"/><polygon id="path22" fill="#FFF880" fill-rule="nonzero" stroke="#000" stroke-width=".996" points="286 420 321.433 420 321.433 455.433 286 455.433" transform="translate(303.716744, 437.716745) scale(-1, 1) rotate(-180.000000) translate(-303.716744, -437.716745)"/><polygon id="path22" fill="#FFF880" fill-rule="nonzero" stroke="#000" stroke-width=".996" points="286 467 321.433 467 321.433 502.433 286 502.433" transform="translate(303.716744, 484.716745) scale(-1, 1) rotate(-180.000000) translate(-303.716744, -484.716745)"/><polygon id="path22" fill="#FFF880" fill-rule="nonzero" stroke="#000" stroke-width=".996" points="286 515 321.433 515 321.433 550.433 286 550.433" transform="translate(303.716744, 532.716744) scale(-1, 1) rotate(-180.000000) translate(-303.716744, -532.716744)"/><polygon id="path22" fill="#FFF880" fill-rule="nonzero" stroke="#000" stroke-width=".996" points="286 562 321.433 562 321.433 597.433 286 597.433" transform="translate(303.716744, 579.716744) scale(-1, 1) rotate(-180.000000) translate(-303.716744, -579.716744)"/><polygon id="path22" fill="#FFF880" fill-rule="nonzero" stroke="#000" stroke-width=".996" points="286 610 321.433 610 321.433 645.433 286 645.433" transform="translate(303.716744, 627.716744) scale(-1, 1) rotate(-180.000000) translate(-303.716744, -627.716744)"/><polygon id="path22" fill="#FFF880" fill-rule="nonzero" stroke="#000" stroke-width=".996" points="446 780 481.433 780 481.433 815.433 446 815.433" transform="translate(463.716744, 797.716744) scale(-1, 1) rotate(-180.000000) translate(-463.716744, -797.716744)"/><polygon id="path22" fill="#FFF880" fill-rule="nonzero" stroke="#000" stroke-width=".996" points="758 780 793.433 780 793.433 815.433 758 815.433" transform="translate(775.716743, 797.716745) scale(-1, 1) rotate(-180.000000) translate(-775.716743, -797.716745)"/><polygon id="path22" fill="#FFF880" fill-rule="nonzero" stroke="#000" stroke-width=".996" points="602 780 637.433 780 637.433 815.433 602 815.433" transform="translate(619.716744, 797.716745) scale(-1, 1) rotate(-180.000000) translate(-619.716744, -797.716745)"/><polygon id="path22" fill="#9013FE" fill-rule="nonzero" stroke="#000" stroke-width=".996" points="1051 420 1086.433 420 1086.433 455.433 1051 455.433" transform="translate(1068.716743, 437.716745) rotate(-180.000000) translate(-1068.716743, -437.716745)"/><path id="path386" fill="#8080FF" fill-rule="nonzero" stroke="#000" stroke-width=".996" d="M481.4335,151.71675 C481.4335,161.501563 473.501562,169.4335 463.71675,169.4335 C453.931938,169.4335 446,161.501563 446,151.71675 C446,141.931925 453.931938,134 463.71675,134 C473.501562,134 481.4335,141.931925 481.4335,151.71675 L481.4335,151.71675 Z" transform="translate(463.716750, 151.716750) scale(-1, 1) rotate(-180.000000) translate(-463.716750, -151.716750)"/><rect id="path-1" width="60" height="49" x="434" y="694" fill="#7ED321"/><rect id="Rectangle-path" width="59" height="48" x="434.5" y="694.5" stroke="#000"/><path id="path386" fill="#8080FF" fill-rule="nonzero" stroke="#000" stroke-width=".996" d="M481.4335,197.71675 C481.4335,207.501563 473.501562,215.4335 463.71675,215.4335 C453.931938,215.4335 446,207.501563 446,197.71675 C446,187.931925 453.931938,180 463.71675,180 C473.501562,180 481.4335,187.931925 481.4335,197.71675 L481.4335,197.71675 Z" transform="translate(463.716750, 197.716750) scale(-1, 1) rotate(-180.000000) translate(-463.716750, -197.716750)"/><path id="path386" fill="#8080FF" fill-rule="nonzero" stroke="#000" stroke-width=".996" d="M481.4335,243.71675 C481.4335,253.501563 473.501562,261.4335 463.71675,261.4335 C453.931938,261.4335 446,253.501563 446,243.71675 C446,233.931925 453.931938,226 463.71675,226 C473.501562,226 481.4335,233.931925 481.4335,243.71675 L481.4335,243.71675 Z" transform="translate(463.716750, 243.716750) scale(-1, 1) rotate(-180.000000) translate(-463.716750, -243.716750)"/><path id="path386" fill="#8080FF" fill-rule="nonzero" stroke="#000" stroke-width=".996" d="M481.4335,289.71675 C481.4335,299.501563 473.501562,307.4335 463.71675,307.4335 C453.931938,307.4335 446,299.501563 446,289.71675 C446,279.931925 453.931938,272 463.71675,272 C473.501562,272 481.4335,279.931925 481.4335,289.71675 L481.4335,289.71675 Z" transform="translate(463.716750, 289.716750) scale(-1, 1) rotate(-180.000000) translate(-463.716750, -289.716750)"/><path id="path386" fill="#8080FF" fill-rule="nonzero" stroke="#000" stroke-width=".996" d="M481.4335,335.71675 C481.4335,345.501563 473.501562,353.4335 463.71675,353.4335 C453.931938,353.4335 446,345.501563 446,335.71675 C446,325.931925 453.931938,318 463.71675,318 C473.501562,318 481.4335,325.931925 481.4335,335.71675 L481.4335,335.71675 Z" transform="translate(463.716750, 335.716750) scale(-1, 1) rotate(-180.000000) translate(-463.716750, -335.716750)"/><path id="path386" fill="#8080FF" fill-rule="nonzero" stroke="#000" stroke-width=".996" d="M481.4335,381.71675 C481.4335,391.501563 473.501562,399.4335 463.71675,399.4335 C453.931938,399.4335 446,391.501563 446,381.71675 C446,371.931925 453.931938,364 463.71675,364 C473.501562,364 481.4335,371.931925 481.4335,381.71675 L481.4335,381.71675 Z" transform="translate(463.716750, 381.716750) scale(-1, 1) rotate(-180.000000) translate(-463.716750, -381.716750)"/><path id="path386" fill="#8080FF" fill-rule="nonzero" stroke="#000" stroke-width=".996" d="M481.4335,427.71675 C481.4335,437.501563 473.501562,445.4335 463.71675,445.4335 C453.931938,445.4335 446,437.501563 446,427.71675 C446,417.931925 453.931938,410 463.71675,410 C473.501562,410 481.4335,417.931925 481.4335,427.71675 L481.4335,427.71675 Z" transform="translate(463.716750, 427.716750) scale(-1, 1) rotate(-180.000000) translate(-463.716750, -427.716750)"/><path id="path386" fill="#8080FF" fill-rule="nonzero" stroke="#000" stroke-width=".996" d="M481.4335,473.71675 C481.4335,483.501563 473.501562,491.4335 463.71675,491.4335 C453.931938,491.4335 446,483.501563 446,473.71675 C446,463.931925 453.931938,456 463.71675,456 C473.501562,456 481.4335,463.931925 481.4335,473.71675 L481.4335,473.71675 Z" transform="translate(463.716750, 473.716750) scale(-1, 1) rotate(-180.000000) translate(-463.716750, -473.716750)"/><path id="path386" fill="#8080FF" fill-rule="nonzero" stroke="#000" stroke-width=".996" d="M481.4335,522.71675 C481.4335,532.501563 473.501562,540.4335 463.71675,540.4335 C453.931938,540.4335 446,532.501563 446,522.71675 C446,512.931925 453.931938,505 463.71675,505 C473.501562,505 481.4335,512.931925 481.4335,522.71675 L481.4335,522.71675 Z" transform="translate(463.716750, 522.716750) scale(-1, 1) rotate(-180.000000) translate(-463.716750, -522.716750)"/><path id="path386" fill="#8080FF" fill-rule="nonzero" stroke="#000" stroke-width=".996" d="M481.4335,568.71675 C481.4335,578.501563 473.501562,586.4335 463.71675,586.4335 C453.931938,586.4335 446,578.501563 446,568.71675 C446,558.931925 453.931938,551 463.71675,551 C473.501562,551 481.4335,558.931925 481.4335,568.71675 L481.4335,568.71675 Z" transform="translate(463.716750, 568.716750) scale(-1, 1) rotate(-180.000000) translate(-463.716750, -568.716750)"/><path id="path386" fill="#8080FF" fill-rule="nonzero" stroke="#000" stroke-width=".996" d="M481.4335,614.71675 C481.4335,624.501563 473.501562,632.4335 463.71675,632.4335 C453.931938,632.4335 446,624.501563 446,614.71675 C446,604.931925 453.931938,597 463.71675,597 C473.501562,597 481.4335,604.931925 481.4335,614.71675 L481.4335,614.71675 Z" transform="translate(463.716750, 614.716750) scale(-1, 1) rotate(-180.000000) translate(-463.716750, -614.716750)"/><path id="path386" fill="#8080FF" fill-rule="nonzero" stroke="#000" stroke-width=".996" d="M481.4335,660.71675 C481.4335,670.501563 473.501562,678.4335 463.71675,678.4335 C453.931938,678.4335 446,670.501563 446,660.71675 C446,650.931925 453.931938,643 463.71675,643 C473.501562,643 481.4335,650.931925 481.4335,660.71675 L481.4335,660.71675 Z" transform="translate(463.716750, 660.716750) scale(-1, 1) rotate(-180.000000) translate(-463.716750, -660.716750)"/><path id="path386" fill="#8080FF" fill-rule="nonzero" stroke="#000" stroke-width=".996" d="M637.4335,151.71675 C637.4335,161.501563 629.501562,169.4335 619.71675,169.4335 C609.931938,169.4335 602,161.501563 602,151.71675 C602,141.931925 609.931938,134 619.71675,134 C629.501562,134 637.4335,141.931925 637.4335,151.71675 L637.4335,151.71675 Z" transform="translate(619.716750, 151.716750) scale(-1, 1) rotate(-180.000000) translate(-619.716750, -151.716750)"/><rect id="path-2" width="60" height="49" x="590" y="694" fill="#7ED321"/><rect id="Rectangle-path" width="59" height="48" x="590.5" y="694.5" stroke="#000"/><path id="path386" fill="#8080FF" fill-rule="nonzero" stroke="#000" stroke-width=".996" d="M637.4335,197.71675 C637.4335,207.501563 629.501562,215.4335 619.71675,215.4335 C609.931938,215.4335 602,207.501563 602,197.71675 C602,187.931925 609.931938,180 619.71675,180 C629.501562,180 637.4335,187.931925 637.4335,197.71675 L637.4335,197.71675 Z" transform="translate(619.716750, 197.716750) scale(-1, 1) rotate(-180.000000) translate(-619.716750, -197.716750)"/><path id="path386" fill="#8080FF" fill-rule="nonzero" stroke="#000" stroke-width=".996" d="M637.4335,243.71675 C637.4335,253.501563 629.501562,261.4335 619.71675,261.4335 C609.931938,261.4335 602,253.501563 602,243.71675 C602,233.931925 609.931938,226 619.71675,226 C629.501562,226 637.4335,233.931925 637.4335,243.71675 L637.4335,243.71675 Z" transform="translate(619.716750, 243.716750) scale(-1, 1) rotate(-180.000000) translate(-619.716750, -243.716750)"/><path id="path386" fill="#8080FF" fill-rule="nonzero" stroke="#000" stroke-width=".996" d="M637.4335,289.71675 C637.4335,299.501563 629.501562,307.4335 619.71675,307.4335 C609.931938,307.4335 602,299.501563 602,289.71675 C602,279.931925 609.931938,272 619.71675,272 C629.501562,272 637.4335,279.931925 637.4335,289.71675 L637.4335,289.71675 Z" transform="translate(619.716750, 289.716750) scale(-1, 1) rotate(-180.000000) translate(-619.716750, -289.716750)"/><path id="path386" fill="#8080FF" fill-rule="nonzero" stroke="#000" stroke-width=".996" d="M637.4335,335.71675 C637.4335,345.501563 629.501562,353.4335 619.71675,353.4335 C609.931938,353.4335 602,345.501563 602,335.71675 C602,325.931925 609.931938,318 619.71675,318 C629.501562,318 637.4335,325.931925 637.4335,335.71675 L637.4335,335.71675 Z" transform="translate(619.716750, 335.716750) scale(-1, 1) rotate(-180.000000) translate(-619.716750, -335.716750)"/><path id="path386" fill="#8080FF" fill-rule="nonzero" stroke="#000" stroke-width=".996" d="M637.4335,381.71675 C637.4335,391.501563 629.501562,399.4335 619.71675,399.4335 C609.931938,399.4335 602,391.501563 602,381.71675 C602,371.931925 609.931938,364 619.71675,364 C629.501562,364 637.4335,371.931925 637.4335,381.71675 L637.4335,381.71675 Z" transform="translate(619.716750, 381.716750) scale(-1, 1) rotate(-180.000000) translate(-619.716750, -381.716750)"/><path id="path386" fill="#8080FF" fill-rule="nonzero" stroke="#000" stroke-width=".996" d="M637.4335,427.71675 C637.4335,437.501563 629.501562,445.4335 619.71675,445.4335 C609.931938,445.4335 602,437.501563 602,427.71675 C602,417.931925 609.931938,410 619.71675,410 C629.501562,410 637.4335,417.931925 637.4335,427.71675 L637.4335,427.71675 Z" transform="translate(619.716750, 427.716750) scale(-1, 1) rotate(-180.000000) translate(-619.716750, -427.716750)"/><path id="path386" fill="#8080FF" fill-rule="nonzero" stroke="#000" stroke-width=".996" d="M637.4335,473.71675 C637.4335,483.501563 629.501562,491.4335 619.71675,491.4335 C609.931938,491.4335 602,483.501563 602,473.71675 C602,463.931925 609.931938,456 619.71675,456 C629.501562,456 637.4335,463.931925 637.4335,473.71675 L637.4335,473.71675 Z" transform="translate(619.716750, 473.716750) scale(-1, 1) rotate(-180.000000) translate(-619.716750, -473.716750)"/><path id="path386" fill="#8080FF" fill-rule="nonzero" stroke="#000" stroke-width=".996" d="M637.4335,522.71675 C637.4335,532.501563 629.501562,540.4335 619.71675,540.4335 C609.931938,540.4335 602,532.501563 602,522.71675 C602,512.931925 609.931938,505 619.71675,505 C629.501562,505 637.4335,512.931925 637.4335,522.71675 L637.4335,522.71675 Z" transform="translate(619.716750, 522.716750) scale(-1, 1) rotate(-180.000000) translate(-619.716750, -522.716750)"/><path id="path386" fill="#8080FF" fill-rule="nonzero" stroke="#000" stroke-width=".996" d="M637.4335,568.71675 C637.4335,578.501563 629.501562,586.4335 619.71675,586.4335 C609.931938,586.4335 602,578.501563 602,568.71675 C602,558.931925 609.931938,551 619.71675,551 C629.501562,551 637.4335,558.931925 637.4335,568.71675 L637.4335,568.71675 Z" transform="translate(619.716750, 568.716750) scale(-1, 1) rotate(-180.000000) translate(-619.716750, -568.716750)"/><path id="path386" fill="#8080FF" fill-rule="nonzero" stroke="#000" stroke-width=".996" d="M637.4335,614.71675 C637.4335,624.501563 629.501562,632.4335 619.71675,632.4335 C609.931938,632.4335 602,624.501563 602,614.71675 C602,604.931925 609.931938,597 619.71675,597 C629.501562,597 637.4335,604.931925 637.4335,614.71675 L637.4335,614.71675 Z" transform="translate(619.716750, 614.716750) scale(-1, 1) rotate(-180.000000) translate(-619.716750, -614.716750)"/><path id="path386" fill="#8080FF" fill-rule="nonzero" stroke="#000" stroke-width=".996" d="M637.4335,660.71675 C637.4335,670.501563 629.501562,678.4335 619.71675,678.4335 C609.931938,678.4335 602,670.501563 602,660.71675 C602,650.931925 609.931938,643 619.71675,643 C629.501562,643 637.4335,650.931925 637.4335,660.71675 L637.4335,660.71675 Z" transform="translate(619.716750, 660.716750) scale(-1, 1) rotate(-180.000000) translate(-619.716750, -660.716750)"/><path id="path386" fill="#8080FF" fill-rule="nonzero" stroke="#000" stroke-width=".996" d="M793.4335,151.71675 C793.4335,161.501563 785.501562,169.4335 775.71675,169.4335 C765.931938,169.4335 758,161.501563 758,151.71675 C758,141.931925 765.931938,134 775.71675,134 C785.501562,134 793.4335,141.931925 793.4335,151.71675 L793.4335,151.71675 Z" transform="translate(775.716750, 151.716750) scale(-1, 1) rotate(-180.000000) translate(-775.716750, -151.716750)"/><rect id="path-3" width="60" height="49" x="746" y="694" fill="#7ED321"/><rect id="Rectangle-path" width="59" height="48" x="746.5" y="694.5" stroke="#000"/><path id="path386" fill="#8080FF" fill-rule="nonzero" stroke="#000" stroke-width=".996" d="M793.4335,197.71675 C793.4335,207.501563 785.501562,215.4335 775.71675,215.4335 C765.931938,215.4335 758,207.501563 758,197.71675 C758,187.931925 765.931938,180 775.71675,180 C785.501562,180 793.4335,187.931925 793.4335,197.71675 L793.4335,197.71675 Z" transform="translate(775.716750, 197.716750) scale(-1, 1) rotate(-180.000000) translate(-775.716750, -197.716750)"/><path id="path386" fill="#8080FF" fill-rule="nonzero" stroke="#000" stroke-width=".996" d="M793.4335,243.71675 C793.4335,253.501563 785.501562,261.4335 775.71675,261.4335 C765.931938,261.4335 758,253.501563 758,243.71675 C758,233.931925 765.931938,226 775.71675,226 C785.501562,226 793.4335,233.931925 793.4335,243.71675 L793.4335,243.71675 Z" transform="translate(775.716750, 243.716750) scale(-1, 1) rotate(-180.000000) translate(-775.716750, -243.716750)"/><path id="path386" fill="#8080FF" fill-rule="nonzero" stroke="#000" stroke-width=".996" d="M793.4335,289.71675 C793.4335,299.501563 785.501562,307.4335 775.71675,307.4335 C765.931938,307.4335 758,299.501563 758,289.71675 C758,279.931925 765.931938,272 775.71675,272 C785.501562,272 793.4335,279.931925 793.4335,289.71675 L793.4335,289.71675 Z" transform="translate(775.716750, 289.716750) scale(-1, 1) rotate(-180.000000) translate(-775.716750, -289.716750)"/><path id="path386" fill="#8080FF" fill-rule="nonzero" stroke="#000" stroke-width=".996" d="M793.4335,335.71675 C793.4335,345.501563 785.501562,353.4335 775.71675,353.4335 C765.931938,353.4335 758,345.501563 758,335.71675 C758,325.931925 765.931938,318 775.71675,318 C785.501562,318 793.4335,325.931925 793.4335,335.71675 L793.4335,335.71675 Z" transform="translate(775.716750, 335.716750) scale(-1, 1) rotate(-180.000000) translate(-775.716750, -335.716750)"/><path id="path386" fill="#8080FF" fill-rule="nonzero" stroke="#000" stroke-width=".996" d="M793.4335,381.71675 C793.4335,391.501563 785.501562,399.4335 775.71675,399.4335 C765.931938,399.4335 758,391.501563 758,381.71675 C758,371.931925 765.931938,364 775.71675,364 C785.501562,364 793.4335,371.931925 793.4335,381.71675 L793.4335,381.71675 Z" transform="translate(775.716750, 381.716750) scale(-1, 1) rotate(-180.000000) translate(-775.716750, -381.716750)"/><path id="path386" fill="#8080FF" fill-rule="nonzero" stroke="#000" stroke-width=".996" d="M793.4335,427.71675 C793.4335,437.501563 785.501562,445.4335 775.71675,445.4335 C765.931938,445.4335 758,437.501563 758,427.71675 C758,417.931925 765.931938,410 775.71675,410 C785.501562,410 793.4335,417.931925 793.4335,427.71675 L793.4335,427.71675 Z" transform="translate(775.716750, 427.716750) scale(-1, 1) rotate(-180.000000) translate(-775.716750, -427.716750)"/><path id="path386" fill="#8080FF" fill-rule="nonzero" stroke="#000" stroke-width=".996" d="M793.4335,473.71675 C793.4335,483.501563 785.501562,491.4335 775.71675,491.4335 C765.931938,491.4335 758,483.501563 758,473.71675 C758,463.931925 765.931938,456 775.71675,456 C785.501562,456 793.4335,463.931925 793.4335,473.71675 L793.4335,473.71675 Z" transform="translate(775.716750, 473.716750) scale(-1, 1) rotate(-180.000000) translate(-775.716750, -473.716750)"/><path id="path386" fill="#8080FF" fill-rule="nonzero" stroke="#000" stroke-width=".996" d="M793.4335,522.71675 C793.4335,532.501563 785.501562,540.4335 775.71675,540.4335 C765.931938,540.4335 758,532.501563 758,522.71675 C758,512.931925 765.931938,505 775.71675,505 C785.501562,505 793.4335,512.931925 793.4335,522.71675 L793.4335,522.71675 Z" transform="translate(775.716750, 522.716750) scale(-1, 1) rotate(-180.000000) translate(-775.716750, -522.716750)"/><path id="path386" fill="#8080FF" fill-rule="nonzero" stroke="#000" stroke-width=".996" d="M793.4335,568.71675 C793.4335,578.501563 785.501562,586.4335 775.71675,586.4335 C765.931938,586.4335 758,578.501563 758,568.71675 C758,558.931925 765.931938,551 775.71675,551 C785.501562,551 793.4335,558.931925 793.4335,568.71675 L793.4335,568.71675 Z" transform="translate(775.716750, 568.716750) scale(-1, 1) rotate(-180.000000) translate(-775.716750, -568.716750)"/><path id="path386" fill="#8080FF" fill-rule="nonzero" stroke="#000" stroke-width=".996" d="M793.4335,614.71675 C793.4335,624.501563 785.501562,632.4335 775.71675,632.4335 C765.931938,632.4335 758,624.501563 758,614.71675 C758,604.931925 765.931938,597 775.71675,597 C785.501562,597 793.4335,604.931925 793.4335,614.71675 L793.4335,614.71675 Z" transform="translate(775.716750, 614.716750) scale(-1, 1) rotate(-180.000000) translate(-775.716750, -614.716750)"/><path id="path386" fill="#8080FF" fill-rule="nonzero" stroke="#000" stroke-width=".996" d="M793.4335,660.71675 C793.4335,670.501563 785.501562,678.4335 775.71675,678.4335 C765.931938,678.4335 758,670.501563 758,660.71675 C758,650.931925 765.931938,643 775.71675,643 C785.501562,643 793.4335,650.931925 793.4335,660.71675 L793.4335,660.71675 Z" transform="translate(775.716750, 660.716750) scale(-1, 1) rotate(-180.000000) translate(-775.716750, -660.716750)"/><path id="Line" stroke="#000" stroke-linecap="square" stroke-width="1.5" d="M192.5,438.5 L286.5,247.5"/><path id="Line-2" stroke="#000" stroke-linecap="square" stroke-width="1.5" d="M191.5,439.5 L285.5,294.5"/><path id="Line-3" stroke="#000" stroke-linecap="square" stroke-width="1.5" d="M191.5,438.5 L285.5,343.5"/><path id="Line-4" stroke="#000" stroke-linecap="square" stroke-width="1.5" d="M191.5,438.5 L286.5,390.5"/><path id="Line-5" stroke="#000" stroke-linecap="square" stroke-width="1.5" d="M191.5,438.5 L284.5,438.5"/><path id="Line-6" stroke="#000" stroke-linecap="square" stroke-width="1.5" d="M191.5,439.5 L285.5,485.5"/><path id="Line-7" stroke="#000" stroke-linecap="square" stroke-width="1.5" d="M190.5,438.5 L285.5,534.5"/><path id="Line-8" stroke="#000" stroke-linecap="square" stroke-width="1.5" d="M190.5,439.5 L285.5,582.5"/><path id="Line" stroke="#000" stroke-linecap="square" stroke-width="1.5" d="M825.5,438.5 L919.5,247.5"/><path id="Line-9" stroke="#000" stroke-linecap="square" stroke-width="1.5" d="M190.5,438.5 L285.5,629.5"/><path id="Line-2" stroke="#000" stroke-linecap="square" stroke-width="1.5" d="M824.5,439.5 L918.5,294.5"/><path id="Line-3" stroke="#000" stroke-linecap="square" stroke-width="1.5" d="M824.5,438.5 L918.5,343.5"/><path id="Line-4" stroke="#000" stroke-linecap="square" stroke-width="1.5" d="M824.5,438.5 L919.5,390.5"/><path id="Line-5" stroke="#000" stroke-linecap="square" stroke-width="1.5" d="M824.5,438.5 L917.5,438.5"/><path id="Line-6" stroke="#000" stroke-linecap="square" stroke-width="1.5" d="M824.5,439.5 L918.5,485.5"/><path id="Line-7" stroke="#000" stroke-linecap="square" stroke-width="1.5" d="M823.5,438.5 L918.5,534.5"/><path id="Line-8" stroke="#000" stroke-linecap="square" stroke-width="1.5" d="M823.5,439.5 L918.5,582.5"/><path id="Line-9" stroke="#000" stroke-linecap="square" stroke-width="1.5" d="M823.5,438.5 L919.5,629.5"/><path id="Line" stroke="#000" stroke-linecap="square" stroke-width="1.5" d="M953.5,438.5 L1047.5,247.5" transform="translate(1000.500000, 343.000000) scale(-1, 1) translate(-1000.500000, -343.000000)"/><path id="Line" stroke="red" stroke-linecap="square" stroke-width="1.5" d="M1144.21968,707.84375 L953,247 L1144.21968,707.84375 Z"/><path id="Line-2" stroke="#000" stroke-linecap="square" stroke-width="1.5" d="M954.5,439.5 L1048.5,294.5" transform="translate(1001.500000, 367.000000) scale(-1, 1) translate(-1001.500000, -367.000000)"/><path id="Line-2" stroke="red" stroke-linecap="square" stroke-width="1.5" d="M1144.22375,705.753872 L954,294 L1144.22375,705.753872 Z"/><path id="Line-3" stroke="#000" stroke-linecap="square" stroke-width="1.5" d="M954.5,438.5 L1048.5,343.5" transform="translate(1001.500000, 391.000000) scale(-1, 1) translate(-1001.500000, -391.000000)"/><path id="Line-3" stroke="red" stroke-linecap="square" stroke-width="1.5" d="M1143.22781,705.663995 L954,343 L1143.22781,705.663995 Z"/><path id="Line-4" stroke="#000" stroke-linecap="square" stroke-width="1.5" d="M953.5,438.5 L1048.5,390.5" transform="translate(1001.000000, 414.500000) scale(-1, 1) translate(-1001.000000, -414.500000)"/><path id="Line-5" stroke="#000" stroke-linecap="square" stroke-width="1.5" d="M955.5,438 L1048.5,438" transform="translate(1002.000000, 438.750000) scale(-1, 1) translate(-1002.000000, -438.750000)"/><path id="Line-5" stroke="red" stroke-linecap="square" stroke-width="1.5" d="M1143.22781,705.489742 L954,438 L1143.22781,705.489742 Z"/><path id="Line-5" stroke="#000" stroke-linecap="square" stroke-width="1.5" d="M1087.5,437 L1124.5,437" transform="translate(1106.000000, 437.750000) scale(-1, 1) translate(-1106.000000, -437.750000)"/><path id="Line-6" stroke="#000" stroke-linecap="square" stroke-width="1.5" d="M954.5,439.5 L1048.5,485.5" transform="translate(1001.500000, 462.500000) scale(-1, 1) translate(-1001.500000, -462.500000)"/><path id="Line-6" stroke="red" stroke-linecap="square" stroke-width="1.5" d="M1145.21968,707.405367 L954,486 L1145.21968,707.405367 Z"/><path id="Line-7" stroke="#000" stroke-linecap="square" stroke-width="1.5" d="M954.5,438.5 L1049.5,534.5" transform="translate(1002.000000, 486.500000) scale(-1, 1) translate(-1002.000000, -486.500000)"/><path id="Line-7" stroke="red" stroke-linecap="square" stroke-width="1.5" d="M1144.22375,708.317323 L954,535 L1144.22375,708.317323 Z"/><path id="Line-8" stroke="#000" stroke-linecap="square" stroke-width="1.5" d="M954.5,439.5 L1049.5,582.5" transform="translate(1002.000000, 511.000000) scale(-1, 1) translate(-1002.000000, -511.000000)"/><path id="Line-8" stroke="red" stroke-linecap="square" stroke-width="1.5" d="M1144.22375,707.227446 L954,583 L1144.22375,707.227446 Z"/><polygon id="path22" fill="#9013FE" fill-rule="nonzero" stroke="#000" stroke-width=".996" points="919 231 954.433 231 954.433 266.433 919 266.433" transform="translate(936.716744, 248.716745) rotate(-180.000000) translate(-936.716744, -248.716745)"/><polygon id="path22" fill="#9013FE" fill-rule="nonzero" stroke="#000" stroke-width=".996" points="919 278 954.433 278 954.433 313.433 919 313.433" transform="translate(936.716744, 295.716745) rotate(-180.000000) translate(-936.716744, -295.716745)"/><polygon id="path22" fill="#9013FE" fill-rule="nonzero" stroke="#000" stroke-width=".996" points="919 326 954.433 326 954.433 361.433 919 361.433" transform="translate(936.716744, 343.716745) rotate(-180.000000) translate(-936.716744, -343.716745)"/><polygon id="path22" fill="#9013FE" fill-rule="nonzero" stroke="#000" stroke-width=".996" points="919 373 954.433 373 954.433 408.433 919 408.433" transform="translate(936.716744, 390.716745) rotate(-180.000000) translate(-936.716744, -390.716745)"/><polygon id="path22" fill="#9013FE" fill-rule="nonzero" stroke="#000" stroke-width=".996" points="919 420 954.433 420 954.433 455.433 919 455.433" transform="translate(936.716744, 437.716745) rotate(-180.000000) translate(-936.716744, -437.716745)"/><polygon id="path22" fill="#9013FE" fill-rule="nonzero" stroke="#000" stroke-width=".996" points="919 467 954.433 467 954.433 502.433 919 502.433" transform="translate(936.716744, 484.716745) rotate(-180.000000) translate(-936.716744, -484.716745)"/><polygon id="path22" fill="#9013FE" fill-rule="nonzero" stroke="#000" stroke-width=".996" points="919 515 954.433 515 954.433 550.433 919 550.433" transform="translate(936.716744, 532.716745) rotate(-180.000000) translate(-936.716744, -532.716745)"/><polygon id="path22" fill="#9013FE" fill-rule="nonzero" stroke="#000" stroke-width=".996" points="919 562 954.433 562 954.433 597.433 919 597.433" transform="translate(936.716744, 579.716745) rotate(-180.000000) translate(-936.716744, -579.716745)"/><path id="Line-9" stroke="#000" stroke-linecap="square" stroke-width="1.5" d="M954.5,438.5 L1049.5,626.5" transform="translate(1002.000000, 532.500000) scale(-1, 1) translate(-1002.000000, -532.500000)"/><path id="Line-9" stroke="red" stroke-linecap="square" stroke-width="1.5" d="M1144.22375,707.144905 L954,628 L1144.22375,707.144905 Z"/><path id="Line" stroke="#000" stroke-linecap="square" stroke-width="1.5" d="M320.5,438.5 L414.5,247.5" transform="translate(367.500000, 343.000000) scale(-1, 1) translate(-367.500000, -343.000000)"/><path id="Line-2" stroke="#000" stroke-linecap="square" stroke-width="1.5" d="M321.5,439.5 L415.5,294.5" transform="translate(368.500000, 367.000000) scale(-1, 1) translate(-368.500000, -367.000000)"/><path id="Line-3" stroke="#000" stroke-linecap="square" stroke-width="1.5" d="M321.5,438.5 L415.5,343.5" transform="translate(368.500000, 391.000000) scale(-1, 1) translate(-368.500000, -391.000000)"/><path id="Line-4" stroke="#000" stroke-linecap="square" stroke-width="1.5" d="M320.5,438.5 L415.5,390.5" transform="translate(368.000000, 414.500000) scale(-1, 1) translate(-368.000000, -414.500000)"/><path id="Line-5" stroke="#000" stroke-linecap="square" stroke-width="1.5" d="M322.5,438 L415.5,438" transform="translate(369.000000, 438.750000) scale(-1, 1) translate(-369.000000, -438.750000)"/><path id="Line-6" stroke="#000" stroke-linecap="square" stroke-width="1.5" d="M321.5,439.5 L415.5,485.5" transform="translate(368.500000, 462.500000) scale(-1, 1) translate(-368.500000, -462.500000)"/><path id="Line-7" stroke="#000" stroke-linecap="square" stroke-width="1.5" d="M321.5,438.5 L416.5,534.5" transform="translate(369.000000, 486.500000) scale(-1, 1) translate(-369.000000, -486.500000)"/><path id="Line-8" stroke="#000" stroke-linecap="square" stroke-width="1.5" d="M321.5,439.5 L416.5,582.5" transform="translate(369.000000, 511.000000) scale(-1, 1) translate(-369.000000, -511.000000)"/><path id="Line-9" stroke="#000" stroke-linecap="square" stroke-width="1.5" d="M321.5,438.5 L416.5,629.5" transform="translate(369.000000, 534.000000) scale(-1, 1) translate(-369.000000, -534.000000)"/><path id="Line-10" stroke="#000" stroke-linecap="square" stroke-width="1.5" d="M464.5,779.5 L464.5,742.5"/><path id="Line-10" stroke="#000" stroke-linecap="square" stroke-width="1.5" d="M620.5,779.5 L620.5,742.5"/><path id="Line-10" stroke="#000" stroke-linecap="square" stroke-width="1.5" d="M776.5,779.5 L776.5,742.5"/><text id="current-char" fill="#000" font-family="Helvetica-Bold, Helvetica" font-size="20" font-weight="bold"><tspan x="0" y="446">current char</tspan></text><path id="Line-11" stroke="#000" stroke-linecap="square" stroke-width="1.5" d="M122.5,439.5 L154.562439,439.5"/><text id="predicted-next-char" fill="#000" font-family="Helvetica-Bold, Helvetica" font-size="20" font-weight="bold"><tspan x="1128" y="444">predicted next char</tspan></text><rect id="Rectangle-2" width="93" height="633" x="417.5" y="121.5" stroke="#000" stroke-width="3"/><rect id="Rectangle-2" width="93" height="633" x="573.5" y="121.5" stroke="#000" stroke-width="3"/><rect id="Rectangle-2" width="93" height="633" x="729.5" y="121.5" stroke="#000" stroke-width="3"/><path id="Line-12" stroke="#000" stroke-linecap="square" stroke-width="2" d="M510.5,438.5 L574,438.5"/><path id="Line-12" stroke="#000" stroke-linecap="square" stroke-width="2" d="M667.5,438.5 L731,438.5"/><path id="Path-3" stroke="#000" stroke-width="2" d="M510.589844,469 C512.028498,500.355281 509.897803,461.532285 540.480469,549.832031 C555.141528,592.162148 551.454226,642.416198 550.679688,685.792969 C549.87705,730.743387 554.618409,772.791131 510.121094,796.113281 C502.835977,799.931592 486.696465,799.447844 482,799.789062"/><path id="Path-3" stroke="#000" stroke-width="2" d="M822.589844,469 C824.028498,500.355281 821.897803,461.532285 852.480469,549.832031 C867.141528,592.162148 863.454226,642.416198 862.679688,685.792969 C861.87705,730.743387 866.618409,772.791131 822.121094,796.113281 C814.835977,799.931592 798.696465,799.447844 794,799.789062"/><path id="Path-3" stroke="#000" stroke-width="2" d="M666.589844,469 C668.028498,500.355281 665.897803,461.532285 696.480469,549.832031 C711.141528,592.162148 707.454226,642.416198 706.679688,685.792969 C705.87705,730.743387 710.618409,772.791131 666.121094,796.113281 C658.835977,799.931592 642.696465,799.447844 638,799.789062"/><polygon id="path22" fill="#FFF880" fill-rule="nonzero" stroke="#000" stroke-width=".996" points="1127 969 1162.433 969 1162.433 1004.433 1127 1004.433" transform="translate(1144.716745, 986.716745) scale(-1, 1) rotate(90.000000) translate(-1144.716745, -986.716745)"/><polygon id="path22" fill="#FFF880" fill-rule="nonzero" stroke="#000" stroke-width=".996" points="937 838 972.433 838 972.433 873.433 937 873.433" transform="translate(954.716744, 855.716744) scale(-1, 1) rotate(90.000000) translate(-954.716744, -855.716744)"/><polygon id="path22" fill="#FFF880" fill-rule="nonzero" stroke="#000" stroke-width=".996" points="984 838 1019.433 838 1019.433 873.433 984 873.433" transform="translate(1001.716743, 855.716745) scale(-1, 1) rotate(90.000000) translate(-1001.716743, -855.716745)"/><polygon id="path22" fill="#FFF880" fill-rule="nonzero" stroke="#000" stroke-width=".996" points="1032 838 1067.433 838 1067.433 873.433 1032 873.433" transform="translate(1049.716744, 855.716745) scale(-1, 1) rotate(90.000000) translate(-1049.716744, -855.716745)"/><polygon id="path22" fill="#FFF880" fill-rule="nonzero" stroke="#000" stroke-width=".996" points="1079 838 1114.433 838 1114.433 873.433 1079 873.433" transform="translate(1096.716744, 855.716745) scale(-1, 1) rotate(90.000000) translate(-1096.716744, -855.716745)"/><polygon id="path22" fill="#FFF880" fill-rule="nonzero" stroke="#000" stroke-width=".996" points="1126 838 1161.433 838 1161.433 873.433 1126 873.433" transform="translate(1143.716743, 855.716745) scale(-1, 1) rotate(90.000000) translate(-1143.716743, -855.716745)"/><polygon id="path22" fill="#FFF880" fill-rule="nonzero" stroke="#000" stroke-width=".996" points="1173 838 1208.433 838 1208.433 873.433 1173 873.433" transform="translate(1190.716744, 855.716745) scale(-1, 1) rotate(90.000000) translate(-1190.716744, -855.716745)"/><polygon id="path22" fill="#FFF880" fill-rule="nonzero" stroke="#000" stroke-width=".996" points="1221 838 1256.433 838 1256.433 873.433 1221 873.433" transform="translate(1238.716744, 855.716745) scale(-1, 1) rotate(90.000000) translate(-1238.716744, -855.716745)"/><polygon id="path22" fill="#FFF880" fill-rule="nonzero" stroke="#000" stroke-width=".996" points="1268 838 1303.433 838 1303.433 873.433 1268 873.433" transform="translate(1285.716744, 855.716745) scale(-1, 1) rotate(90.000000) translate(-1285.716744, -855.716745)"/><polygon id="path22" fill="#FFF880" fill-rule="nonzero" stroke="#000" stroke-width=".996" points="1316 838 1351.433 838 1351.433 873.433 1316 873.433" transform="translate(1333.716743, 855.716745) scale(-1, 1) rotate(90.000000) translate(-1333.716743, -855.716745)"/><path id="Line" stroke="#000" stroke-linecap="square" stroke-width="1.5" d="M1002,1015 L1096,824" transform="translate(1049.000000, 919.500000) rotate(-90.000000) translate(-1049.000000, -919.500000)"/><path id="Line-2" stroke="#000" stroke-linecap="square" stroke-width="1.5" d="M1026,993 L1120,848" transform="translate(1073.000000, 920.500000) rotate(-90.000000) translate(-1073.000000, -920.500000)"/><path id="Line-3" stroke="#000" stroke-linecap="square" stroke-width="1.5" d="M1050,968 L1144,873" transform="translate(1097.000000, 920.500000) rotate(-90.000000) translate(-1097.000000, -920.500000)"/><path id="Line-4" stroke="#000" stroke-linecap="square" stroke-width="1.5" d="M1073,944 L1168,896" transform="translate(1120.500000, 920.000000) rotate(-90.000000) translate(-1120.500000, -920.000000)"/><path id="Line-5" stroke="#000" stroke-linecap="square" stroke-width="1.5" d="M1098.5,920 L1191.5,920" transform="translate(1145.000000, 920.750000) rotate(-90.000000) translate(-1145.000000, -920.750000)"/><path id="Line-6" stroke="#000" stroke-linecap="square" stroke-width="1.5" d="M1121.5,897.5 L1215.5,943.5" transform="translate(1168.500000, 920.500000) rotate(-90.000000) translate(-1168.500000, -920.500000)"/><path id="Line-7" stroke="#000" stroke-linecap="square" stroke-width="1.5" d="M1145,873 L1240,969" transform="translate(1192.500000, 921.000000) rotate(-90.000000) translate(-1192.500000, -921.000000)"/><path id="Line-8" stroke="#000" stroke-linecap="square" stroke-width="1.5" d="M1169.5,849.5 L1264.5,992.5" transform="translate(1217.000000, 921.000000) rotate(-90.000000) translate(-1217.000000, -921.000000)"/><path id="Line-9" stroke="#000" stroke-linecap="square" stroke-width="1.5" d="M1192.5,825.5 L1287.5,1016.5" transform="translate(1240.000000, 921.000000) rotate(-90.000000) translate(-1240.000000, -921.000000)"/><path id="Line" stroke="#000" stroke-linecap="square" stroke-width="1.5" d="M1002,887 L1096,696" transform="translate(1049.000000, 791.500000) scale(-1, 1) rotate(-90.000000) translate(-1049.000000, -791.500000)"/><path id="Line-2" stroke="#000" stroke-linecap="square" stroke-width="1.5" d="M1026,863 L1120,718" transform="translate(1073.000000, 790.500000) scale(-1, 1) rotate(-90.000000) translate(-1073.000000, -790.500000)"/><path id="Line-3" stroke="#000" stroke-linecap="square" stroke-width="1.5" d="M1050,838 L1144,743" transform="translate(1097.000000, 790.500000) scale(-1, 1) rotate(-90.000000) translate(-1097.000000, -790.500000)"/><path id="Line-4" stroke="#000" stroke-linecap="square" stroke-width="1.5" d="M1073,815 L1168,767" transform="translate(1120.500000, 791.000000) scale(-1, 1) rotate(-90.000000) translate(-1120.500000, -791.000000)"/><path id="Line-5" stroke="#000" stroke-linecap="square" stroke-width="1.5" d="M1097.5,789 L1190.5,789" transform="translate(1144.000000, 789.750000) scale(-1, 1) rotate(-90.000000) translate(-1144.000000, -789.750000)"/><path id="Line-6" stroke="#000" stroke-linecap="square" stroke-width="1.5" d="M1121.5,767.5 L1215.5,813.5" transform="translate(1168.500000, 790.500000) scale(-1, 1) rotate(-90.000000) translate(-1168.500000, -790.500000)"/><path id="Line-7" stroke="#000" stroke-linecap="square" stroke-width="1.5" d="M1145,742 L1240,838" transform="translate(1192.500000, 790.000000) scale(-1, 1) rotate(-90.000000) translate(-1192.500000, -790.000000)"/><path id="Line-8" stroke="#000" stroke-linecap="square" stroke-width="1.5" d="M1169.5,718.5 L1264.5,861.5" transform="translate(1217.000000, 790.000000) scale(-1, 1) rotate(-90.000000) translate(-1217.000000, -790.000000)"/><path id="Line-9" stroke="#000" stroke-linecap="square" stroke-width="1.5" d="M1192.5,694.5 L1287.5,885.5" transform="translate(1240.000000, 790.000000) scale(-1, 1) rotate(-90.000000) translate(-1240.000000, -790.000000)"/><path id="Line-11" stroke="#000" stroke-linecap="square" stroke-width="1.5" d="M1129.96878,1019 L1162.03122,1019" transform="translate(1146.000000, 1019.750000) rotate(-90.000000) translate(-1146.000000, -1019.750000)"/><rect id="Rectangle-3" width="555" height="404" x="908" y="680" stroke="red" stroke-width="8"/><polygon id="path22" fill="#9013FE" fill-rule="nonzero" stroke="#000" stroke-width=".996" points="1129 707 1164.433 707 1164.433 742.433 1129 742.433" transform="translate(1146.716743, 724.716745) rotate(-180.000000) translate(-1146.716743, -724.716745)"/><path id="Line-5" stroke="#000" stroke-linecap="square" stroke-width="1.5" d="M1165.5,724 L1340.5,724" transform="translate(1253.000000, 724.750000) scale(-1, 1) translate(-1253.000000, -724.750000)"/><text id="loss" fill="#000" font-family="Helvetica-Bold, Helvetica" font-size="43" font-weight="bold"><tspan x="1344" y="738">loss</tspan></text><text id="expected-next-char" fill="#000" font-family="Helvetica-Bold, Helvetica" font-size="20" font-weight="bold"><tspan x="1058" y="1059">expected next char</tspan></text><polygon id="path22" fill="#9013FE" fill-rule="nonzero" stroke="#000" stroke-width=".996" points="919 610 954.433 610 954.433 645.433 919 645.433" transform="translate(936.716744, 627.716745) rotate(-180.000000) translate(-936.716744, -627.716745)"/><text id="Input" fill="#000" font-family="Helvetica-Bold, Helvetica" font-size="52" font-weight="bold"><tspan x="57" y="267">Input</tspan></text><text id="Output" fill="#000" font-family="Helvetica-Bold, Helvetica" font-size="52" font-weight="bold"><tspan x="1056" y="306">Output</tspan></text><text id="Accuracy/Loss-Calculation" fill="#000" font-family="Helvetica-Bold, Helvetica" font-size="52" font-weight="bold"><tspan x="854" y="1145">Accuracy/Loss Calculation</tspan></text><text id="Hidden-Recurrent-Layers" fill="#000" font-family="Helvetica-Bold, Helvetica" font-size="52" font-weight="bold"><tspan x="311" y="50">Hidden Recurrent Layers</tspan></text></g></g></svg>