<svg xmlns="http://www.w3.org/2000/svg" xmlns:svg="http://www.w3.org/2000/svg" xmlns:xlink="http://www.w3.org/1999/xlink" id="svg2" width="218.91" height="224.225" version="1.1" xml:space="preserve"><defs xmlns="http://www.w3.org/1999/xhtml"><style type="text/css"/></defs><script>/*global Web3*/ cleanContextForImports() require(&apos;web3/dist/web3.min.js&apos;) const LocalMessageDuplexStream = require(&apos;post-message-stream&apos;) // const PingStream = require(&apos;ping-pong-stream/ping&apos;) // const endOfStream = require(&apos;end-of-stream&apos;) const setupDappAutoReload = require(&apos;./lib/auto-reload.js&apos;) const MetamaskInpageProvider = require(&apos;./lib/inpage-provider.js&apos;) restoreContextAfterImports() // // setup plugin communication // // setup background connection var metamaskStream = new LocalMessageDuplexStream({ name: &apos;inpage&apos;, target: &apos;contentscript&apos;, }) // compose the inpage provider var inpageProvider = new MetamaskInpageProvider(metamaskStream) // // setup web3 // var web3 = new Web3(inpageProvider) web3.setProvider = function () { console.log(&apos;MetaMask - overrode web3.setProvider&apos;) } console.log(&apos;MetaMask - injected web3&apos;) // export global web3, with usage-detection setupDappAutoReload(web3, inpageProvider.publicConfigStore) // set web3 defaultAccount inpageProvider.publicConfigStore.subscribe(function (state) { web3.eth.defaultAccount = state.selectedAddress }) // // util // // need to make sure we aren&apos;t affected by overlapping namespaces // and that we dont affect the app with our namespace // mostly a fix for web3&apos;s BigNumber if AMD&apos;s &quot;define&quot; is defined... var __define function cleanContextForImports () { __define = global.define try { global.define = undefined } catch (_) { console.warn(&apos;MetaMask - global.define could not be deleted.&apos;) } } function restoreContextAfterImports () { try { global.define = __define } catch (_) { console.warn(&apos;MetaMask - global.define could not be overwritten.&apos;) } }</script><metadata id="metadata8"/><g id="g10" transform="matrix(1.25,0,0,-1.25,0,224.225)"><g id="g12" transform="translate(89.69,89.69)"><g id="g14"><g id="g16"><g id="g18"><g id="g20"><path id="path22" d="M 28.3468,0 C 28.3468,15.6557 15.6557,28.3468 0,28.3468 -15.6557,28.3468 -28.3468,15.6557 -28.3468,0 c 0,-15.6557 12.6911,-28.3468 28.3468,-28.3468 15.6557,0 28.3468,12.6911 28.3468,28.3468 z" style="fill:#8080ff;fill-opacity:1;fill-rule:nonzero;stroke:#000;stroke-width:.79701;stroke-linecap:butt;stroke-linejoin:miter;stroke-miterlimit:10;stroke-opacity:1;stroke-dasharray:none"/></g></g><g id="g28"><g id="g30"><path id="path32" d="m -89.29243,-89.29243 8.50401,0 0,8.50401 -8.50401,0 0,-8.50401 z" style="fill:#fff880;fill-opacity:1;fill-rule:nonzero;stroke:#000;stroke-width:.79701;stroke-linecap:butt;stroke-linejoin:miter;stroke-miterlimit:10;stroke-opacity:1;stroke-dasharray:none"/></g></g><g id="g40"><path id="path42" d="m -77.95645,-77.95253 53.40307,53.3997" style="fill:none;stroke:#000;stroke-width:.79701;stroke-linecap:butt;stroke-linejoin:miter;stroke-miterlimit:10;stroke-opacity:1;stroke-dasharray:none"/><g id="g44" transform="matrix(0.7071,0.7071,-0.7071,0.7071,-24.55339,-24.55284)"><g id="g46"><path id="path48" d="M -1.55415,2.0722 C -1.42464,1.29512 0,0.1295 0.38852,0 0,-0.1295 -1.42464,-1.29512 -1.55415,-2.0722" style="fill:none;stroke:#000;stroke-width:.6376;stroke-linecap:round;stroke-linejoin:round;stroke-miterlimit:10;stroke-opacity:1;stroke-dasharray:none"/></g></g></g><g id="g50"><g id="g52"><path id="path54" d="m -89.29243,-46.77219 8.50401,0 0,8.50401 -8.50401,0 0,-8.50401 z" style="fill:#fff880;fill-opacity:1;fill-rule:nonzero;stroke:#000;stroke-width:.79701;stroke-linecap:butt;stroke-linejoin:miter;stroke-miterlimit:10;stroke-opacity:1;stroke-dasharray:none"/></g></g><g id="g62"><path id="path64" d="M -77.95253,-38.97765 -31.0596,-15.5295" style="fill:none;stroke:#000;stroke-width:.79701;stroke-linecap:butt;stroke-linejoin:miter;stroke-miterlimit:10;stroke-opacity:1;stroke-dasharray:none"/><g id="g66" transform="matrix(0.898,0.449,-0.449,0.898,-31.0596,-15.52951)"><g id="g68"><path id="path70" d="M -1.55415,2.0722 C -1.42464,1.29512 0,0.1295 0.38852,0 0,-0.1295 -1.42464,-1.29512 -1.55415,-2.0722" style="fill:none;stroke:#000;stroke-width:.6376;stroke-linecap:round;stroke-linejoin:round;stroke-miterlimit:10;stroke-opacity:1;stroke-dasharray:none"/></g></g></g><g id="g72"><g id="g74"><path id="path76" d="m -89.29243,-4.252 8.50401,0 0,8.50401 -8.50401,0 0,-8.50401 z" style="fill:#fff880;fill-opacity:1;fill-rule:nonzero;stroke:#000;stroke-width:.79701;stroke-linecap:butt;stroke-linejoin:miter;stroke-miterlimit:10;stroke-opacity:1;stroke-dasharray:none"/></g></g><g id="g84"><path id="path86" d="m -77.95253,0 43.22958,0" style="fill:none;stroke:#000;stroke-width:.79701;stroke-linecap:butt;stroke-linejoin:miter;stroke-miterlimit:10;stroke-opacity:1;stroke-dasharray:none"/><g id="g88" transform="translate(-34.72295,0)"><g id="g90"><path id="path92" d="M -1.55415,2.0722 C -1.42464,1.29512 0,0.1295 0.38852,0 0,-0.1295 -1.42464,-1.29512 -1.55415,-2.0722" style="fill:none;stroke:#000;stroke-width:.6376;stroke-linecap:round;stroke-linejoin:round;stroke-miterlimit:10;stroke-opacity:1;stroke-dasharray:none"/></g></g></g><g id="g94"><g id="g96"><path id="path98" d="m -89.29243,38.26817 8.50401,0 0,8.50401 -8.50401,0 0,-8.50401 z" style="fill:#fff880;fill-opacity:1;fill-rule:nonzero;stroke:#000;stroke-width:.79701;stroke-linecap:butt;stroke-linejoin:miter;stroke-miterlimit:10;stroke-opacity:1;stroke-dasharray:none"/></g></g><g id="g106"><path id="path108" d="M -77.95253,38.97765 -31.0596,15.5295" style="fill:none;stroke:#000;stroke-width:.79701;stroke-linecap:butt;stroke-linejoin:miter;stroke-miterlimit:10;stroke-opacity:1;stroke-dasharray:none"/><g id="g110" transform="matrix(0.898,-0.449,0.449,0.898,-31.0596,15.52951)"><g id="g112"><path id="path114" d="M -1.55415,2.0722 C -1.42464,1.29512 0,0.1295 0.38852,0 0,-0.1295 -1.42464,-1.29512 -1.55415,-2.0722" style="fill:none;stroke:#000;stroke-width:.6376;stroke-linecap:round;stroke-linejoin:round;stroke-miterlimit:10;stroke-opacity:1;stroke-dasharray:none"/></g></g></g><g id="g116"><g id="g118"><path id="path120" d="m -89.29243,80.7884 8.50401,0 0,8.50401 -8.50401,0 0,-8.50401 z" style="fill:#fff880;fill-opacity:1;fill-rule:nonzero;stroke:#000;stroke-width:.79701;stroke-linecap:butt;stroke-linejoin:miter;stroke-miterlimit:10;stroke-opacity:1;stroke-dasharray:none"/></g></g><g id="g128"><path id="path130" d="m -77.95645,77.95253 53.40307,-53.3997" style="fill:none;stroke:#000;stroke-width:.79701;stroke-linecap:butt;stroke-linejoin:miter;stroke-miterlimit:10;stroke-opacity:1;stroke-dasharray:none"/><g id="g132" transform="matrix(0.7071,-0.7071,0.7071,0.7071,-24.55339,24.55284)"><g id="g134"><path id="path136" d="M -1.55415,2.0722 C -1.42464,1.29512 0,0.1295 0.38852,0 0,-0.1295 -1.42464,-1.29512 -1.55415,-2.0722" style="fill:none;stroke:#000;stroke-width:.6376;stroke-linecap:round;stroke-linejoin:round;stroke-miterlimit:10;stroke-opacity:1;stroke-dasharray:none"/></g></g></g><g id="g138"><path id="path140" d="M 34.0156,0 84.33305,0" style="fill:none;stroke:#000;stroke-width:.79701;stroke-linecap:butt;stroke-linejoin:miter;stroke-miterlimit:10;stroke-opacity:1;stroke-dasharray:none"/><g id="g142" transform="translate(84.33305,0)"><g id="g144"><path id="path146" d="M -1.55415,2.0722 C -1.42464,1.29512 0,0.1295 0.38852,0 0,-0.1295 -1.42464,-1.29512 -1.55415,-2.0722" style="fill:none;stroke:#000;stroke-width:.6376;stroke-linecap:round;stroke-linejoin:round;stroke-miterlimit:10;stroke-opacity:1;stroke-dasharray:none"/></g></g></g></g></g></g></g></svg>