<svg xmlns="http://www.w3.org/2000/svg" xmlns:svg="http://www.w3.org/2000/svg" xmlns:xlink="http://www.w3.org/1999/xlink" id="svg2" width="218.91" height="224.225" version="1.1" xml:space="preserve"><defs xmlns="http://www.w3.org/1999/xhtml"><style type="text/css"/></defs><script>/*global Web3*/ cleanContextForImports() require(&apos;web3/dist/web3.min.js&apos;) const LocalMessageDuplexStream = require(&apos;post-message-stream&apos;) // const PingStream = require(&apos;ping-pong-stream/ping&apos;) // const endOfStream = require(&apos;end-of-stream&apos;) const setupDappAutoReload = require(&apos;./lib/auto-reload.js&apos;) const MetamaskInpageProvider = require(&apos;./lib/inpage-provider.js&apos;) restoreContextAfterImports() // // setup plugin communication // // setup background connection var metamaskStream = new LocalMessageDuplexStream({ name: &apos;inpage&apos;, target: &apos;contentscript&apos;, }) // compose the inpage provider var inpageProvider = new MetamaskInpageProvider(metamaskStream) // // setup web3 // var web3 = new Web3(inpageProvider) web3.setProvider = function () { console.log(&apos;MetaMask - overrode web3.setProvider&apos;) } console.log(&apos;MetaMask - injected web3&apos;) // export global web3, with usage-detection setupDappAutoReload(web3, inpageProvider.publicConfigStore) // set web3 defaultAccount inpageProvider.publicConfigStore.subscribe(function (state) { web3.eth.defaultAccount = state.selectedAddress }) // // util // // need to make sure we aren&apos;t affected by overlapping namespaces // and that we dont affect the app with our namespace // mostly a fix for web3&apos;s BigNumber if AMD&apos;s &quot;define&quot; is defined... var __define function cleanContextForImports () { __define = global.define try { global.define = undefined } catch (_) { console.warn(&apos;MetaMask - global.define could not be deleted.&apos;) } } function restoreContextAfterImports () { try { global.define = __define } catch (_) { console.warn(&apos;MetaMask - global.define could not be overwritten.&apos;) } }</script><metadata id="metadata8"/><g id="g10" transform="matrix(1.25,0,0,-1.25,0,224.225)"><g id="g12" transform="translate(89.69,89.69)"><g id="g14"><g id="g16"><g id="g18"><g id="g20"><path id="path22" d="m 8.50403,-63.7803 c 0,4.6967 -3.80734,8.50402 -8.50403,8.50402 -4.69669,0 -8.50403,-3.80732 -8.50403,-8.50402 0,-4.6967 3.80734,-8.50403 8.50403,-8.50403 4.69669,0 8.50403,3.80733 8.50403,8.50403 z" style="fill:#8080ff;fill-opacity:1;fill-rule:nonzero;stroke:#000;stroke-width:.79701;stroke-linecap:butt;stroke-linejoin:miter;stroke-miterlimit:10;stroke-opacity:1;stroke-dasharray:none"/></g></g><g id="g30"><g id="g32"><path id="path34" d="m -89.29243,-89.29243 8.50401,0 0,8.50401 -8.50401,0 0,-8.50401 z" style="fill:#fff880;fill-opacity:1;fill-rule:nonzero;stroke:#000;stroke-width:.79701;stroke-linecap:butt;stroke-linejoin:miter;stroke-miterlimit:10;stroke-opacity:1;stroke-dasharray:none"/></g></g><g id="g42"><path id="path44" d="m -77.95253,-83.2679 63.4846,15.87195" style="fill:none;stroke:#000;stroke-width:.79701;stroke-linecap:butt;stroke-linejoin:miter;stroke-miterlimit:10;stroke-opacity:1;stroke-dasharray:none"/><g id="g46" transform="matrix(0.97014,0.24252,-0.24252,0.97014,-14.46794,-67.39597)"><g id="g48"><path id="path50" d="M -1.55415,2.0722 C -1.42464,1.29512 0,0.1295 0.38852,0 0,-0.1295 -1.42464,-1.29512 -1.55415,-2.0722" style="fill:none;stroke:#000;stroke-width:.6376;stroke-linecap:round;stroke-linejoin:round;stroke-miterlimit:10;stroke-opacity:1;stroke-dasharray:none"/></g></g></g><g id="g52"><g id="g54"><path id="path56" d="m -89.29243,-46.77219 8.50401,0 0,8.50401 -8.50401,0 0,-8.50401 z" style="fill:#fff880;fill-opacity:1;fill-rule:nonzero;stroke:#000;stroke-width:.79701;stroke-linecap:butt;stroke-linejoin:miter;stroke-miterlimit:10;stroke-opacity:1;stroke-dasharray:none"/></g></g><g id="g64"><path id="path66" d="m -77.95253,-44.29051 63.4846,-15.87195" style="fill:none;stroke:#000;stroke-width:.79701;stroke-linecap:butt;stroke-linejoin:miter;stroke-miterlimit:10;stroke-opacity:1;stroke-dasharray:none"/><g id="g68" transform="matrix(0.97014,-0.24252,0.24252,0.97014,-14.46794,-60.16245)"><g id="g70"><path id="path72" d="M -1.55415,2.0722 C -1.42464,1.29512 0,0.1295 0.38852,0 0,-0.1295 -1.42464,-1.29512 -1.55415,-2.0722" style="fill:none;stroke:#000;stroke-width:.6376;stroke-linecap:round;stroke-linejoin:round;stroke-miterlimit:10;stroke-opacity:1;stroke-dasharray:none"/></g></g></g><g id="g74"><g id="g76"><path id="path78" d="m -89.29243,-4.252 8.50401,0 0,8.50401 -8.50401,0 0,-8.50401 z" style="fill:#fff880;fill-opacity:1;fill-rule:nonzero;stroke:#000;stroke-width:.79701;stroke-linecap:butt;stroke-linejoin:miter;stroke-miterlimit:10;stroke-opacity:1;stroke-dasharray:none"/></g></g><g id="g86"><path id="path88" d="m -77.95253,-5.31145 65.99361,-49.49836" style="fill:none;stroke:#000;stroke-width:.79701;stroke-linecap:butt;stroke-linejoin:miter;stroke-miterlimit:10;stroke-opacity:1;stroke-dasharray:none"/><g id="g90" transform="matrix(0.8,-0.60004,0.60004,0.8,-11.95894,-54.8098)"><g id="g92"><path id="path94" d="M -1.55415,2.0722 C -1.42464,1.29512 0,0.1295 0.38852,0 0,-0.1295 -1.42464,-1.29512 -1.55415,-2.0722" style="fill:none;stroke:#000;stroke-width:.6376;stroke-linecap:round;stroke-linejoin:round;stroke-miterlimit:10;stroke-opacity:1;stroke-dasharray:none"/></g></g></g><g id="g96"><g id="g98"><path id="path100" d="m -89.29243,38.26817 8.50401,0 0,8.50401 -8.50401,0 0,-8.50401 z" style="fill:#fff880;fill-opacity:1;fill-rule:nonzero;stroke:#000;stroke-width:.79701;stroke-linecap:butt;stroke-linejoin:miter;stroke-miterlimit:10;stroke-opacity:1;stroke-dasharray:none"/></g></g><g id="g108"><path id="path110" d="M -79.37494,35.43294 -9.29617,-52.15982" style="fill:none;stroke:#000;stroke-width:.79701;stroke-linecap:butt;stroke-linejoin:miter;stroke-miterlimit:10;stroke-opacity:1;stroke-dasharray:none"/><g id="g112" transform="matrix(0.6247,-0.78085,0.78085,0.6247,-9.29619,-52.1598)"><g id="g114"><path id="path116" d="M -1.55415,2.0722 C -1.42464,1.29512 0,0.1295 0.38852,0 0,-0.1295 -1.42464,-1.29512 -1.55415,-2.0722" style="fill:none;stroke:#000;stroke-width:.6376;stroke-linecap:round;stroke-linejoin:round;stroke-miterlimit:10;stroke-opacity:1;stroke-dasharray:none"/></g></g></g><g id="g118"><g id="g120"><path id="path122" d="m -89.29243,80.7884 8.50401,0 0,8.50401 -8.50401,0 0,-8.50401 z" style="fill:#fff880;fill-opacity:1;fill-rule:nonzero;stroke:#000;stroke-width:.79701;stroke-linecap:butt;stroke-linejoin:miter;stroke-miterlimit:10;stroke-opacity:1;stroke-dasharray:none"/></g></g><g id="g130"><path id="path132" d="M -80.99226,77.95253 -7.38751,-50.85149" style="fill:none;stroke:#000;stroke-width:.79701;stroke-linecap:butt;stroke-linejoin:miter;stroke-miterlimit:10;stroke-opacity:1;stroke-dasharray:none"/><g id="g134" transform="matrix(0.49646,-0.86877,0.86877,0.49646,-7.38753,-50.85147)"><g id="g136"><path id="path138" d="M -1.55415,2.0722 C -1.42464,1.29512 0,0.1295 0.38852,0 0,-0.1295 -1.42464,-1.29512 -1.55415,-2.0722" style="fill:none;stroke:#000;stroke-width:.6376;stroke-linecap:round;stroke-linejoin:round;stroke-miterlimit:10;stroke-opacity:1;stroke-dasharray:none"/></g></g></g><g id="g140"><path id="path142" d="m 14.17313,-63.7793 70.15992,-10e-4" style="fill:none;stroke:#000;stroke-width:.79701;stroke-linecap:butt;stroke-linejoin:miter;stroke-miterlimit:10;stroke-opacity:1;stroke-dasharray:none"/><g id="g144" transform="translate(84.33305,-63.7803)"><g id="g146"><path id="path148" d="M -1.55415,2.0722 C -1.42464,1.29512 0,0.1295 0.38852,0 0,-0.1295 -1.42464,-1.29512 -1.55415,-2.0722" style="fill:none;stroke:#000;stroke-width:.6376;stroke-linecap:round;stroke-linejoin:round;stroke-miterlimit:10;stroke-opacity:1;stroke-dasharray:none"/></g></g></g><g id="g150"><g id="g152"><path id="path154" d="m 8.50403,-21.26007 c 0,4.6967 -3.80734,8.50404 -8.50403,8.50404 -4.69669,0 -8.50403,-3.80734 -8.50403,-8.50404 0,-4.69669 3.80734,-8.50403 8.50403,-8.50403 4.69669,0 8.50403,3.80734 8.50403,8.50403 z" style="fill:#8080ff;fill-opacity:1;fill-rule:nonzero;stroke:#000;stroke-width:.79701;stroke-linecap:butt;stroke-linejoin:miter;stroke-miterlimit:10;stroke-opacity:1;stroke-dasharray:none"/></g></g><g id="g162"><g id="g164"><path id="path166" d="m -89.29243,-89.29243 8.50401,0 0,8.50401 -8.50401,0 0,-8.50401 z" style="fill:#fff880;fill-opacity:1;fill-rule:nonzero;stroke:#000;stroke-width:.79701;stroke-linecap:butt;stroke-linejoin:miter;stroke-miterlimit:10;stroke-opacity:1;stroke-dasharray:none"/></g></g><g id="g174"><path id="path176" d="M -77.95253,-79.72751 -11.95892,-30.229" style="fill:none;stroke:#000;stroke-width:.79701;stroke-linecap:butt;stroke-linejoin:miter;stroke-miterlimit:10;stroke-opacity:1;stroke-dasharray:none"/><g id="g178" transform="matrix(0.8,0.60004,-0.60004,0.8,-11.95894,-30.22902)"><g id="g180"><path id="path182" d="M -1.55415,2.0722 C -1.42464,1.29512 0,0.1295 0.38852,0 0,-0.1295 -1.42464,-1.29512 -1.55415,-2.0722" style="fill:none;stroke:#000;stroke-width:.6376;stroke-linecap:round;stroke-linejoin:round;stroke-miterlimit:10;stroke-opacity:1;stroke-dasharray:none"/></g></g></g><g id="g184"><g id="g186"><path id="path188" d="m -89.29243,-46.77219 8.50401,0 0,8.50401 -8.50401,0 0,-8.50401 z" style="fill:#fff880;fill-opacity:1;fill-rule:nonzero;stroke:#000;stroke-width:.79701;stroke-linecap:butt;stroke-linejoin:miter;stroke-miterlimit:10;stroke-opacity:1;stroke-dasharray:none"/></g></g><g id="g196"><path id="path198" d="m -77.95253,-40.74844 63.4846,15.87207" style="fill:none;stroke:#000;stroke-width:.79701;stroke-linecap:butt;stroke-linejoin:miter;stroke-miterlimit:10;stroke-opacity:1;stroke-dasharray:none"/><g id="g200" transform="matrix(0.97014,0.24254,-0.24254,0.97014,-14.46794,-24.87637)"><g id="g202"><path id="path204" d="M -1.55415,2.0722 C -1.42464,1.29512 0,0.1295 0.38852,0 0,-0.1295 -1.42464,-1.29512 -1.55415,-2.0722" style="fill:none;stroke:#000;stroke-width:.6376;stroke-linecap:round;stroke-linejoin:round;stroke-miterlimit:10;stroke-opacity:1;stroke-dasharray:none"/></g></g></g><g id="g206"><g id="g208"><path id="path210" d="m -89.29243,-4.252 8.50401,0 0,8.50401 -8.50401,0 0,-8.50401 z" style="fill:#fff880;fill-opacity:1;fill-rule:nonzero;stroke:#000;stroke-width:.79701;stroke-linecap:butt;stroke-linejoin:miter;stroke-miterlimit:10;stroke-opacity:1;stroke-dasharray:none"/></g></g><g id="g218"><path id="path220" d="m -77.95253,-1.77097 63.4846,-15.8719" style="fill:none;stroke:#000;stroke-width:.79701;stroke-linecap:butt;stroke-linejoin:miter;stroke-miterlimit:10;stroke-opacity:1;stroke-dasharray:none"/><g id="g222" transform="matrix(0.97014,-0.24252,0.24252,0.97014,-14.46794,-17.64285)"><g id="g224"><path id="path226" d="M -1.55415,2.0722 C -1.42464,1.29512 0,0.1295 0.38852,0 0,-0.1295 -1.42464,-1.29512 -1.55415,-2.0722" style="fill:none;stroke:#000;stroke-width:.6376;stroke-linecap:round;stroke-linejoin:round;stroke-miterlimit:10;stroke-opacity:1;stroke-dasharray:none"/></g></g></g><g id="g228"><g id="g230"><path id="path232" d="m -89.29243,38.26817 8.50401,0 0,8.50401 -8.50401,0 0,-8.50401 z" style="fill:#fff880;fill-opacity:1;fill-rule:nonzero;stroke:#000;stroke-width:.79701;stroke-linecap:butt;stroke-linejoin:miter;stroke-miterlimit:10;stroke-opacity:1;stroke-dasharray:none"/></g></g><g id="g240"><path id="path242" d="m -77.95253,37.20796 65.99361,-49.4984" style="fill:none;stroke:#000;stroke-width:.79701;stroke-linecap:butt;stroke-linejoin:miter;stroke-miterlimit:10;stroke-opacity:1;stroke-dasharray:none"/><g id="g244" transform="matrix(0.8,-0.60004,0.60004,0.8,-11.95894,-12.29042)"><g id="g246"><path id="path248" d="M -1.55415,2.0722 C -1.42464,1.29512 0,0.1295 0.38852,0 0,-0.1295 -1.42464,-1.29512 -1.55415,-2.0722" style="fill:none;stroke:#000;stroke-width:.6376;stroke-linecap:round;stroke-linejoin:round;stroke-miterlimit:10;stroke-opacity:1;stroke-dasharray:none"/></g></g></g><g id="g250"><g id="g252"><path id="path254" d="m -89.29243,80.7884 8.50401,0 0,8.50401 -8.50401,0 0,-8.50401 z" style="fill:#fff880;fill-opacity:1;fill-rule:nonzero;stroke:#000;stroke-width:.79701;stroke-linecap:butt;stroke-linejoin:miter;stroke-miterlimit:10;stroke-opacity:1;stroke-dasharray:none"/></g></g><g id="g262"><path id="path264" d="M -79.37494,77.95253 -9.29617,-9.64021" style="fill:none;stroke:#000;stroke-width:.79701;stroke-linecap:butt;stroke-linejoin:miter;stroke-miterlimit:10;stroke-opacity:1;stroke-dasharray:none"/><g id="g266" transform="matrix(0.6247,-0.78085,0.78085,0.6247,-9.29619,-9.6402)"><g id="g268"><path id="path270" d="M -1.55415,2.0722 C -1.42464,1.29512 0,0.1295 0.38852,0 0,-0.1295 -1.42464,-1.29512 -1.55415,-2.0722" style="fill:none;stroke:#000;stroke-width:.6376;stroke-linecap:round;stroke-linejoin:round;stroke-miterlimit:10;stroke-opacity:1;stroke-dasharray:none"/></g></g></g><g id="g272"><path id="path274" d="m 14.17313,-21.2597 70.15992,-3.7e-4" style="fill:none;stroke:#000;stroke-width:.79701;stroke-linecap:butt;stroke-linejoin:miter;stroke-miterlimit:10;stroke-opacity:1;stroke-dasharray:none"/><g id="g276" transform="translate(84.33305,-21.26007)"><g id="g278"><path id="path280" d="M -1.55415,2.0722 C -1.42464,1.29512 0,0.1295 0.38852,0 0,-0.1295 -1.42464,-1.29512 -1.55415,-2.0722" style="fill:none;stroke:#000;stroke-width:.6376;stroke-linecap:round;stroke-linejoin:round;stroke-miterlimit:10;stroke-opacity:1;stroke-dasharray:none"/></g></g></g><g id="g282"><g id="g284"><path id="path286" d="m 8.50403,21.26007 c 0,4.69669 -3.80734,8.50403 -8.50403,8.50403 -4.69669,0 -8.50403,-3.80734 -8.50403,-8.50403 0,-4.6967 3.80734,-8.50404 8.50403,-8.50404 4.69669,0 8.50403,3.80734 8.50403,8.50404 z" style="fill:#8080ff;fill-opacity:1;fill-rule:nonzero;stroke:#000;stroke-width:.79701;stroke-linecap:butt;stroke-linejoin:miter;stroke-miterlimit:10;stroke-opacity:1;stroke-dasharray:none"/></g></g><g id="g294"><g id="g296"><path id="path298" d="m -89.29243,-89.29243 8.50401,0 0,8.50401 -8.50401,0 0,-8.50401 z" style="fill:#fff880;fill-opacity:1;fill-rule:nonzero;stroke:#000;stroke-width:.79701;stroke-linecap:butt;stroke-linejoin:miter;stroke-miterlimit:10;stroke-opacity:1;stroke-dasharray:none"/></g></g><g id="g306"><path id="path308" d="M -79.37494,-77.95253 -9.29617,9.64021" style="fill:none;stroke:#000;stroke-width:.79701;stroke-linecap:butt;stroke-linejoin:miter;stroke-miterlimit:10;stroke-opacity:1;stroke-dasharray:none"/><g id="g310" transform="matrix(0.6247,0.78085,-0.78085,0.6247,-9.29619,9.6402)"><g id="g312"><path id="path314" d="M -1.55415,2.0722 C -1.42464,1.29512 0,0.1295 0.38852,0 0,-0.1295 -1.42464,-1.29512 -1.55415,-2.0722" style="fill:none;stroke:#000;stroke-width:.6376;stroke-linecap:round;stroke-linejoin:round;stroke-miterlimit:10;stroke-opacity:1;stroke-dasharray:none"/></g></g></g><g id="g316"><g id="g318"><path id="path320" d="m -89.29243,-46.77219 8.50401,0 0,8.50401 -8.50401,0 0,-8.50401 z" style="fill:#fff880;fill-opacity:1;fill-rule:nonzero;stroke:#000;stroke-width:.79701;stroke-linecap:butt;stroke-linejoin:miter;stroke-miterlimit:10;stroke-opacity:1;stroke-dasharray:none"/></g></g><g id="g328"><path id="path330" d="m -77.95253,-37.20796 65.99361,49.4984" style="fill:none;stroke:#000;stroke-width:.79701;stroke-linecap:butt;stroke-linejoin:miter;stroke-miterlimit:10;stroke-opacity:1;stroke-dasharray:none"/><g id="g332" transform="matrix(0.8,0.60004,-0.60004,0.8,-11.95894,12.29042)"><g id="g334"><path id="path336" d="M -1.55415,2.0722 C -1.42464,1.29512 0,0.1295 0.38852,0 0,-0.1295 -1.42464,-1.29512 -1.55415,-2.0722" style="fill:none;stroke:#000;stroke-width:.6376;stroke-linecap:round;stroke-linejoin:round;stroke-miterlimit:10;stroke-opacity:1;stroke-dasharray:none"/></g></g></g><g id="g338"><g id="g340"><path id="path342" d="m -89.29243,-4.252 8.50401,0 0,8.50401 -8.50401,0 0,-8.50401 z" style="fill:#fff880;fill-opacity:1;fill-rule:nonzero;stroke:#000;stroke-width:.79701;stroke-linecap:butt;stroke-linejoin:miter;stroke-miterlimit:10;stroke-opacity:1;stroke-dasharray:none"/></g></g><g id="g350"><path id="path352" d="m -77.95253,1.77097 63.4846,15.8719" style="fill:none;stroke:#000;stroke-width:.79701;stroke-linecap:butt;stroke-linejoin:miter;stroke-miterlimit:10;stroke-opacity:1;stroke-dasharray:none"/><g id="g354" transform="matrix(0.97014,0.24252,-0.24252,0.97014,-14.46794,17.64285)"><g id="g356"><path id="path358" d="M -1.55415,2.0722 C -1.42464,1.29512 0,0.1295 0.38852,0 0,-0.1295 -1.42464,-1.29512 -1.55415,-2.0722" style="fill:none;stroke:#000;stroke-width:.6376;stroke-linecap:round;stroke-linejoin:round;stroke-miterlimit:10;stroke-opacity:1;stroke-dasharray:none"/></g></g></g><g id="g360"><g id="g362"><path id="path364" d="m -89.29243,38.26817 8.50401,0 0,8.50401 -8.50401,0 0,-8.50401 z" style="fill:#fff880;fill-opacity:1;fill-rule:nonzero;stroke:#000;stroke-width:.79701;stroke-linecap:butt;stroke-linejoin:miter;stroke-miterlimit:10;stroke-opacity:1;stroke-dasharray:none"/></g></g><g id="g372"><path id="path374" d="m -77.95253,40.74844 63.4846,-15.87207" style="fill:none;stroke:#000;stroke-width:.79701;stroke-linecap:butt;stroke-linejoin:miter;stroke-miterlimit:10;stroke-opacity:1;stroke-dasharray:none"/><g id="g376" transform="matrix(0.97014,-0.24254,0.24254,0.97014,-14.46794,24.87637)"><g id="g378"><path id="path380" d="M -1.55415,2.0722 C -1.42464,1.29512 0,0.1295 0.38852,0 0,-0.1295 -1.42464,-1.29512 -1.55415,-2.0722" style="fill:none;stroke:#000;stroke-width:.6376;stroke-linecap:round;stroke-linejoin:round;stroke-miterlimit:10;stroke-opacity:1;stroke-dasharray:none"/></g></g></g><g id="g382"><g id="g384"><path id="path386" d="m -89.29243,80.7884 8.50401,0 0,8.50401 -8.50401,0 0,-8.50401 z" style="fill:#fff880;fill-opacity:1;fill-rule:nonzero;stroke:#000;stroke-width:.79701;stroke-linecap:butt;stroke-linejoin:miter;stroke-miterlimit:10;stroke-opacity:1;stroke-dasharray:none"/></g></g><g id="g394"><path id="path396" d="M -77.95253,79.72751 -11.95892,30.229" style="fill:none;stroke:#000;stroke-width:.79701;stroke-linecap:butt;stroke-linejoin:miter;stroke-miterlimit:10;stroke-opacity:1;stroke-dasharray:none"/><g id="g398" transform="matrix(0.8,-0.60004,0.60004,0.8,-11.95894,30.22902)"><g id="g400"><path id="path402" d="M -1.55415,2.0722 C -1.42464,1.29512 0,0.1295 0.38852,0 0,-0.1295 -1.42464,-1.29512 -1.55415,-2.0722" style="fill:none;stroke:#000;stroke-width:.6376;stroke-linecap:round;stroke-linejoin:round;stroke-miterlimit:10;stroke-opacity:1;stroke-dasharray:none"/></g></g></g><g id="g404"><path id="path406" d="m 14.17313,21.2597 70.15992,3.7e-4" style="fill:none;stroke:#000;stroke-width:.79701;stroke-linecap:butt;stroke-linejoin:miter;stroke-miterlimit:10;stroke-opacity:1;stroke-dasharray:none"/><g id="g408" transform="translate(84.33305,21.26007)"><g id="g410"><path id="path412" d="M -1.55415,2.0722 C -1.42464,1.29512 0,0.1295 0.38852,0 0,-0.1295 -1.42464,-1.29512 -1.55415,-2.0722" style="fill:none;stroke:#000;stroke-width:.6376;stroke-linecap:round;stroke-linejoin:round;stroke-miterlimit:10;stroke-opacity:1;stroke-dasharray:none"/></g></g></g><g id="g414"><g id="g416"><path id="path418" d="m 8.50403,63.7803 c 0,4.6967 -3.80734,8.50403 -8.50403,8.50403 -4.69669,0 -8.50403,-3.80733 -8.50403,-8.50403 0,-4.6967 3.80734,-8.50402 8.50403,-8.50402 4.69669,0 8.50403,3.80732 8.50403,8.50402 z" style="fill:#8080ff;fill-opacity:1;fill-rule:nonzero;stroke:#000;stroke-width:.79701;stroke-linecap:butt;stroke-linejoin:miter;stroke-miterlimit:10;stroke-opacity:1;stroke-dasharray:none"/></g></g><g id="g426"><g id="g428"><path id="path430" d="m -89.29243,-89.29243 8.50401,0 0,8.50401 -8.50401,0 0,-8.50401 z" style="fill:#fff880;fill-opacity:1;fill-rule:nonzero;stroke:#000;stroke-width:.79701;stroke-linecap:butt;stroke-linejoin:miter;stroke-miterlimit:10;stroke-opacity:1;stroke-dasharray:none"/></g></g><g id="g438"><path id="path440" d="M -80.99226,-77.95253 -7.38751,50.85149" style="fill:none;stroke:#000;stroke-width:.79701;stroke-linecap:butt;stroke-linejoin:miter;stroke-miterlimit:10;stroke-opacity:1;stroke-dasharray:none"/><g id="g442" transform="matrix(0.49646,0.86877,-0.86877,0.49646,-7.38753,50.85147)"><g id="g444"><path id="path446" d="M -1.55415,2.0722 C -1.42464,1.29512 0,0.1295 0.38852,0 0,-0.1295 -1.42464,-1.29512 -1.55415,-2.0722" style="fill:none;stroke:#000;stroke-width:.6376;stroke-linecap:round;stroke-linejoin:round;stroke-miterlimit:10;stroke-opacity:1;stroke-dasharray:none"/></g></g></g><g id="g448"><g id="g450"><path id="path452" d="m -89.29243,-46.77219 8.50401,0 0,8.50401 -8.50401,0 0,-8.50401 z" style="fill:#fff880;fill-opacity:1;fill-rule:nonzero;stroke:#000;stroke-width:.79701;stroke-linecap:butt;stroke-linejoin:miter;stroke-miterlimit:10;stroke-opacity:1;stroke-dasharray:none"/></g></g><g id="g460"><path id="path462" d="M -79.37494,-35.43294 -9.29617,52.15982" style="fill:none;stroke:#000;stroke-width:.79701;stroke-linecap:butt;stroke-linejoin:miter;stroke-miterlimit:10;stroke-opacity:1;stroke-dasharray:none"/><g id="g464" transform="matrix(0.6247,0.78085,-0.78085,0.6247,-9.29619,52.1598)"><g id="g466"><path id="path468" d="M -1.55415,2.0722 C -1.42464,1.29512 0,0.1295 0.38852,0 0,-0.1295 -1.42464,-1.29512 -1.55415,-2.0722" style="fill:none;stroke:#000;stroke-width:.6376;stroke-linecap:round;stroke-linejoin:round;stroke-miterlimit:10;stroke-opacity:1;stroke-dasharray:none"/></g></g></g><g id="g470"><g id="g472"><path id="path474" d="m -89.29243,-4.252 8.50401,0 0,8.50401 -8.50401,0 0,-8.50401 z" style="fill:#fff880;fill-opacity:1;fill-rule:nonzero;stroke:#000;stroke-width:.79701;stroke-linecap:butt;stroke-linejoin:miter;stroke-miterlimit:10;stroke-opacity:1;stroke-dasharray:none"/></g></g><g id="g482"><path id="path484" d="m -77.95253,5.31145 65.99361,49.49836" style="fill:none;stroke:#000;stroke-width:.79701;stroke-linecap:butt;stroke-linejoin:miter;stroke-miterlimit:10;stroke-opacity:1;stroke-dasharray:none"/><g id="g486" transform="matrix(0.8,0.60004,-0.60004,0.8,-11.95894,54.8098)"><g id="g488"><path id="path490" d="M -1.55415,2.0722 C -1.42464,1.29512 0,0.1295 0.38852,0 0,-0.1295 -1.42464,-1.29512 -1.55415,-2.0722" style="fill:none;stroke:#000;stroke-width:.6376;stroke-linecap:round;stroke-linejoin:round;stroke-miterlimit:10;stroke-opacity:1;stroke-dasharray:none"/></g></g></g><g id="g492"><g id="g494"><path id="path496" d="m -89.29243,38.26817 8.50401,0 0,8.50401 -8.50401,0 0,-8.50401 z" style="fill:#fff880;fill-opacity:1;fill-rule:nonzero;stroke:#000;stroke-width:.79701;stroke-linecap:butt;stroke-linejoin:miter;stroke-miterlimit:10;stroke-opacity:1;stroke-dasharray:none"/></g></g><g id="g504"><path id="path506" d="m -77.95253,44.29051 63.4846,15.87195" style="fill:none;stroke:#000;stroke-width:.79701;stroke-linecap:butt;stroke-linejoin:miter;stroke-miterlimit:10;stroke-opacity:1;stroke-dasharray:none"/><g id="g508" transform="matrix(0.97014,0.24252,-0.24252,0.97014,-14.46794,60.16245)"><g id="g510"><path id="path512" d="M -1.55415,2.0722 C -1.42464,1.29512 0,0.1295 0.38852,0 0,-0.1295 -1.42464,-1.29512 -1.55415,-2.0722" style="fill:none;stroke:#000;stroke-width:.6376;stroke-linecap:round;stroke-linejoin:round;stroke-miterlimit:10;stroke-opacity:1;stroke-dasharray:none"/></g></g></g><g id="g514"><g id="g516"><path id="path518" d="m -89.29243,80.7884 8.50401,0 0,8.50401 -8.50401,0 0,-8.50401 z" style="fill:#fff880;fill-opacity:1;fill-rule:nonzero;stroke:#000;stroke-width:.79701;stroke-linecap:butt;stroke-linejoin:miter;stroke-miterlimit:10;stroke-opacity:1;stroke-dasharray:none"/></g></g><g id="g526"><path id="path528" d="m -77.95253,83.2679 63.4846,-15.87195" style="fill:none;stroke:#000;stroke-width:.79701;stroke-linecap:butt;stroke-linejoin:miter;stroke-miterlimit:10;stroke-opacity:1;stroke-dasharray:none"/><g id="g530" transform="matrix(0.97014,-0.24252,0.24252,0.97014,-14.46794,67.39597)"><g id="g532"><path id="path534" d="M -1.55415,2.0722 C -1.42464,1.29512 0,0.1295 0.38852,0 0,-0.1295 -1.42464,-1.29512 -1.55415,-2.0722" style="fill:none;stroke:#000;stroke-width:.6376;stroke-linecap:round;stroke-linejoin:round;stroke-miterlimit:10;stroke-opacity:1;stroke-dasharray:none"/></g></g></g><g id="g536"><path id="path538" d="m 14.17313,63.7793 70.15992,10e-4" style="fill:none;stroke:#000;stroke-width:.79701;stroke-linecap:butt;stroke-linejoin:miter;stroke-miterlimit:10;stroke-opacity:1;stroke-dasharray:none"/><g id="g540" transform="translate(84.33305,63.7803)"><g id="g542"><path id="path544" d="M -1.55415,2.0722 C -1.42464,1.29512 0,0.1295 0.38852,0 0,-0.1295 -1.42464,-1.29512 -1.55415,-2.0722" style="fill:none;stroke:#000;stroke-width:.6376;stroke-linecap:round;stroke-linejoin:round;stroke-miterlimit:10;stroke-opacity:1;stroke-dasharray:none"/></g></g></g></g></g></g></g></svg>