<svg xmlns="http://www.w3.org/2000/svg" xmlns:xlink="http://www.w3.org/1999/xlink" width="437" height="373" version="1.1" viewBox="0 0 437 373"><title>Group</title><desc>Created with Sketch.</desc><defs><rect id="path-1" width="14" height="10" x="159" y="55"/><rect id="path-2" width="14" height="10" x="265" y="55"/><rect id="path-3" width="14" height="10" x="372" y="55"/><rect id="path-4" width="14" height="10" x="159" y="108"/><rect id="path-5" width="14" height="10" x="265" y="108"/><rect id="path-6" width="14" height="10" x="372" y="108"/><rect id="path-7" width="14" height="10" x="159" y="161"/><rect id="path-8" width="14" height="10" x="265" y="161"/><rect id="path-9" width="14" height="10" x="372" y="161"/><rect id="path-10" width="14" height="10" x="159" y="215"/><rect id="path-11" width="14" height="10" x="265" y="215"/><rect id="path-12" width="14" height="10" x="372" y="215"/><rect id="path-13" width="14" height="10" x="159" y="268"/><rect id="path-14" width="14" height="10" x="265" y="268"/><rect id="path-15" width="14" height="10" x="372" y="268"/><rect id="path-16" width="14" height="10" x="159" y="321"/><rect id="path-17" width="14" height="10" x="265" y="321"/><rect id="path-18" width="14" height="10" x="372" y="321"/></defs><g id="Page-1" fill="none" fill-rule="evenodd" stroke="none" stroke-width="1"><g id="Group" transform="translate(-8.000000, -1.000000)"><g id="rnn-hiddenstate"><g id="g10" transform="translate(223.250000, 187.165000) scale(-1, 1) rotate(-180.000000) translate(-223.250000, -187.165000) translate(0.750000, 0.290000)"><g id="g12" transform="translate(0.740000, 0.543750)"><g id="g14"><g id="g16"><g id="g18" fill="#FFF880" fill-rule="nonzero" stroke="#000" stroke-width=".996" transform="translate(35.000000, 301.250000)"><g id="g20"><polygon id="path22" points="1.033 .383 36.467 .383 36.467 35.816 1.033 35.816"/></g></g><g id="g30" fill="#8080FF" fill-rule="nonzero" stroke="#000" stroke-width=".996" transform="translate(141.250000, 301.250000)"><g id="g32"><path id="path34" d="M36.517275,18.099725 C36.517275,27.8845375 28.5853375,35.816475 18.800525,35.816475 C9.0157125,35.816475 1.083775,27.8845375 1.083775,18.099725 C1.083775,8.3149125 9.0157125,0.382975 18.800525,0.382975 C28.5853375,0.382975 36.517275,8.3149125 36.517275,18.099725 Z"/></g></g><g id="g42" fill="#8080FF" fill-rule="nonzero" stroke="#000" stroke-width=".996" transform="translate(247.500000, 301.250000)"><g id="g44"><path id="path46" d="M36.5678,18.099725 C36.5678,27.8845375 28.635875,35.816475 18.851075,35.816475 C9.06625,35.816475 1.134325,27.8845375 1.134325,18.099725 C1.134325,8.3149125 9.06625,0.382975 18.851075,0.382975 C28.635875,0.382975 36.5678,8.3149125 36.5678,18.099725 L36.5678,18.099725 Z"/></g></g><g id="g54" fill="#8080FF" fill-rule="nonzero" stroke="#000" stroke-width=".996" transform="translate(353.750000, 301.250000)"><g id="g56"><path id="path58" d="M36.61835,18.099725 C36.61835,27.8845375 28.6864125,35.816475 18.9016,35.816475 C9.1167875,35.816475 1.1848625,27.8845375 1.1848625,18.099725 C1.1848625,8.3149125 9.1167875,0.382975 18.9016,0.382975 C28.6864125,0.382975 36.61835,8.3149125 36.61835,18.099725 Z"/></g></g><g id="g66" stroke="#000" transform="translate(75.000000, 313.750000)"><path id="path68" stroke-width="1.993" d="M0.010075,5.599725 L62.283575,5.599725"/><g id="g70" stroke-linecap="round" stroke-linejoin="round" stroke-width="1.594" transform="translate(58.533575, 0.599725)"><g id="g72"><path id="path74" d="M0.91065,8.785825 C1.14725,7.366125 3.75,5.2365875 4.459825,5 C3.75,4.7634125 1.14725,2.633875 0.91065,1.214175"/></g></g></g><g id="g76" stroke="#000" transform="translate(181.250000, 313.750000)"><path id="path78" stroke-width="1.993" d="M0.060625,5.599725 L62.3341,5.599725"/><g id="g80" stroke-linecap="round" stroke-linejoin="round" stroke-width="1.594" transform="translate(58.584100, 0.599725)"><g id="g82"><path id="path84" d="M0.91065,8.785825 C1.14725,7.366125 3.75,5.2365875 4.459825,5 C3.75,4.7634125 1.14725,2.633875 0.91065,1.214175"/></g></g></g><g id="g86" stroke="#000" transform="translate(287.500000, 313.750000)"><path id="path88" stroke-width="1.993" d="M0.1111375,5.599725 L62.3846375,5.599725"/><g id="g90" stroke-linecap="round" stroke-linejoin="round" stroke-width="1.594" transform="translate(58.634638, 0.599725)"><g id="g92"><path id="path94" d="M0.91065,8.785825 C1.14725,7.366125 3.75,5.2365875 4.459825,5 C3.75,4.7634125 1.14725,2.633875 0.91065,1.214175"/></g></g></g><g id="g96" stroke="#000" transform="translate(393.750000, 313.750000)"><path id="path98" stroke-width="1.993" d="M0.1616875,5.599725 L48.26175,5.599725"/><g id="g100" stroke-linecap="round" stroke-linejoin="round" stroke-width="1.594" transform="translate(44.511750, 0.599725)"><g id="g102"><path id="path104" d="M0.91065,8.785825 C1.14725,7.366125 3.75,5.2365875 4.459825,5 C3.75,4.7634125 1.14725,2.633875 0.91065,1.214175"/></g></g></g><g id="g106" fill="#FFF880" fill-rule="nonzero" stroke="#000" stroke-width=".996" transform="translate(35.000000, 247.500000)"><g id="g108"><polygon id="path110" points="1.033 .983 36.467 .983 36.467 36.416 1.033 36.416"/></g></g><g id="g118" fill="#8080FF" fill-rule="nonzero" stroke="#000" stroke-width=".996" transform="translate(141.250000, 247.500000)"><g id="g120"><path id="path122" d="M36.517275,18.69945 C36.517275,28.4842625 28.5853375,36.4162125 18.800525,36.4162125 C9.0157125,36.4162125 1.083775,28.4842625 1.083775,18.69945 C1.083775,8.9146375 9.0157125,0.9827 18.800525,0.9827 C28.5853375,0.9827 36.517275,8.9146375 36.517275,18.69945 Z"/></g></g><g id="g130" fill="#8080FF" fill-rule="nonzero" stroke="#000" stroke-width=".996" transform="translate(247.500000, 247.500000)"><g id="g132"><path id="path134" d="M36.5678,18.69945 C36.5678,28.4842625 28.635875,36.4162125 18.851075,36.4162125 C9.06625,36.4162125 1.134325,28.4842625 1.134325,18.69945 C1.134325,8.9146375 9.06625,0.9827 18.851075,0.9827 C28.635875,0.9827 36.5678,8.9146375 36.5678,18.69945 L36.5678,18.69945 Z"/></g></g><g id="g142" fill="#8080FF" fill-rule="nonzero" stroke="#000" stroke-width=".996" transform="translate(353.750000, 247.500000)"><g id="g144"><path id="path146" d="M36.61835,18.69945 C36.61835,28.4842625 28.6864125,36.4162125 18.9016,36.4162125 C9.1167875,36.4162125 1.1848625,28.4842625 1.1848625,18.69945 C1.1848625,8.9146375 9.1167875,0.9827 18.9016,0.9827 C28.6864125,0.9827 36.61835,8.9146375 36.61835,18.69945 Z"/></g></g><g id="g154" stroke="#000" transform="translate(75.000000, 260.000000)"><path id="path156" stroke-width="1.993" d="M0.010075,6.19945 L62.283575,6.19945"/><g id="g158" stroke-linecap="round" stroke-linejoin="round" stroke-width="1.594" transform="translate(58.533575, 1.199450)"><g id="g160"><path id="path162" d="M0.91065,8.785825 C1.14725,7.366125 3.75,5.2365875 4.459825,5 C3.75,4.7634125 1.14725,2.633875 0.91065,1.214175"/></g></g></g><g id="g164" stroke="#000" transform="translate(181.250000, 260.000000)"><path id="path166" stroke-width="1.993" d="M0.060625,6.19945 L62.3341,6.19945"/><g id="g168" stroke-linecap="round" stroke-linejoin="round" stroke-width="1.594" transform="translate(58.584100, 1.199450)"><g id="g170"><path id="path172" d="M0.91065,8.785825 C1.14725,7.366125 3.75,5.2365875 4.459825,5 C3.75,4.7634125 1.14725,2.633875 0.91065,1.214175"/></g></g></g><g id="g174" stroke="#000" transform="translate(287.500000, 260.000000)"><path id="path176" stroke-width="1.993" d="M0.1111375,6.19945 L62.3846375,6.19945"/><g id="g178" stroke-linecap="round" stroke-linejoin="round" stroke-width="1.594" transform="translate(58.634638, 1.199450)"><g id="g180"><path id="path182" d="M0.91065,8.785825 C1.14725,7.366125 3.75,5.2365875 4.459825,5 C3.75,4.7634125 1.14725,2.633875 0.91065,1.214175"/></g></g></g><g id="g184" stroke="#000" transform="translate(393.750000, 260.000000)"><path id="path186" stroke-width="1.993" d="M0.1616875,6.19945 L48.26175,6.19945"/><g id="g188" stroke-linecap="round" stroke-linejoin="round" stroke-width="1.594" transform="translate(44.511750, 1.199450)"><g id="g190"><path id="path192" d="M0.91065,8.785825 C1.14725,7.366125 3.75,5.2365875 4.459825,5 C3.75,4.7634125 1.14725,2.633875 0.91065,1.214175"/></g></g></g><g id="g194" fill="#FFF880" fill-rule="nonzero" stroke="#000" stroke-width=".996" transform="translate(35.000000, 195.000000)"><g id="g196"><polygon id="path198" points="1.033 .332 36.467 .332 36.467 35.766 1.033 35.766"/></g></g><g id="g206" fill="#8080FF" fill-rule="nonzero" stroke="#000" stroke-width=".996" transform="translate(141.250000, 195.000000)"><g id="g208"><path id="path210" d="M36.517275,18.0491875 C36.517275,27.833975 28.5853375,35.7659125 18.800525,35.7659125 C9.0157125,35.7659125 1.083775,27.833975 1.083775,18.0491875 C1.083775,8.264375 9.0157125,0.3324375 18.800525,0.3324375 C28.5853375,0.3324375 36.517275,8.264375 36.517275,18.0491875 Z"/></g></g><g id="g218" fill="#8080FF" fill-rule="nonzero" stroke="#000" stroke-width=".996" transform="translate(247.500000, 195.000000)"><g id="g220"><path id="path222" d="M36.5678,18.0491875 C36.5678,27.833975 28.635875,35.7659125 18.851075,35.7659125 C9.06625,35.7659125 1.134325,27.833975 1.134325,18.0491875 C1.134325,8.264375 9.06625,0.3324375 18.851075,0.3324375 C28.635875,0.3324375 36.5678,8.264375 36.5678,18.0491875 L36.5678,18.0491875 Z"/></g></g><g id="g230" fill="#8080FF" fill-rule="nonzero" stroke="#000" stroke-width=".996" transform="translate(353.750000, 195.000000)"><g id="g232"><path id="path234" d="M36.61835,18.0491875 C36.61835,27.833975 28.6864125,35.7659125 18.9016,35.7659125 C9.1167875,35.7659125 1.1848625,27.833975 1.1848625,18.0491875 C1.1848625,8.264375 9.1167875,0.3324375 18.9016,0.3324375 C28.6864125,0.3324375 36.61835,8.264375 36.61835,18.0491875 Z"/></g></g><g id="g242" stroke="#000" transform="translate(75.000000, 207.500000)"><path id="path244" stroke-width="1.993" d="M0.010075,5.5491875 L62.283575,5.5491875"/><g id="g246" stroke-linecap="round" stroke-linejoin="round" stroke-width="1.594" transform="translate(58.533575, 0.549187)"><g id="g248"><path id="path250" d="M0.91065,8.785825 C1.14725,7.366125 3.75,5.2365875 4.459825,5 C3.75,4.7634125 1.14725,2.633875 0.91065,1.214175"/></g></g></g><g id="g252" stroke="#000" transform="translate(181.250000, 207.500000)"><path id="path254" stroke-width="1.993" d="M0.060625,5.5491875 L62.3341,5.5491875"/><g id="g256" stroke-linecap="round" stroke-linejoin="round" stroke-width="1.594" transform="translate(58.584100, 0.549187)"><g id="g258"><path id="path260" d="M0.91065,8.785825 C1.14725,7.366125 3.75,5.2365875 4.459825,5 C3.75,4.7634125 1.14725,2.633875 0.91065,1.214175"/></g></g></g><g id="g262" stroke="#000" transform="translate(287.500000, 207.500000)"><path id="path264" stroke-width="1.993" d="M0.1111375,5.5491875 L62.3846375,5.5491875"/><g id="g266" stroke-linecap="round" stroke-linejoin="round" stroke-width="1.594" transform="translate(58.634638, 0.549187)"><g id="g268"><path id="path270" d="M0.91065,8.785825 C1.14725,7.366125 3.75,5.2365875 4.459825,5 C3.75,4.7634125 1.14725,2.633875 0.91065,1.214175"/></g></g></g><g id="g272" stroke="#000" transform="translate(393.750000, 207.500000)"><path id="path274" stroke-width="1.993" d="M0.1616875,5.5491875 L48.26175,5.5491875"/><g id="g276" stroke-linecap="round" stroke-linejoin="round" stroke-width="1.594" transform="translate(44.511750, 0.549187)"><g id="g278"><path id="path280" d="M0.91065,8.785825 C1.14725,7.366125 3.75,5.2365875 4.459825,5 C3.75,4.7634125 1.14725,2.633875 0.91065,1.214175"/></g></g></g><g id="g282" fill="#FFF880" fill-rule="nonzero" stroke="#000" stroke-width=".996" transform="translate(35.000000, 141.250000)"><g id="g284"><polygon id="path286" points="1.033 .932 36.467 .932 36.467 36.366 1.033 36.366"/></g></g><g id="g294" fill="#8080FF" fill-rule="nonzero" stroke="#000" stroke-width=".996" transform="translate(141.250000, 141.250000)"><g id="g296"><path id="path298" d="M36.517275,18.6488875 C36.517275,28.4337 28.5853375,36.3656375 18.800525,36.3656375 C9.0157125,36.3656375 1.083775,28.4337 1.083775,18.6488875 C1.083775,8.864075 9.0157125,0.9321625 18.800525,0.9321625 C28.5853375,0.9321625 36.517275,8.864075 36.517275,18.6488875 Z"/></g></g><g id="g306" fill="#8080FF" fill-rule="nonzero" stroke="#000" stroke-width=".996" transform="translate(247.500000, 141.250000)"><g id="g308"><path id="path310" d="M36.5678,18.6488875 C36.5678,28.4337 28.635875,36.3656375 18.851075,36.3656375 C9.06625,36.3656375 1.134325,28.4337 1.134325,18.6488875 C1.134325,8.864075 9.06625,0.9321625 18.851075,0.9321625 C28.635875,0.9321625 36.5678,8.864075 36.5678,18.6488875 L36.5678,18.6488875 Z"/></g></g><g id="g318" fill="#8080FF" fill-rule="nonzero" stroke="#000" stroke-width=".996" transform="translate(353.750000, 141.250000)"><g id="g320"><path id="path322" d="M36.61835,18.6488875 C36.61835,28.4337 28.6864125,36.3656375 18.9016,36.3656375 C9.1167875,36.3656375 1.1848625,28.4337 1.1848625,18.6488875 C1.1848625,8.864075 9.1167875,0.9321625 18.9016,0.9321625 C28.6864125,0.9321625 36.61835,8.864075 36.61835,18.6488875 Z"/></g></g><g id="g330" stroke="#000" transform="translate(75.000000, 153.750000)"><path id="path332" stroke-width="1.993" d="M0.010075,6.1488875 L62.283575,6.1488875"/><g id="g334" stroke-linecap="round" stroke-linejoin="round" stroke-width="1.594" transform="translate(58.533575, 1.148887)"><g id="g336"><path id="path338" d="M0.91065,8.785825 C1.14725,7.366125 3.75,5.2365875 4.459825,5 C3.75,4.7634125 1.14725,2.633875 0.91065,1.214175"/></g></g></g><g id="g340" stroke="#000" transform="translate(181.250000, 153.750000)"><path id="path342" stroke-width="1.993" d="M0.060625,6.1488875 L62.3341,6.1488875"/><g id="g344" stroke-linecap="round" stroke-linejoin="round" stroke-width="1.594" transform="translate(58.584100, 1.148887)"><g id="g346"><path id="path348" d="M0.91065,8.785825 C1.14725,7.366125 3.75,5.2365875 4.459825,5 C3.75,4.7634125 1.14725,2.633875 0.91065,1.214175"/></g></g></g><g id="g350" stroke="#000" transform="translate(287.500000, 153.750000)"><path id="path352" stroke-width="1.993" d="M0.1111375,6.1488875 L62.3846375,6.1488875"/><g id="g354" stroke-linecap="round" stroke-linejoin="round" stroke-width="1.594" transform="translate(58.634638, 1.148887)"><g id="g356"><path id="path358" d="M0.91065,8.785825 C1.14725,7.366125 3.75,5.2365875 4.459825,5 C3.75,4.7634125 1.14725,2.633875 0.91065,1.214175"/></g></g></g><g id="g360" stroke="#000" transform="translate(393.750000, 153.750000)"><path id="path362" stroke-width="1.993" d="M0.1616875,6.1488875 L48.26175,6.1488875"/><g id="g364" stroke-linecap="round" stroke-linejoin="round" stroke-width="1.594" transform="translate(44.511750, 1.148887)"><g id="g366"><path id="path368" d="M0.91065,8.785825 C1.14725,7.366125 3.75,5.2365875 4.459825,5 C3.75,4.7634125 1.14725,2.633875 0.91065,1.214175"/></g></g></g><g id="g370" fill="#FFF880" fill-rule="nonzero" stroke="#000" stroke-width=".996" transform="translate(35.000000, 88.750000)"><g id="g372"><polygon id="path374" points="1.033 .282 36.467 .282 36.467 35.715 1.033 35.715"/></g></g><g id="g382" fill="#8080FF" fill-rule="nonzero" stroke="#000" stroke-width=".996" transform="translate(141.250000, 88.750000)"><g id="g384"><path id="path386" d="M36.517275,17.998625 C36.517275,27.7834375 28.5853375,35.715375 18.800525,35.715375 C9.0157125,35.715375 1.083775,27.7834375 1.083775,17.998625 C1.083775,8.2138 9.0157125,0.281875 18.800525,0.281875 C28.5853375,0.281875 36.517275,8.2138 36.517275,17.998625 L36.517275,17.998625 Z"/></g></g><g id="g394" fill="#8080FF" fill-rule="nonzero" stroke="#000" stroke-width=".996" transform="translate(247.500000, 88.750000)"><g id="g396"><path id="path398" d="M36.5678,17.998625 C36.5678,27.7834375 28.635875,35.715375 18.851075,35.715375 C9.06625,35.715375 1.134325,27.7834375 1.134325,17.998625 C1.134325,8.2138 9.06625,0.281875 18.851075,0.281875 C28.635875,0.281875 36.5678,8.2138 36.5678,17.998625 L36.5678,17.998625 Z"/></g></g><g id="g406" fill="#8080FF" fill-rule="nonzero" stroke="#000" stroke-width=".996" transform="translate(353.750000, 88.750000)"><g id="g408"><path id="path410" d="M36.61835,17.998625 C36.61835,27.7834375 28.6864125,35.715375 18.9016,35.715375 C9.1167875,35.715375 1.1848625,27.7834375 1.1848625,17.998625 C1.1848625,8.2138 9.1167875,0.281875 18.9016,0.281875 C28.6864125,0.281875 36.61835,8.2138 36.61835,17.998625 L36.61835,17.998625 Z"/></g></g><g id="g418" stroke="#000" transform="translate(75.000000, 101.250000)"><path id="path420" stroke-width="1.993" d="M0.010075,5.498625 L62.283575,5.498625"/><g id="g422" stroke-linecap="round" stroke-linejoin="round" stroke-width="1.594" transform="translate(58.533575, 0.498625)"><g id="g424"><path id="path426" d="M0.91065,8.785825 C1.14725,7.366125 3.75,5.2365875 4.459825,5 C3.75,4.7634125 1.14725,2.633875 0.91065,1.214175"/></g></g></g><g id="g428" stroke="#000" transform="translate(181.250000, 101.250000)"><path id="path430" stroke-width="1.993" d="M0.060625,5.498625 L62.3341,5.498625"/><g id="g432" stroke-linecap="round" stroke-linejoin="round" stroke-width="1.594" transform="translate(58.584100, 0.498625)"><g id="g434"><path id="path436" d="M0.91065,8.785825 C1.14725,7.366125 3.75,5.2365875 4.459825,5 C3.75,4.7634125 1.14725,2.633875 0.91065,1.214175"/></g></g></g><g id="g438" stroke="#000" transform="translate(287.500000, 101.250000)"><path id="path440" stroke-width="1.993" d="M0.1111375,5.498625 L62.3846375,5.498625"/><g id="g442" stroke-linecap="round" stroke-linejoin="round" stroke-width="1.594" transform="translate(58.634638, 0.498625)"><g id="g444"><path id="path446" d="M0.91065,8.785825 C1.14725,7.366125 3.75,5.2365875 4.459825,5 C3.75,4.7634125 1.14725,2.633875 0.91065,1.214175"/></g></g></g><g id="g448" stroke="#000" transform="translate(393.750000, 101.250000)"><path id="path450" stroke-width="1.993" d="M0.1616875,5.498625 L48.26175,5.498625"/><g id="g452" stroke-linecap="round" stroke-linejoin="round" stroke-width="1.594" transform="translate(44.511750, 0.498625)"><g id="g454"><path id="path456" d="M0.91065,8.785825 C1.14725,7.366125 3.75,5.2365875 4.459825,5 C3.75,4.7634125 1.14725,2.633875 0.91065,1.214175"/></g></g></g><g id="g458" fill="#FFF880" fill-rule="nonzero" stroke="#000" stroke-width=".996" transform="translate(35.000000, 35.000000)"><g id="g460"><polygon id="path462" points="1.033 .882 36.467 .882 36.467 36.315 1.033 36.315"/></g></g><g id="g470" fill="#8080FF" fill-rule="nonzero" stroke="#000" stroke-width=".996" transform="translate(141.250000, 35.000000)"><g id="g472"><path id="path474" d="M36.517275,18.59835 C36.517275,28.3831625 28.5853375,36.3151 18.800525,36.3151 C9.0157125,36.3151 1.083775,28.3831625 1.083775,18.59835 C1.083775,8.8135375 9.0157125,0.8816 18.800525,0.8816 C28.5853375,0.8816 36.517275,8.8135375 36.517275,18.59835 L36.517275,18.59835 Z"/></g></g><g id="g482" fill="#8080FF" fill-rule="nonzero" stroke="#000" stroke-width=".996" transform="translate(247.500000, 35.000000)"><g id="g484"><path id="path486" d="M36.5678,18.59835 C36.5678,28.3831625 28.635875,36.3151 18.851075,36.3151 C9.06625,36.3151 1.134325,28.3831625 1.134325,18.59835 C1.134325,8.8135375 9.06625,0.8816 18.851075,0.8816 C28.635875,0.8816 36.5678,8.8135375 36.5678,18.59835 L36.5678,18.59835 Z"/></g></g><g id="g494" fill="#8080FF" fill-rule="nonzero" stroke="#000" stroke-width=".996" transform="translate(353.750000, 35.000000)"><g id="g496"><path id="path498" d="M36.61835,18.59835 C36.61835,28.3831625 28.6864125,36.3151 18.9016,36.3151 C9.1167875,36.3151 1.1848625,28.3831625 1.1848625,18.59835 C1.1848625,8.8135375 9.1167875,0.8816 18.9016,0.8816 C28.6864125,0.8816 36.61835,8.8135375 36.61835,18.59835 L36.61835,18.59835 Z"/></g></g><g id="g506" stroke="#000" transform="translate(75.000000, 47.500000)"><path id="path508" stroke-width="1.993" d="M0.010075,6.09835 L62.283575,6.09835"/><g id="g510" stroke-linecap="round" stroke-linejoin="round" stroke-width="1.594" transform="translate(58.533575, 1.098350)"><g id="g512"><path id="path514" d="M0.91065,8.785825 C1.14725,7.366125 3.75,5.2365875 4.459825,5 C3.75,4.7634125 1.14725,2.633875 0.91065,1.214175"/></g></g></g><g id="g516" stroke="#000" transform="translate(181.250000, 47.500000)"><path id="path518" stroke-width="1.993" d="M0.060625,6.09835 L62.3341,6.09835"/><g id="g520" stroke-linecap="round" stroke-linejoin="round" stroke-width="1.594" transform="translate(58.584100, 1.098350)"><g id="g522"><path id="path524" d="M0.91065,8.785825 C1.14725,7.366125 3.75,5.2365875 4.459825,5 C3.75,4.7634125 1.14725,2.633875 0.91065,1.214175"/></g></g></g><g id="g526" stroke="#000" transform="translate(287.500000, 47.500000)"><path id="path528" stroke-width="1.993" d="M0.1111375,6.09835 L62.3846375,6.09835"/><g id="g530" stroke-linecap="round" stroke-linejoin="round" stroke-width="1.594" transform="translate(58.634638, 1.098350)"><g id="g532"><path id="path534" d="M0.91065,8.785825 C1.14725,7.366125 3.75,5.2365875 4.459825,5 C3.75,4.7634125 1.14725,2.633875 0.91065,1.214175"/></g></g></g><g id="g536" stroke="#000" transform="translate(393.750000, 47.500000)"><path id="path538" stroke-width="1.993" d="M0.1616875,6.09835 L48.26175,6.09835"/><g id="g540" stroke-linecap="round" stroke-linejoin="round" stroke-width="1.594" transform="translate(44.511750, 1.098350)"><g id="g542"><path id="path544" d="M0.91065,8.785825 C1.14725,7.366125 3.75,5.2365875 4.459825,5 C3.75,4.7634125 1.14725,2.633875 0.91065,1.214175"/></g></g></g><g id="g562" stroke="#000" transform="translate(152.706675, 340.000000)"><path id="path564" stroke-width="1.494" d="M3.800525,32.5 L3.800525,1.805325"/><g id="g566" stroke-linecap="round" stroke-linejoin="round" stroke-width="1.195" transform="translate(3.800525, 2.430325) rotate(-90.000000) translate(-3.800525, -2.430325) translate(1.925525, -1.319675)"><g id="g568"><path id="path570" d="M0.10895,6.938075 C0.3082125,5.742525 2.5,3.949225 3.09775,3.75 C2.5,3.550775 0.3082125,1.757475 0.10895,0.561925"/></g></g></g><g id="g572" stroke="#000" transform="translate(258.956675, 340.000000)"><path id="path574" stroke-width="1.494" d="M3.851075,32.5 L3.851075,1.805325"/><g id="g576" stroke-linecap="round" stroke-linejoin="round" stroke-width="1.195" transform="translate(3.851075, 2.430325) rotate(-90.000000) translate(-3.851075, -2.430325) translate(1.976075, -1.319675)"><g id="g578"><path id="path580" d="M0.10895,6.938075 C0.3082125,5.742525 2.5,3.949225 3.09775,3.75 C2.5,3.550775 0.3082125,1.757475 0.10895,0.561925"/></g></g></g><g id="g582" stroke="#000" transform="translate(365.206675, 340.000000)"><path id="path584" stroke-width="1.494" d="M3.9016,32.5 L3.9016,1.805325"/><g id="g586" stroke-linecap="round" stroke-linejoin="round" stroke-width="1.195" transform="translate(3.901600, 2.430325) rotate(-90.000000) translate(-3.901600, -2.430325) translate(2.026600, -1.319675)"><g id="g588"><path id="path590" d="M0.10895,6.938075 C0.3082125,5.742525 2.5,3.949225 3.09775,3.75 C2.5,3.550775 0.3082125,1.757475 0.10895,0.561925"/></g></g></g><g id="g592" stroke="#00F" transform="translate(159.793325, 340.000000)"><path id="path594" stroke-width="1.494" d="M3.800525,32.5 L3.800525,1.805325"/><g id="g596" stroke-linecap="round" stroke-linejoin="round" stroke-width="1.195"><g id="g598" transform="translate(3.800525, 2.430325) rotate(-90.000000) translate(-3.800525, -2.430325) translate(1.925525, -1.319675)"><g id="g600"><path id="path602" d="M0.10895,6.938075 C0.3082125,5.742525 2.5,3.949225 3.09775,3.75 C2.5,3.550775 0.3082125,1.757475 0.10895,0.561925"/></g></g></g></g><g id="g604" stroke="#00F" transform="translate(266.043325, 340.000000)"><path id="path606" stroke-width="1.494" d="M3.851075,32.5 L3.851075,1.805325"/><g id="g608" stroke-linecap="round" stroke-linejoin="round" stroke-width="1.195"><g id="g610" transform="translate(3.851075, 2.430325) rotate(-90.000000) translate(-3.851075, -2.430325) translate(1.976075, -1.319675)"><g id="g612"><path id="path614" d="M0.10895,6.938075 C0.3082125,5.742525 2.5,3.949225 3.09775,3.75 C2.5,3.550775 0.3082125,1.757475 0.10895,0.561925"/></g></g></g></g><g id="g616" stroke="#00F" transform="translate(372.293325, 340.000000)"><path id="path618" stroke-width="1.494" d="M3.9016,32.5 L3.9016,1.805325"/><g id="g620" stroke-linecap="round" stroke-linejoin="round" stroke-width="1.195"><g id="g622" transform="translate(3.901600, 2.430325) rotate(-90.000000) translate(-3.901600, -2.430325) translate(2.026600, -1.319675)"><g id="g624"><path id="path626" d="M0.10895,6.938075 C0.3082125,5.742525 2.5,3.949225 3.09775,3.75 C2.5,3.550775 0.3082125,1.757475 0.10895,0.561925"/></g></g></g></g><g id="g628" stroke="#000" transform="translate(152.706675, 286.250000)"><path id="path630" stroke-width="1.494" d="M3.800525,11.8396625 L3.800525,2.40505"/><g id="g632" stroke-linecap="round" stroke-linejoin="round" stroke-width="1.195"><g id="g634" transform="translate(3.800525, 3.030050) rotate(-90.000000) translate(-3.800525, -3.030050) translate(1.925525, -0.719950)"><g id="g636"><path id="path638" d="M0.10895,6.938075 C0.3082125,5.742525 2.5,3.949225 3.09775,3.75 C2.5,3.550775 0.3082125,1.757475 0.10895,0.561925"/></g></g></g></g><g id="g640" stroke="#000" transform="translate(258.956675, 286.250000)"><path id="path642" stroke-width="1.494" d="M3.851075,11.8396625 L3.851075,2.40505"/><g id="g644" stroke-linecap="round" stroke-linejoin="round" stroke-width="1.195"><g id="g646" transform="translate(3.851075, 3.030050) rotate(-90.000000) translate(-3.851075, -3.030050) translate(1.976075, -0.719950)"><g id="g648"><path id="path650" d="M0.10895,6.938075 C0.3082125,5.742525 2.5,3.949225 3.09775,3.75 C2.5,3.550775 0.3082125,1.757475 0.10895,0.561925"/></g></g></g></g><g id="g652" stroke="#000" transform="translate(365.206675, 286.250000)"><path id="path654" stroke-width="1.494" d="M3.9016,11.8396625 L3.9016,2.40505"/><g id="g656" stroke-linecap="round" stroke-linejoin="round" stroke-width="1.195"><g id="g658" transform="translate(3.901600, 3.030050) rotate(-90.000000) translate(-3.901600, -3.030050) translate(2.026600, -0.719950)"><g id="g660"><path id="path662" d="M0.10895,6.938075 C0.3082125,5.742525 2.5,3.949225 3.09775,3.75 C2.5,3.550775 0.3082125,1.757475 0.10895,0.561925"/></g></g></g></g><g id="g664" stroke="#00F" transform="translate(159.793325, 286.250000)"><path id="path666" stroke-width="1.494" d="M3.800525,11.8396625 L3.800525,2.40505"/><g id="g668" stroke-linecap="round" stroke-linejoin="round" stroke-width="1.195"><g id="g670" transform="translate(3.800525, 3.030050) rotate(-90.000000) translate(-3.800525, -3.030050) translate(1.925525, -0.719950)"><g id="g672"><path id="path674" d="M0.10895,6.938075 C0.3082125,5.742525 2.5,3.949225 3.09775,3.75 C2.5,3.550775 0.3082125,1.757475 0.10895,0.561925"/></g></g></g></g><g id="g676" stroke="#00F" transform="translate(266.043325, 286.250000)"><path id="path678" stroke-width="1.494" d="M3.851075,11.8396625 L3.851075,2.40505"/><g id="g680" stroke-linecap="round" stroke-linejoin="round" stroke-width="1.195"><g id="g682" transform="translate(3.851075, 3.030050) rotate(-90.000000) translate(-3.851075, -3.030050) translate(1.976075, -0.719950)"><g id="g684"><path id="path686" d="M0.10895,6.938075 C0.3082125,5.742525 2.5,3.949225 3.09775,3.75 C2.5,3.550775 0.3082125,1.757475 0.10895,0.561925"/></g></g></g></g><g id="g688" stroke="#00F" transform="translate(372.293325, 286.250000)"><path id="path690" stroke-width="1.494" d="M3.9016,11.8396625 L3.9016,2.40505"/><g id="g692" stroke-linecap="round" stroke-linejoin="round" stroke-width="1.195"><g id="g694" transform="translate(3.901600, 3.030050) rotate(-90.000000) translate(-3.901600, -3.030050) translate(2.026600, -0.719950)"><g id="g696"><path id="path698" d="M0.10895,6.938075 C0.3082125,5.742525 2.5,3.949225 3.09775,3.75 C2.5,3.550775 0.3082125,1.757475 0.10895,0.561925"/></g></g></g></g><g id="g700" stroke="#000" transform="translate(152.706675, 233.750000)"><path id="path702" stroke-width="1.494" d="M3.800525,11.1893625 L3.800525,1.754775"/><g id="g704" stroke-linecap="round" stroke-linejoin="round" stroke-width="1.195"><g id="g706" transform="translate(3.800525, 2.379775) rotate(-90.000000) translate(-3.800525, -2.379775) translate(1.925525, -1.370225)"><g id="g708"><path id="path710" d="M0.10895,6.938075 C0.3082125,5.742525 2.5,3.949225 3.09775,3.75 C2.5,3.550775 0.3082125,1.757475 0.10895,0.561925"/></g></g></g></g><g id="g712" stroke="#000" transform="translate(258.956675, 233.750000)"><path id="path714" stroke-width="1.494" d="M3.851075,11.1893625 L3.851075,1.754775"/><g id="g716" stroke-linecap="round" stroke-linejoin="round" stroke-width="1.195"><g id="g718" transform="translate(3.851075, 2.379775) rotate(-90.000000) translate(-3.851075, -2.379775) translate(1.976075, -1.370225)"><g id="g720"><path id="path722" d="M0.10895,6.938075 C0.3082125,5.742525 2.5,3.949225 3.09775,3.75 C2.5,3.550775 0.3082125,1.757475 0.10895,0.561925"/></g></g></g></g><g id="g724" stroke="#000" transform="translate(365.206675, 233.750000)"><path id="path726" stroke-width="1.494" d="M3.9016,11.1893625 L3.9016,1.754775"/><g id="g728" stroke-linecap="round" stroke-linejoin="round" stroke-width="1.195"><g id="g730" transform="translate(3.901600, 2.379775) rotate(-90.000000) translate(-3.901600, -2.379775) translate(2.026600, -1.370225)"><g id="g732"><path id="path734" d="M0.10895,6.938075 C0.3082125,5.742525 2.5,3.949225 3.09775,3.75 C2.5,3.550775 0.3082125,1.757475 0.10895,0.561925"/></g></g></g></g><g id="g736" stroke="#00F" transform="translate(159.793325, 233.750000)"><path id="path738" stroke-width="1.494" d="M3.800525,11.1893625 L3.800525,1.754775"/><g id="g740" stroke-linecap="round" stroke-linejoin="round" stroke-width="1.195"><g id="g742" transform="translate(3.800525, 2.379775) rotate(-90.000000) translate(-3.800525, -2.379775) translate(1.925525, -1.370225)"><g id="g744"><path id="path746" d="M0.10895,6.938075 C0.3082125,5.742525 2.5,3.949225 3.09775,3.75 C2.5,3.550775 0.3082125,1.757475 0.10895,0.561925"/></g></g></g></g><g id="g748" stroke="#00F" transform="translate(266.043325, 233.750000)"><path id="path750" stroke-width="1.494" d="M3.851075,11.1893625 L3.851075,1.754775"/><g id="g752" stroke-linecap="round" stroke-linejoin="round" stroke-width="1.195"><g id="g754" transform="translate(3.851075, 2.379775) rotate(-90.000000) translate(-3.851075, -2.379775) translate(1.976075, -1.370225)"><g id="g756"><path id="path758" d="M0.10895,6.938075 C0.3082125,5.742525 2.5,3.949225 3.09775,3.75 C2.5,3.550775 0.3082125,1.757475 0.10895,0.561925"/></g></g></g></g><g id="g760" stroke="#00F" transform="translate(372.293325, 233.750000)"><path id="path762" stroke-width="1.494" d="M3.9016,11.1893625 L3.9016,1.754775"/><g id="g764" stroke-linecap="round" stroke-linejoin="round" stroke-width="1.195"><g id="g766" transform="translate(3.901600, 2.379775) rotate(-90.000000) translate(-3.901600, -2.379775) translate(2.026600, -1.370225)"><g id="g768"><path id="path770" d="M0.10895,6.938075 C0.3082125,5.742525 2.5,3.949225 3.09775,3.75 C2.5,3.550775 0.3082125,1.757475 0.10895,0.561925"/></g></g></g></g><g id="g772" stroke="#000" transform="translate(152.706675, 180.000000)"><path id="path774" stroke-width="1.494" d="M3.800525,11.7890875 L3.800525,2.3545"/><g id="g776" stroke-linecap="round" stroke-linejoin="round" stroke-width="1.195"><g id="g778" transform="translate(3.800525, 2.979500) rotate(-90.000000) translate(-3.800525, -2.979500) translate(1.925525, -0.770500)"><g id="g780"><path id="path782" d="M0.10895,6.938075 C0.3082125,5.742525 2.5,3.949225 3.09775,3.75 C2.5,3.550775 0.3082125,1.757475 0.10895,0.561925"/></g></g></g></g><g id="g784" stroke="#000" transform="translate(258.956675, 180.000000)"><path id="path786" stroke-width="1.494" d="M3.851075,11.7890875 L3.851075,2.3545"/><g id="g788" stroke-linecap="round" stroke-linejoin="round" stroke-width="1.195"><g id="g790" transform="translate(3.851075, 2.979500) rotate(-90.000000) translate(-3.851075, -2.979500) translate(1.976075, -0.770500)"><g id="g792"><path id="path794" d="M0.10895,6.938075 C0.3082125,5.742525 2.5,3.949225 3.09775,3.75 C2.5,3.550775 0.3082125,1.757475 0.10895,0.561925"/></g></g></g></g><g id="g796" stroke="#000" transform="translate(365.206675, 180.000000)"><path id="path798" stroke-width="1.494" d="M3.9016,11.7890875 L3.9016,2.3545"/><g id="g800" stroke-linecap="round" stroke-linejoin="round" stroke-width="1.195"><g id="g802" transform="translate(3.901600, 2.979500) rotate(-90.000000) translate(-3.901600, -2.979500) translate(2.026600, -0.770500)"><g id="g804"><path id="path806" d="M0.10895,6.938075 C0.3082125,5.742525 2.5,3.949225 3.09775,3.75 C2.5,3.550775 0.3082125,1.757475 0.10895,0.561925"/></g></g></g></g><g id="g808" stroke="#00F" transform="translate(159.793325, 180.000000)"><path id="path810" stroke-width="1.494" d="M3.800525,11.7890875 L3.800525,2.3545"/><g id="g812" stroke-linecap="round" stroke-linejoin="round" stroke-width="1.195"><g id="g814" transform="translate(3.800525, 2.979500) rotate(-90.000000) translate(-3.800525, -2.979500) translate(1.925525, -0.770500)"><g id="g816"><path id="path818" d="M0.10895,6.938075 C0.3082125,5.742525 2.5,3.949225 3.09775,3.75 C2.5,3.550775 0.3082125,1.757475 0.10895,0.561925"/></g></g></g></g><g id="g820" stroke="#00F" transform="translate(266.043325, 180.000000)"><path id="path822" stroke-width="1.494" d="M3.851075,11.7890875 L3.851075,2.3545"/><g id="g824" stroke-linecap="round" stroke-linejoin="round" stroke-width="1.195"><g id="g826" transform="translate(3.851075, 2.979500) rotate(-90.000000) translate(-3.851075, -2.979500) translate(1.976075, -0.770500)"><g id="g828"><path id="path830" d="M0.10895,6.938075 C0.3082125,5.742525 2.5,3.949225 3.09775,3.75 C2.5,3.550775 0.3082125,1.757475 0.10895,0.561925"/></g></g></g></g><g id="g832" stroke="#00F" transform="translate(372.293325, 180.000000)"><path id="path834" stroke-width="1.494" d="M3.9016,11.7890875 L3.9016,2.3545"/><g id="g836" stroke-linecap="round" stroke-linejoin="round" stroke-width="1.195"><g id="g838" transform="translate(3.901600, 2.979500) rotate(-90.000000) translate(-3.901600, -2.979500) translate(2.026600, -0.770500)"><g id="g840"><path id="path842" d="M0.10895,6.938075 C0.3082125,5.742525 2.5,3.949225 3.09775,3.75 C2.5,3.550775 0.3082125,1.757475 0.10895,0.561925"/></g></g></g></g><g id="g844" stroke="#000" transform="translate(152.706675, 127.500000)"><path id="path846" stroke-width="1.494" d="M3.800525,11.138825 L3.800525,1.7042125"/><g id="g848" stroke-linecap="round" stroke-linejoin="round" stroke-width="1.195"><g id="g850" transform="translate(3.800525, 2.329213) rotate(-90.000000) translate(-3.800525, -2.329213) translate(1.925525, -1.420787)"><g id="g852"><path id="path854" d="M0.10895,6.938075 C0.3082125,5.742525 2.5,3.949225 3.09775,3.75 C2.5,3.550775 0.3082125,1.757475 0.10895,0.561925"/></g></g></g></g><g id="g856" stroke="#000" transform="translate(258.956675, 127.500000)"><path id="path858" stroke-width="1.494" d="M3.851075,11.138825 L3.851075,1.7042125"/><g id="g860" stroke-linecap="round" stroke-linejoin="round" stroke-width="1.195"><g id="g862" transform="translate(3.851075, 2.329213) rotate(-90.000000) translate(-3.851075, -2.329213) translate(1.976075, -1.420787)"><g id="g864"><path id="path866" d="M0.10895,6.938075 C0.3082125,5.742525 2.5,3.949225 3.09775,3.75 C2.5,3.550775 0.3082125,1.757475 0.10895,0.561925"/></g></g></g></g><g id="g868" stroke="#000" transform="translate(365.206675, 127.500000)"><path id="path870" stroke-width="1.494" d="M3.9016,11.138825 L3.9016,1.7042125"/><g id="g872" stroke-linecap="round" stroke-linejoin="round" stroke-width="1.195"><g id="g874" transform="translate(3.901600, 2.329213) rotate(-90.000000) translate(-3.901600, -2.329213) translate(2.026600, -1.420787)"><g id="g876"><path id="path878" d="M0.10895,6.938075 C0.3082125,5.742525 2.5,3.949225 3.09775,3.75 C2.5,3.550775 0.3082125,1.757475 0.10895,0.561925"/></g></g></g></g><g id="g880" stroke="#00F" transform="translate(159.793325, 127.500000)"><path id="path882" stroke-width="1.494" d="M3.800525,11.138825 L3.800525,1.7042125"/><g id="g884" stroke-linecap="round" stroke-linejoin="round" stroke-width="1.195"><g id="g886" transform="translate(3.800525, 2.329213) rotate(-90.000000) translate(-3.800525, -2.329213) translate(1.925525, -1.420787)"><g id="g888"><path id="path890" d="M0.10895,6.938075 C0.3082125,5.742525 2.5,3.949225 3.09775,3.75 C2.5,3.550775 0.3082125,1.757475 0.10895,0.561925"/></g></g></g></g><g id="g892" stroke="#00F" transform="translate(266.043325, 127.500000)"><path id="path894" stroke-width="1.494" d="M3.851075,11.138825 L3.851075,1.7042125"/><g id="g896" stroke-linecap="round" stroke-linejoin="round" stroke-width="1.195"><g id="g898" transform="translate(3.851075, 2.329213) rotate(-90.000000) translate(-3.851075, -2.329213) translate(1.976075, -1.420787)"><g id="g900"><path id="path902" d="M0.10895,6.938075 C0.3082125,5.742525 2.5,3.949225 3.09775,3.75 C2.5,3.550775 0.3082125,1.757475 0.10895,0.561925"/></g></g></g></g><g id="g904" stroke="#00F" transform="translate(372.293325, 127.500000)"><path id="path906" stroke-width="1.494" d="M3.9016,11.138825 L3.9016,1.7042125"/><g id="g908" stroke-linecap="round" stroke-linejoin="round" stroke-width="1.195"><g id="g910" transform="translate(3.901600, 2.329213) rotate(-90.000000) translate(-3.901600, -2.329213) translate(2.026600, -1.420787)"><g id="g912"><path id="path914" d="M0.10895,6.938075 C0.3082125,5.742525 2.5,3.949225 3.09775,3.75 C2.5,3.550775 0.3082125,1.757475 0.10895,0.561925"/></g></g></g></g><g id="g916" stroke="#000" transform="translate(152.706675, 73.750000)"><path id="path918" stroke-width="1.494" d="M3.800525,11.73855 L3.800525,2.3039375"/><g id="g920" stroke-linecap="round" stroke-linejoin="round" stroke-width="1.195"><g id="g922" transform="translate(3.800525, 2.928938) rotate(-90.000000) translate(-3.800525, -2.928938) translate(1.925525, -0.821062)"><g id="g924"><path id="path926" d="M0.10895,6.938075 C0.3082125,5.742525 2.5,3.949225 3.09775,3.75 C2.5,3.550775 0.3082125,1.757475 0.10895,0.561925"/></g></g></g></g><g id="g928" stroke="#000" transform="translate(258.956675, 73.750000)"><path id="path930" stroke-width="1.494" d="M3.851075,11.73855 L3.851075,2.3039375"/><g id="g932" stroke-linecap="round" stroke-linejoin="round" stroke-width="1.195"><g id="g934" transform="translate(3.851075, 2.928938) rotate(-90.000000) translate(-3.851075, -2.928938) translate(1.976075, -0.821062)"><g id="g936"><path id="path938" d="M0.10895,6.938075 C0.3082125,5.742525 2.5,3.949225 3.09775,3.75 C2.5,3.550775 0.3082125,1.757475 0.10895,0.561925"/></g></g></g></g><g id="g940" stroke="#000" transform="translate(365.206675, 73.750000)"><path id="path942" stroke-width="1.494" d="M3.9016,11.73855 L3.9016,2.3039375"/><g id="g944" stroke-linecap="round" stroke-linejoin="round" stroke-width="1.195"><g id="g946" transform="translate(3.901600, 2.928938) rotate(-90.000000) translate(-3.901600, -2.928938) translate(2.026600, -0.821062)"><g id="g948"><path id="path950" d="M0.10895,6.938075 C0.3082125,5.742525 2.5,3.949225 3.09775,3.75 C2.5,3.550775 0.3082125,1.757475 0.10895,0.561925"/></g></g></g></g><g id="g952" stroke="#00F" transform="translate(159.793325, 73.750000)"><path id="path954" stroke-width="1.494" d="M3.800525,11.73855 L3.800525,2.3039375"/><g id="g956" stroke-linecap="round" stroke-linejoin="round" stroke-width="1.195"><g id="g958" transform="translate(3.800525, 2.928938) rotate(-90.000000) translate(-3.800525, -2.928938) translate(1.925525, -0.821062)"><g id="g960"><path id="path962" d="M0.10895,6.938075 C0.3082125,5.742525 2.5,3.949225 3.09775,3.75 C2.5,3.550775 0.3082125,1.757475 0.10895,0.561925"/></g></g></g></g><g id="g964" stroke="#00F" transform="translate(266.043325, 73.750000)"><path id="path966" stroke-width="1.494" d="M3.851075,11.73855 L3.851075,2.3039375"/><g id="g968" stroke-linecap="round" stroke-linejoin="round" stroke-width="1.195"><g id="g970" transform="translate(3.851075, 2.928938) rotate(-90.000000) translate(-3.851075, -2.928938) translate(1.976075, -0.821062)"><g id="g972"><path id="path974" d="M0.10895,6.938075 C0.3082125,5.742525 2.5,3.949225 3.09775,3.75 C2.5,3.550775 0.3082125,1.757475 0.10895,0.561925"/></g></g></g></g><g id="g976" stroke="#00F" transform="translate(372.293325, 73.750000)"><path id="path978" stroke-width="1.494" d="M3.9016,11.73855 L3.9016,2.3039375"/><g id="g980" stroke-linecap="round" stroke-linejoin="round" stroke-width="1.195"><g id="g982" transform="translate(3.901600, 2.928938) rotate(-90.000000) translate(-3.901600, -2.928938) translate(2.026600, -0.821062)"><g id="g984"><path id="path986" d="M0.10895,6.938075 C0.3082125,5.742525 2.5,3.949225 3.09775,3.75 C2.5,3.550775 0.3082125,1.757475 0.10895,0.561925"/></g></g></g></g><g id="g988" stroke="#000" transform="translate(152.706675, 0.000000)"><path id="path990" stroke-width="1.494" d="M3.800525,32.33825 L3.800525,1.6435875"/><g id="g992" stroke-linecap="round" stroke-linejoin="round" stroke-width="1.195"><g id="g994" transform="translate(3.800525, 2.268587) rotate(-90.000000) translate(-3.800525, -2.268587) translate(1.925525, -1.481413)"><g id="g996"><path id="path998" d="M0.10895,6.938075 C0.3082125,5.742525 2.5,3.949225 3.09775,3.75 C2.5,3.550775 0.3082125,1.757475 0.10895,0.561925"/></g></g></g></g><g id="g1000" stroke="#000" transform="translate(258.956675, 0.000000)"><path id="path1002" stroke-width="1.494" d="M3.851075,32.33825 L3.851075,1.6435875"/><g id="g1004" stroke-linecap="round" stroke-linejoin="round" stroke-width="1.195"><g id="g1006" transform="translate(3.851075, 2.268587) rotate(-90.000000) translate(-3.851075, -2.268587) translate(1.976075, -1.481413)"><g id="g1008"><path id="path1010" d="M0.10895,6.938075 C0.3082125,5.742525 2.5,3.949225 3.09775,3.75 C2.5,3.550775 0.3082125,1.757475 0.10895,0.561925"/></g></g></g></g><g id="g1012" stroke="#000" transform="translate(365.206675, 0.000000)"><path id="path1014" stroke-width="1.494" d="M3.9016,32.33825 L3.9016,1.6435875"/><g id="g1016" stroke-linecap="round" stroke-linejoin="round" stroke-width="1.195"><g id="g1018" transform="translate(3.901600, 2.268587) rotate(-90.000000) translate(-3.901600, -2.268587) translate(2.026600, -1.481413)"><g id="g1020"><path id="path1022" d="M0.10895,6.938075 C0.3082125,5.742525 2.5,3.949225 3.09775,3.75 C2.5,3.550775 0.3082125,1.757475 0.10895,0.561925"/></g></g></g></g><g id="g1024" stroke="#00F" transform="translate(159.793325, 0.000000)"><path id="path1026" stroke-width="1.494" d="M3.800525,32.33825 L3.800525,1.6435875"/><g id="g1028" stroke-linecap="round" stroke-linejoin="round" stroke-width="1.195"><g id="g1030" transform="translate(3.800525, 2.268587) rotate(-90.000000) translate(-3.800525, -2.268587) translate(1.925525, -1.481413)"><g id="g1032"><path id="path1034" d="M0.10895,6.938075 C0.3082125,5.742525 2.5,3.949225 3.09775,3.75 C2.5,3.550775 0.3082125,1.757475 0.10895,0.561925"/></g></g></g></g><g id="g1036" stroke="#00F" transform="translate(266.043325, 0.000000)"><path id="path1038" stroke-width="1.494" d="M3.851075,32.33825 L3.851075,1.6435875"/><g id="g1040" stroke-linecap="round" stroke-linejoin="round" stroke-width="1.195"><g id="g1042" transform="translate(3.851075, 2.268587) rotate(-90.000000) translate(-3.851075, -2.268587) translate(1.976075, -1.481413)"><g id="g1044"><path id="path1046" d="M0.10895,6.938075 C0.3082125,5.742525 2.5,3.949225 3.09775,3.75 C2.5,3.550775 0.3082125,1.757475 0.10895,0.561925"/></g></g></g></g><g id="g1048" stroke="#00F" transform="translate(372.293325, 0.000000)"><path id="path1050" stroke-width="1.494" d="M3.9016,32.33825 L3.9016,1.6435875"/><g id="g1052" stroke-linecap="round" stroke-linejoin="round" stroke-width="1.195"><g id="g1054" transform="translate(3.901600, 2.268587) rotate(-90.000000) translate(-3.901600, -2.268587) translate(2.026600, -1.481413)"><g id="g1056"><path id="path1058" d="M0.10895,6.938075 C0.3082125,5.742525 2.5,3.949225 3.09775,3.75 C2.5,3.550775 0.3082125,1.757475 0.10895,0.561925"/></g></g></g></g><g id="g1060"><path id="path1062" stroke="#000" stroke-width="1.993" d="M18.3165,372.5 L18.3165,1.9549375"/><g id="g1064" stroke="#000" stroke-linecap="round" stroke-linejoin="round" stroke-width="1.594" transform="translate(18.316500, 3.204937) rotate(-90.000000) translate(-18.316500, -3.204937) translate(15.816500, -1.795063)"><g id="g1066"><path id="path1068" d="M0.91065,8.785825 C1.14725,7.366125 3.75,5.2365875 4.459825,5 C3.75,4.7634125 1.14725,2.633875 0.91065,1.214175"/></g></g><g id="g1070" fill="#000" font-family="Helvetica" font-size="9.963" font-weight="normal" transform="translate(0.000000, 171.250000)"><g id="g1072" transform="translate(9.660000, 15.658750) rotate(-90.000000) translate(-9.660000, -15.658750) translate(-5.340000, 6.908750)"><g id="g1074"><g id="g1076" transform="translate(0.850000, 0.047500)"><g id="text1078" transform="translate(14.150000, 8.702500) scale(-1, 1) rotate(-180.000000) translate(-14.150000, -8.702500) translate(0.400000, 1.202500)"><text id="tspan1080"><tspan x="0" y="10">Time</tspan></text></g></g></g></g></g></g></g></g></g></g></g><g id="Rectangle"><use fill="#7ED321" fill-rule="evenodd" xlink:href="#path-1"/><rect width="13" height="9" x="159.5" y="55.5" stroke="#000" stroke-width="1"/></g><g id="Rectangle"><use fill="#7ED321" fill-rule="evenodd" xlink:href="#path-2"/><rect width="13" height="9" x="265.5" y="55.5" stroke="#000" stroke-width="1"/></g><g id="Rectangle"><use fill="#7ED321" fill-rule="evenodd" xlink:href="#path-3"/><rect width="13" height="9" x="372.5" y="55.5" stroke="#000" stroke-width="1"/></g><g id="Rectangle"><use fill="#7ED321" fill-rule="evenodd" xlink:href="#path-4"/><rect width="13" height="9" x="159.5" y="108.5" stroke="#000" stroke-width="1"/></g><g id="Rectangle"><use fill="#7ED321" fill-rule="evenodd" xlink:href="#path-5"/><rect width="13" height="9" x="265.5" y="108.5" stroke="#000" stroke-width="1"/></g><g id="Rectangle"><use fill="#7ED321" fill-rule="evenodd" xlink:href="#path-6"/><rect width="13" height="9" x="372.5" y="108.5" stroke="#000" stroke-width="1"/></g><g id="Rectangle"><use fill="#7ED321" fill-rule="evenodd" xlink:href="#path-7"/><rect width="13" height="9" x="159.5" y="161.5" stroke="#000" stroke-width="1"/></g><g id="Rectangle"><use fill="#7ED321" fill-rule="evenodd" xlink:href="#path-8"/><rect width="13" height="9" x="265.5" y="161.5" stroke="#000" stroke-width="1"/></g><g id="Rectangle"><use fill="#7ED321" fill-rule="evenodd" xlink:href="#path-9"/><rect width="13" height="9" x="372.5" y="161.5" stroke="#000" stroke-width="1"/></g><g id="Rectangle"><use fill="#7ED321" fill-rule="evenodd" xlink:href="#path-10"/><rect width="13" height="9" x="159.5" y="215.5" stroke="#000" stroke-width="1"/></g><g id="Rectangle"><use fill="#7ED321" fill-rule="evenodd" xlink:href="#path-11"/><rect width="13" height="9" x="265.5" y="215.5" stroke="#000" stroke-width="1"/></g><g id="Rectangle"><use fill="#7ED321" fill-rule="evenodd" xlink:href="#path-12"/><rect width="13" height="9" x="372.5" y="215.5" stroke="#000" stroke-width="1"/></g><g id="Rectangle"><use fill="#7ED321" fill-rule="evenodd" xlink:href="#path-13"/><rect width="13" height="9" x="159.5" y="268.5" stroke="#000" stroke-width="1"/></g><g id="Rectangle"><use fill="#7ED321" fill-rule="evenodd" xlink:href="#path-14"/><rect width="13" height="9" x="265.5" y="268.5" stroke="#000" stroke-width="1"/></g><g id="Rectangle"><use fill="#7ED321" fill-rule="evenodd" xlink:href="#path-15"/><rect width="13" height="9" x="372.5" y="268.5" stroke="#000" stroke-width="1"/></g><g id="Rectangle"><use fill="#7ED321" fill-rule="evenodd" xlink:href="#path-16"/><rect width="13" height="9" x="159.5" y="321.5" stroke="#000" stroke-width="1"/></g><g id="Rectangle"><use fill="#7ED321" fill-rule="evenodd" xlink:href="#path-17"/><rect width="13" height="9" x="265.5" y="321.5" stroke="#000" stroke-width="1"/></g><g id="Rectangle"><use fill="#7ED321" fill-rule="evenodd" xlink:href="#path-18"/><rect width="13" height="9" x="372.5" y="321.5" stroke="#000" stroke-width="1"/></g></g></g></svg>