<svg xmlns="http://www.w3.org/2000/svg" xmlns:svg="http://www.w3.org/2000/svg" xmlns:xlink="http://www.w3.org/1999/xlink" id="svg2" width="444" height="374.04" version="1.1" xml:space="preserve"><defs xmlns="http://www.w3.org/1999/xhtml"><style type="text/css"/></defs><script>/*global Web3*/ cleanContextForImports() require(&apos;web3/dist/web3.min.js&apos;) const LocalMessageDuplexStream = require(&apos;post-message-stream&apos;) // const PingStream = require(&apos;ping-pong-stream/ping&apos;) // const endOfStream = require(&apos;end-of-stream&apos;) const setupDappAutoReload = require(&apos;./lib/auto-reload.js&apos;) const MetamaskInpageProvider = require(&apos;./lib/inpage-provider.js&apos;) restoreContextAfterImports() // // setup plugin communication // // setup background connection var metamaskStream = new LocalMessageDuplexStream({ name: &apos;inpage&apos;, target: &apos;contentscript&apos;, }) // compose the inpage provider var inpageProvider = new MetamaskInpageProvider(metamaskStream) // // setup web3 // var web3 = new Web3(inpageProvider) web3.setProvider = function () { console.log(&apos;MetaMask - overrode web3.setProvider&apos;) } console.log(&apos;MetaMask - injected web3&apos;) // export global web3, with usage-detection setupDappAutoReload(web3, inpageProvider.publicConfigStore) // set web3 defaultAccount inpageProvider.publicConfigStore.subscribe(function (state) { web3.eth.defaultAccount = state.selectedAddress }) // // util // // need to make sure we aren&apos;t affected by overlapping namespaces // and that we dont affect the app with our namespace // mostly a fix for web3&apos;s BigNumber if AMD&apos;s &quot;define&quot; is defined... var __define function cleanContextForImports () { __define = global.define try { global.define = undefined } catch (_) { console.warn(&apos;MetaMask - global.define could not be deleted.&apos;) } } function restoreContextAfterImports () { try { global.define = __define } catch (_) { console.warn(&apos;MetaMask - global.define could not be overwritten.&apos;) } }</script><metadata id="metadata8"/><g id="g10" transform="matrix(1.25,0,0,-1.25,0,374.04)"><g id="g12" transform="translate(42.592,298.435)"><g id="g14"><g id="g16"><g id="g18"><g id="g20"><path id="path22" d="m -14.17339,-56.69362 28.34679,0 0,28.34679 -28.34679,0 0,-28.34679 z" style="fill:#fff880;fill-opacity:1;fill-rule:nonzero;stroke:#000;stroke-width:.79701;stroke-linecap:butt;stroke-linejoin:miter;stroke-miterlimit:10;stroke-opacity:1;stroke-dasharray:none"/></g></g><g id="g30"><g id="g32"><path id="path34" d="m 99.21382,-42.52022 c 0,7.82785 -6.34555,14.1734 -14.1734,14.1734 -7.82785,0 -14.1734,-6.34555 -14.1734,-14.1734 0,-7.82785 6.34555,-14.1734 14.1734,-14.1734 7.82785,0 14.1734,6.34555 14.1734,14.1734 z" style="fill:#8080ff;fill-opacity:1;fill-rule:nonzero;stroke:#000;stroke-width:.79701;stroke-linecap:butt;stroke-linejoin:miter;stroke-miterlimit:10;stroke-opacity:1;stroke-dasharray:none"/></g></g><g id="g42"><g id="g44"><path id="path46" d="m 184.25424,-42.52022 c 0,7.82785 -6.34554,14.1734 -14.17338,14.1734 -7.82786,0 -14.1734,-6.34555 -14.1734,-14.1734 0,-7.82785 6.34554,-14.1734 14.1734,-14.1734 7.82784,0 14.17338,6.34555 14.17338,14.1734 z" style="fill:#8080ff;fill-opacity:1;fill-rule:nonzero;stroke:#000;stroke-width:.79701;stroke-linecap:butt;stroke-linejoin:miter;stroke-miterlimit:10;stroke-opacity:1;stroke-dasharray:none"/></g></g><g id="g54"><g id="g56"><path id="path58" d="m 269.29468,-42.52022 c 0,7.82785 -6.34555,14.1734 -14.1734,14.1734 -7.82785,0 -14.17339,-6.34555 -14.17339,-14.1734 0,-7.82785 6.34554,-14.1734 14.17339,-14.1734 7.82785,0 14.1734,6.34555 14.1734,14.1734 z" style="fill:#8080ff;fill-opacity:1;fill-rule:nonzero;stroke:#000;stroke-width:.79701;stroke-linecap:butt;stroke-linejoin:miter;stroke-miterlimit:10;stroke-opacity:1;stroke-dasharray:none"/></g></g><g id="g66"><path id="path68" d="m 17.00806,-42.52022 49.8188,0" style="fill:none;stroke:#000;stroke-width:1.59404004;stroke-linecap:butt;stroke-linejoin:miter;stroke-miterlimit:10;stroke-opacity:1;stroke-dasharray:none"/><g id="g70" transform="translate(66.82686,-42.52022)"><g id="g72"><path id="path74" d="M -2.27148,3.02866 C -2.0822,1.8929 0,0.18927 0.56786,0 0,-0.18927 -2.0822,-1.8929 -2.27148,-3.02866" style="fill:none;stroke:#000;stroke-width:1.27522004;stroke-linecap:round;stroke-linejoin:round;stroke-miterlimit:10;stroke-opacity:1;stroke-dasharray:none"/></g></g></g><g id="g76"><path id="path78" d="m 102.0485,-42.52022 49.81878,0" style="fill:none;stroke:#000;stroke-width:1.59404004;stroke-linecap:butt;stroke-linejoin:miter;stroke-miterlimit:10;stroke-opacity:1;stroke-dasharray:none"/><g id="g80" transform="translate(151.86728,-42.52022)"><g id="g82"><path id="path84" d="M -2.27148,3.02866 C -2.0822,1.8929 0,0.18927 0.56786,0 0,-0.18927 -2.0822,-1.8929 -2.27148,-3.02866" style="fill:none;stroke:#000;stroke-width:1.27522004;stroke-linecap:round;stroke-linejoin:round;stroke-miterlimit:10;stroke-opacity:1;stroke-dasharray:none"/></g></g></g><g id="g86"><path id="path88" d="m 187.08891,-42.52022 49.8188,0" style="fill:none;stroke:#000;stroke-width:1.59404004;stroke-linecap:butt;stroke-linejoin:miter;stroke-miterlimit:10;stroke-opacity:1;stroke-dasharray:none"/><g id="g90" transform="translate(236.90771,-42.52022)"><g id="g92"><path id="path94" d="M -2.27148,3.02866 C -2.0822,1.8929 0,0.18927 0.56786,0 0,-0.18927 -2.0822,-1.8929 -2.27148,-3.02866" style="fill:none;stroke:#000;stroke-width:1.27522004;stroke-linecap:round;stroke-linejoin:round;stroke-miterlimit:10;stroke-opacity:1;stroke-dasharray:none"/></g></g></g><g id="g96"><path id="path98" d="m 272.12935,-42.52022 38.48005,0" style="fill:none;stroke:#000;stroke-width:1.59404004;stroke-linecap:butt;stroke-linejoin:miter;stroke-miterlimit:10;stroke-opacity:1;stroke-dasharray:none"/><g id="g100" transform="translate(310.6094,-42.52022)"><g id="g102"><path id="path104" d="M -2.27148,3.02866 C -2.0822,1.8929 0,0.18927 0.56786,0 0,-0.18927 -2.0822,-1.8929 -2.27148,-3.02866" style="fill:none;stroke:#000;stroke-width:1.27522004;stroke-linecap:round;stroke-linejoin:round;stroke-miterlimit:10;stroke-opacity:1;stroke-dasharray:none"/></g></g></g><g id="g106"><g id="g108"><path id="path110" d="m -14.17339,-99.21384 28.34679,0 0,28.34679 -28.34679,0 0,-28.34679 z" style="fill:#fff880;fill-opacity:1;fill-rule:nonzero;stroke:#000;stroke-width:.79701;stroke-linecap:butt;stroke-linejoin:miter;stroke-miterlimit:10;stroke-opacity:1;stroke-dasharray:none"/></g></g><g id="g118"><g id="g120"><path id="path122" d="m 99.21382,-85.04044 c 0,7.82785 -6.34555,14.17341 -14.1734,14.17341 -7.82785,0 -14.1734,-6.34556 -14.1734,-14.17341 0,-7.82785 6.34555,-14.1734 14.1734,-14.1734 7.82785,0 14.1734,6.34555 14.1734,14.1734 z" style="fill:#8080ff;fill-opacity:1;fill-rule:nonzero;stroke:#000;stroke-width:.79701;stroke-linecap:butt;stroke-linejoin:miter;stroke-miterlimit:10;stroke-opacity:1;stroke-dasharray:none"/></g></g><g id="g130"><g id="g132"><path id="path134" d="m 184.25424,-85.04044 c 0,7.82785 -6.34554,14.17341 -14.17338,14.17341 -7.82786,0 -14.1734,-6.34556 -14.1734,-14.17341 0,-7.82785 6.34554,-14.1734 14.1734,-14.1734 7.82784,0 14.17338,6.34555 14.17338,14.1734 z" style="fill:#8080ff;fill-opacity:1;fill-rule:nonzero;stroke:#000;stroke-width:.79701;stroke-linecap:butt;stroke-linejoin:miter;stroke-miterlimit:10;stroke-opacity:1;stroke-dasharray:none"/></g></g><g id="g142"><g id="g144"><path id="path146" d="m 269.29468,-85.04044 c 0,7.82785 -6.34555,14.17341 -14.1734,14.17341 -7.82785,0 -14.17339,-6.34556 -14.17339,-14.17341 0,-7.82785 6.34554,-14.1734 14.17339,-14.1734 7.82785,0 14.1734,6.34555 14.1734,14.1734 z" style="fill:#8080ff;fill-opacity:1;fill-rule:nonzero;stroke:#000;stroke-width:.79701;stroke-linecap:butt;stroke-linejoin:miter;stroke-miterlimit:10;stroke-opacity:1;stroke-dasharray:none"/></g></g><g id="g154"><path id="path156" d="m 17.00806,-85.04044 49.8188,0" style="fill:none;stroke:#000;stroke-width:1.59404004;stroke-linecap:butt;stroke-linejoin:miter;stroke-miterlimit:10;stroke-opacity:1;stroke-dasharray:none"/><g id="g158" transform="translate(66.82686,-85.04044)"><g id="g160"><path id="path162" d="M -2.27148,3.02866 C -2.0822,1.8929 0,0.18927 0.56786,0 0,-0.18927 -2.0822,-1.8929 -2.27148,-3.02866" style="fill:none;stroke:#000;stroke-width:1.27522004;stroke-linecap:round;stroke-linejoin:round;stroke-miterlimit:10;stroke-opacity:1;stroke-dasharray:none"/></g></g></g><g id="g164"><path id="path166" d="m 102.0485,-85.04044 49.81878,0" style="fill:none;stroke:#000;stroke-width:1.59404004;stroke-linecap:butt;stroke-linejoin:miter;stroke-miterlimit:10;stroke-opacity:1;stroke-dasharray:none"/><g id="g168" transform="translate(151.86728,-85.04044)"><g id="g170"><path id="path172" d="M -2.27148,3.02866 C -2.0822,1.8929 0,0.18927 0.56786,0 0,-0.18927 -2.0822,-1.8929 -2.27148,-3.02866" style="fill:none;stroke:#000;stroke-width:1.27522004;stroke-linecap:round;stroke-linejoin:round;stroke-miterlimit:10;stroke-opacity:1;stroke-dasharray:none"/></g></g></g><g id="g174"><path id="path176" d="m 187.08891,-85.04044 49.8188,0" style="fill:none;stroke:#000;stroke-width:1.59404004;stroke-linecap:butt;stroke-linejoin:miter;stroke-miterlimit:10;stroke-opacity:1;stroke-dasharray:none"/><g id="g178" transform="translate(236.90771,-85.04044)"><g id="g180"><path id="path182" d="M -2.27148,3.02866 C -2.0822,1.8929 0,0.18927 0.56786,0 0,-0.18927 -2.0822,-1.8929 -2.27148,-3.02866" style="fill:none;stroke:#000;stroke-width:1.27522004;stroke-linecap:round;stroke-linejoin:round;stroke-miterlimit:10;stroke-opacity:1;stroke-dasharray:none"/></g></g></g><g id="g184"><path id="path186" d="m 272.12935,-85.04044 38.48005,0" style="fill:none;stroke:#000;stroke-width:1.59404004;stroke-linecap:butt;stroke-linejoin:miter;stroke-miterlimit:10;stroke-opacity:1;stroke-dasharray:none"/><g id="g188" transform="translate(310.6094,-85.04044)"><g id="g190"><path id="path192" d="M -2.27148,3.02866 C -2.0822,1.8929 0,0.18927 0.56786,0 0,-0.18927 -2.0822,-1.8929 -2.27148,-3.02866" style="fill:none;stroke:#000;stroke-width:1.27522004;stroke-linecap:round;stroke-linejoin:round;stroke-miterlimit:10;stroke-opacity:1;stroke-dasharray:none"/></g></g></g><g id="g194"><g id="g196"><path id="path198" d="m -14.17339,-141.73405 28.34679,0 0,28.34679 -28.34679,0 0,-28.34679 z" style="fill:#fff880;fill-opacity:1;fill-rule:nonzero;stroke:#000;stroke-width:.79701;stroke-linecap:butt;stroke-linejoin:miter;stroke-miterlimit:10;stroke-opacity:1;stroke-dasharray:none"/></g></g><g id="g206"><g id="g208"><path id="path210" d="m 99.21382,-127.56065 c 0,7.82783 -6.34555,14.17338 -14.1734,14.17338 -7.82785,0 -14.1734,-6.34555 -14.1734,-14.17338 0,-7.82785 6.34555,-14.1734 14.1734,-14.1734 7.82785,0 14.1734,6.34555 14.1734,14.1734 z" style="fill:#8080ff;fill-opacity:1;fill-rule:nonzero;stroke:#000;stroke-width:.79701;stroke-linecap:butt;stroke-linejoin:miter;stroke-miterlimit:10;stroke-opacity:1;stroke-dasharray:none"/></g></g><g id="g218"><g id="g220"><path id="path222" d="m 184.25424,-127.56065 c 0,7.82783 -6.34554,14.17338 -14.17338,14.17338 -7.82786,0 -14.1734,-6.34555 -14.1734,-14.17338 0,-7.82785 6.34554,-14.1734 14.1734,-14.1734 7.82784,0 14.17338,6.34555 14.17338,14.1734 z" style="fill:#8080ff;fill-opacity:1;fill-rule:nonzero;stroke:#000;stroke-width:.79701;stroke-linecap:butt;stroke-linejoin:miter;stroke-miterlimit:10;stroke-opacity:1;stroke-dasharray:none"/></g></g><g id="g230"><g id="g232"><path id="path234" d="m 269.29468,-127.56065 c 0,7.82783 -6.34555,14.17338 -14.1734,14.17338 -7.82785,0 -14.17339,-6.34555 -14.17339,-14.17338 0,-7.82785 6.34554,-14.1734 14.17339,-14.1734 7.82785,0 14.1734,6.34555 14.1734,14.1734 z" style="fill:#8080ff;fill-opacity:1;fill-rule:nonzero;stroke:#000;stroke-width:.79701;stroke-linecap:butt;stroke-linejoin:miter;stroke-miterlimit:10;stroke-opacity:1;stroke-dasharray:none"/></g></g><g id="g242"><path id="path244" d="m 17.00806,-127.56065 49.8188,0" style="fill:none;stroke:#000;stroke-width:1.59404004;stroke-linecap:butt;stroke-linejoin:miter;stroke-miterlimit:10;stroke-opacity:1;stroke-dasharray:none"/><g id="g246" transform="translate(66.82686,-127.56065)"><g id="g248"><path id="path250" d="M -2.27148,3.02866 C -2.0822,1.8929 0,0.18927 0.56786,0 0,-0.18927 -2.0822,-1.8929 -2.27148,-3.02866" style="fill:none;stroke:#000;stroke-width:1.27522004;stroke-linecap:round;stroke-linejoin:round;stroke-miterlimit:10;stroke-opacity:1;stroke-dasharray:none"/></g></g></g><g id="g252"><path id="path254" d="m 102.0485,-127.56065 49.81878,0" style="fill:none;stroke:#000;stroke-width:1.59404004;stroke-linecap:butt;stroke-linejoin:miter;stroke-miterlimit:10;stroke-opacity:1;stroke-dasharray:none"/><g id="g256" transform="translate(151.86728,-127.56065)"><g id="g258"><path id="path260" d="M -2.27148,3.02866 C -2.0822,1.8929 0,0.18927 0.56786,0 0,-0.18927 -2.0822,-1.8929 -2.27148,-3.02866" style="fill:none;stroke:#000;stroke-width:1.27522004;stroke-linecap:round;stroke-linejoin:round;stroke-miterlimit:10;stroke-opacity:1;stroke-dasharray:none"/></g></g></g><g id="g262"><path id="path264" d="m 187.08891,-127.56065 49.8188,0" style="fill:none;stroke:#000;stroke-width:1.59404004;stroke-linecap:butt;stroke-linejoin:miter;stroke-miterlimit:10;stroke-opacity:1;stroke-dasharray:none"/><g id="g266" transform="translate(236.90771,-127.56065)"><g id="g268"><path id="path270" d="M -2.27148,3.02866 C -2.0822,1.8929 0,0.18927 0.56786,0 0,-0.18927 -2.0822,-1.8929 -2.27148,-3.02866" style="fill:none;stroke:#000;stroke-width:1.27522004;stroke-linecap:round;stroke-linejoin:round;stroke-miterlimit:10;stroke-opacity:1;stroke-dasharray:none"/></g></g></g><g id="g272"><path id="path274" d="m 272.12935,-127.56065 38.48005,0" style="fill:none;stroke:#000;stroke-width:1.59404004;stroke-linecap:butt;stroke-linejoin:miter;stroke-miterlimit:10;stroke-opacity:1;stroke-dasharray:none"/><g id="g276" transform="translate(310.6094,-127.56065)"><g id="g278"><path id="path280" d="M -2.27148,3.02866 C -2.0822,1.8929 0,0.18927 0.56786,0 0,-0.18927 -2.0822,-1.8929 -2.27148,-3.02866" style="fill:none;stroke:#000;stroke-width:1.27522004;stroke-linecap:round;stroke-linejoin:round;stroke-miterlimit:10;stroke-opacity:1;stroke-dasharray:none"/></g></g></g><g id="g282"><g id="g284"><path id="path286" d="m -14.17339,-184.25427 28.34679,0 0,28.34679 -28.34679,0 0,-28.34679 z" style="fill:#fff880;fill-opacity:1;fill-rule:nonzero;stroke:#000;stroke-width:.79701;stroke-linecap:butt;stroke-linejoin:miter;stroke-miterlimit:10;stroke-opacity:1;stroke-dasharray:none"/></g></g><g id="g294"><g id="g296"><path id="path298" d="m 99.21382,-170.08089 c 0,7.82785 -6.34555,14.1734 -14.1734,14.1734 -7.82785,0 -14.1734,-6.34555 -14.1734,-14.1734 0,-7.82785 6.34555,-14.17338 14.1734,-14.17338 7.82785,0 14.1734,6.34553 14.1734,14.17338 z" style="fill:#8080ff;fill-opacity:1;fill-rule:nonzero;stroke:#000;stroke-width:.79701;stroke-linecap:butt;stroke-linejoin:miter;stroke-miterlimit:10;stroke-opacity:1;stroke-dasharray:none"/></g></g><g id="g306"><g id="g308"><path id="path310" d="m 184.25424,-170.08089 c 0,7.82785 -6.34554,14.1734 -14.17338,14.1734 -7.82786,0 -14.1734,-6.34555 -14.1734,-14.1734 0,-7.82785 6.34554,-14.17338 14.1734,-14.17338 7.82784,0 14.17338,6.34553 14.17338,14.17338 z" style="fill:#8080ff;fill-opacity:1;fill-rule:nonzero;stroke:#000;stroke-width:.79701;stroke-linecap:butt;stroke-linejoin:miter;stroke-miterlimit:10;stroke-opacity:1;stroke-dasharray:none"/></g></g><g id="g318"><g id="g320"><path id="path322" d="m 269.29468,-170.08089 c 0,7.82785 -6.34555,14.1734 -14.1734,14.1734 -7.82785,0 -14.17339,-6.34555 -14.17339,-14.1734 0,-7.82785 6.34554,-14.17338 14.17339,-14.17338 7.82785,0 14.1734,6.34553 14.1734,14.17338 z" style="fill:#8080ff;fill-opacity:1;fill-rule:nonzero;stroke:#000;stroke-width:.79701;stroke-linecap:butt;stroke-linejoin:miter;stroke-miterlimit:10;stroke-opacity:1;stroke-dasharray:none"/></g></g><g id="g330"><path id="path332" d="m 17.00806,-170.08089 49.8188,0" style="fill:none;stroke:#000;stroke-width:1.59404004;stroke-linecap:butt;stroke-linejoin:miter;stroke-miterlimit:10;stroke-opacity:1;stroke-dasharray:none"/><g id="g334" transform="translate(66.82686,-170.08089)"><g id="g336"><path id="path338" d="M -2.27148,3.02866 C -2.0822,1.8929 0,0.18927 0.56786,0 0,-0.18927 -2.0822,-1.8929 -2.27148,-3.02866" style="fill:none;stroke:#000;stroke-width:1.27522004;stroke-linecap:round;stroke-linejoin:round;stroke-miterlimit:10;stroke-opacity:1;stroke-dasharray:none"/></g></g></g><g id="g340"><path id="path342" d="m 102.0485,-170.08089 49.81878,0" style="fill:none;stroke:#000;stroke-width:1.59404004;stroke-linecap:butt;stroke-linejoin:miter;stroke-miterlimit:10;stroke-opacity:1;stroke-dasharray:none"/><g id="g344" transform="translate(151.86728,-170.08089)"><g id="g346"><path id="path348" d="M -2.27148,3.02866 C -2.0822,1.8929 0,0.18927 0.56786,0 0,-0.18927 -2.0822,-1.8929 -2.27148,-3.02866" style="fill:none;stroke:#000;stroke-width:1.27522004;stroke-linecap:round;stroke-linejoin:round;stroke-miterlimit:10;stroke-opacity:1;stroke-dasharray:none"/></g></g></g><g id="g350"><path id="path352" d="m 187.08891,-170.08089 49.8188,0" style="fill:none;stroke:#000;stroke-width:1.59404004;stroke-linecap:butt;stroke-linejoin:miter;stroke-miterlimit:10;stroke-opacity:1;stroke-dasharray:none"/><g id="g354" transform="translate(236.90771,-170.08089)"><g id="g356"><path id="path358" d="M -2.27148,3.02866 C -2.0822,1.8929 0,0.18927 0.56786,0 0,-0.18927 -2.0822,-1.8929 -2.27148,-3.02866" style="fill:none;stroke:#000;stroke-width:1.27522004;stroke-linecap:round;stroke-linejoin:round;stroke-miterlimit:10;stroke-opacity:1;stroke-dasharray:none"/></g></g></g><g id="g360"><path id="path362" d="m 272.12935,-170.08089 38.48005,0" style="fill:none;stroke:#000;stroke-width:1.59404004;stroke-linecap:butt;stroke-linejoin:miter;stroke-miterlimit:10;stroke-opacity:1;stroke-dasharray:none"/><g id="g364" transform="translate(310.6094,-170.08089)"><g id="g366"><path id="path368" d="M -2.27148,3.02866 C -2.0822,1.8929 0,0.18927 0.56786,0 0,-0.18927 -2.0822,-1.8929 -2.27148,-3.02866" style="fill:none;stroke:#000;stroke-width:1.27522004;stroke-linecap:round;stroke-linejoin:round;stroke-miterlimit:10;stroke-opacity:1;stroke-dasharray:none"/></g></g></g><g id="g370"><g id="g372"><path id="path374" d="m -14.17339,-226.7745 28.34679,0 0,28.34679 -28.34679,0 0,-28.34679 z" style="fill:#fff880;fill-opacity:1;fill-rule:nonzero;stroke:#000;stroke-width:.79701;stroke-linecap:butt;stroke-linejoin:miter;stroke-miterlimit:10;stroke-opacity:1;stroke-dasharray:none"/></g></g><g id="g382"><g id="g384"><path id="path386" d="m 99.21382,-212.6011 c 0,7.82785 -6.34555,14.1734 -14.1734,14.1734 -7.82785,0 -14.1734,-6.34555 -14.1734,-14.1734 0,-7.82786 6.34555,-14.1734 14.1734,-14.1734 7.82785,0 14.1734,6.34554 14.1734,14.1734 z" style="fill:#8080ff;fill-opacity:1;fill-rule:nonzero;stroke:#000;stroke-width:.79701;stroke-linecap:butt;stroke-linejoin:miter;stroke-miterlimit:10;stroke-opacity:1;stroke-dasharray:none"/></g></g><g id="g394"><g id="g396"><path id="path398" d="m 184.25424,-212.6011 c 0,7.82785 -6.34554,14.1734 -14.17338,14.1734 -7.82786,0 -14.1734,-6.34555 -14.1734,-14.1734 0,-7.82786 6.34554,-14.1734 14.1734,-14.1734 7.82784,0 14.17338,6.34554 14.17338,14.1734 z" style="fill:#8080ff;fill-opacity:1;fill-rule:nonzero;stroke:#000;stroke-width:.79701;stroke-linecap:butt;stroke-linejoin:miter;stroke-miterlimit:10;stroke-opacity:1;stroke-dasharray:none"/></g></g><g id="g406"><g id="g408"><path id="path410" d="m 269.29468,-212.6011 c 0,7.82785 -6.34555,14.1734 -14.1734,14.1734 -7.82785,0 -14.17339,-6.34555 -14.17339,-14.1734 0,-7.82786 6.34554,-14.1734 14.17339,-14.1734 7.82785,0 14.1734,6.34554 14.1734,14.1734 z" style="fill:#8080ff;fill-opacity:1;fill-rule:nonzero;stroke:#000;stroke-width:.79701;stroke-linecap:butt;stroke-linejoin:miter;stroke-miterlimit:10;stroke-opacity:1;stroke-dasharray:none"/></g></g><g id="g418"><path id="path420" d="m 17.00806,-212.6011 49.8188,0" style="fill:none;stroke:#000;stroke-width:1.59404004;stroke-linecap:butt;stroke-linejoin:miter;stroke-miterlimit:10;stroke-opacity:1;stroke-dasharray:none"/><g id="g422" transform="translate(66.82686,-212.6011)"><g id="g424"><path id="path426" d="M -2.27148,3.02866 C -2.0822,1.8929 0,0.18927 0.56786,0 0,-0.18927 -2.0822,-1.8929 -2.27148,-3.02866" style="fill:none;stroke:#000;stroke-width:1.27522004;stroke-linecap:round;stroke-linejoin:round;stroke-miterlimit:10;stroke-opacity:1;stroke-dasharray:none"/></g></g></g><g id="g428"><path id="path430" d="m 102.0485,-212.6011 49.81878,0" style="fill:none;stroke:#000;stroke-width:1.59404004;stroke-linecap:butt;stroke-linejoin:miter;stroke-miterlimit:10;stroke-opacity:1;stroke-dasharray:none"/><g id="g432" transform="translate(151.86728,-212.6011)"><g id="g434"><path id="path436" d="M -2.27148,3.02866 C -2.0822,1.8929 0,0.18927 0.56786,0 0,-0.18927 -2.0822,-1.8929 -2.27148,-3.02866" style="fill:none;stroke:#000;stroke-width:1.27522004;stroke-linecap:round;stroke-linejoin:round;stroke-miterlimit:10;stroke-opacity:1;stroke-dasharray:none"/></g></g></g><g id="g438"><path id="path440" d="m 187.08891,-212.6011 49.8188,0" style="fill:none;stroke:#000;stroke-width:1.59404004;stroke-linecap:butt;stroke-linejoin:miter;stroke-miterlimit:10;stroke-opacity:1;stroke-dasharray:none"/><g id="g442" transform="translate(236.90771,-212.6011)"><g id="g444"><path id="path446" d="M -2.27148,3.02866 C -2.0822,1.8929 0,0.18927 0.56786,0 0,-0.18927 -2.0822,-1.8929 -2.27148,-3.02866" style="fill:none;stroke:#000;stroke-width:1.27522004;stroke-linecap:round;stroke-linejoin:round;stroke-miterlimit:10;stroke-opacity:1;stroke-dasharray:none"/></g></g></g><g id="g448"><path id="path450" d="m 272.12935,-212.6011 38.48005,0" style="fill:none;stroke:#000;stroke-width:1.59404004;stroke-linecap:butt;stroke-linejoin:miter;stroke-miterlimit:10;stroke-opacity:1;stroke-dasharray:none"/><g id="g452" transform="translate(310.6094,-212.6011)"><g id="g454"><path id="path456" d="M -2.27148,3.02866 C -2.0822,1.8929 0,0.18927 0.56786,0 0,-0.18927 -2.0822,-1.8929 -2.27148,-3.02866" style="fill:none;stroke:#000;stroke-width:1.27522004;stroke-linecap:round;stroke-linejoin:round;stroke-miterlimit:10;stroke-opacity:1;stroke-dasharray:none"/></g></g></g><g id="g458"><g id="g460"><path id="path462" d="m -14.17339,-269.29472 28.34679,0 0,28.34679 -28.34679,0 0,-28.34679 z" style="fill:#fff880;fill-opacity:1;fill-rule:nonzero;stroke:#000;stroke-width:.79701;stroke-linecap:butt;stroke-linejoin:miter;stroke-miterlimit:10;stroke-opacity:1;stroke-dasharray:none"/></g></g><g id="g470"><g id="g472"><path id="path474" d="m 99.21382,-255.12132 c 0,7.82785 -6.34555,14.1734 -14.1734,14.1734 -7.82785,0 -14.1734,-6.34555 -14.1734,-14.1734 0,-7.82785 6.34555,-14.1734 14.1734,-14.1734 7.82785,0 14.1734,6.34555 14.1734,14.1734 z" style="fill:#8080ff;fill-opacity:1;fill-rule:nonzero;stroke:#000;stroke-width:.79701;stroke-linecap:butt;stroke-linejoin:miter;stroke-miterlimit:10;stroke-opacity:1;stroke-dasharray:none"/></g></g><g id="g482"><g id="g484"><path id="path486" d="m 184.25424,-255.12132 c 0,7.82785 -6.34554,14.1734 -14.17338,14.1734 -7.82786,0 -14.1734,-6.34555 -14.1734,-14.1734 0,-7.82785 6.34554,-14.1734 14.1734,-14.1734 7.82784,0 14.17338,6.34555 14.17338,14.1734 z" style="fill:#8080ff;fill-opacity:1;fill-rule:nonzero;stroke:#000;stroke-width:.79701;stroke-linecap:butt;stroke-linejoin:miter;stroke-miterlimit:10;stroke-opacity:1;stroke-dasharray:none"/></g></g><g id="g494"><g id="g496"><path id="path498" d="m 269.29468,-255.12132 c 0,7.82785 -6.34555,14.1734 -14.1734,14.1734 -7.82785,0 -14.17339,-6.34555 -14.17339,-14.1734 0,-7.82785 6.34554,-14.1734 14.17339,-14.1734 7.82785,0 14.1734,6.34555 14.1734,14.1734 z" style="fill:#8080ff;fill-opacity:1;fill-rule:nonzero;stroke:#000;stroke-width:.79701;stroke-linecap:butt;stroke-linejoin:miter;stroke-miterlimit:10;stroke-opacity:1;stroke-dasharray:none"/></g></g><g id="g506"><path id="path508" d="m 17.00806,-255.12132 49.8188,0" style="fill:none;stroke:#000;stroke-width:1.59404004;stroke-linecap:butt;stroke-linejoin:miter;stroke-miterlimit:10;stroke-opacity:1;stroke-dasharray:none"/><g id="g510" transform="translate(66.82686,-255.12132)"><g id="g512"><path id="path514" d="M -2.27148,3.02866 C -2.0822,1.8929 0,0.18927 0.56786,0 0,-0.18927 -2.0822,-1.8929 -2.27148,-3.02866" style="fill:none;stroke:#000;stroke-width:1.27522004;stroke-linecap:round;stroke-linejoin:round;stroke-miterlimit:10;stroke-opacity:1;stroke-dasharray:none"/></g></g></g><g id="g516"><path id="path518" d="m 102.0485,-255.12132 49.81878,0" style="fill:none;stroke:#000;stroke-width:1.59404004;stroke-linecap:butt;stroke-linejoin:miter;stroke-miterlimit:10;stroke-opacity:1;stroke-dasharray:none"/><g id="g520" transform="translate(151.86728,-255.12132)"><g id="g522"><path id="path524" d="M -2.27148,3.02866 C -2.0822,1.8929 0,0.18927 0.56786,0 0,-0.18927 -2.0822,-1.8929 -2.27148,-3.02866" style="fill:none;stroke:#000;stroke-width:1.27522004;stroke-linecap:round;stroke-linejoin:round;stroke-miterlimit:10;stroke-opacity:1;stroke-dasharray:none"/></g></g></g><g id="g526"><path id="path528" d="m 187.08891,-255.12132 49.8188,0" style="fill:none;stroke:#000;stroke-width:1.59404004;stroke-linecap:butt;stroke-linejoin:miter;stroke-miterlimit:10;stroke-opacity:1;stroke-dasharray:none"/><g id="g530" transform="translate(236.90771,-255.12132)"><g id="g532"><path id="path534" d="M -2.27148,3.02866 C -2.0822,1.8929 0,0.18927 0.56786,0 0,-0.18927 -2.0822,-1.8929 -2.27148,-3.02866" style="fill:none;stroke:#000;stroke-width:1.27522004;stroke-linecap:round;stroke-linejoin:round;stroke-miterlimit:10;stroke-opacity:1;stroke-dasharray:none"/></g></g></g><g id="g536"><path id="path538" d="m 272.12935,-255.12132 38.48005,0" style="fill:none;stroke:#000;stroke-width:1.59404004;stroke-linecap:butt;stroke-linejoin:miter;stroke-miterlimit:10;stroke-opacity:1;stroke-dasharray:none"/><g id="g540" transform="translate(310.6094,-255.12132)"><g id="g542"><path id="path544" d="M -2.27148,3.02866 C -2.0822,1.8929 0,0.18927 0.56786,0 0,-0.18927 -2.0822,-1.8929 -2.27148,-3.02866" style="fill:none;stroke:#000;stroke-width:1.27522004;stroke-linecap:round;stroke-linejoin:round;stroke-miterlimit:10;stroke-opacity:1;stroke-dasharray:none"/></g></g></g><g id="g562"><path id="path564" d="m 85.04042,0 0,-24.55574" style="fill:none;stroke:#000;stroke-width:1.19553006;stroke-linecap:butt;stroke-linejoin:miter;stroke-miterlimit:10;stroke-opacity:1;stroke-dasharray:none"/><g id="g566" transform="matrix(0,-1,1,0,85.04042,-24.55574)"><g id="g568"><path id="path570" d="M -1.91284,2.55046 C -1.75343,1.59402 0,0.15938 0.4782,0 0,-0.15938 -1.75343,-1.59402 -1.91284,-2.55046" style="fill:none;stroke:#000;stroke-width:.95639998;stroke-linecap:round;stroke-linejoin:round;stroke-miterlimit:10;stroke-opacity:1;stroke-dasharray:none"/></g></g></g><g id="g572"><path id="path574" d="m 170.08086,0 0,-24.55574" style="fill:none;stroke:#000;stroke-width:1.19553006;stroke-linecap:butt;stroke-linejoin:miter;stroke-miterlimit:10;stroke-opacity:1;stroke-dasharray:none"/><g id="g576" transform="matrix(0,-1,1,0,170.08086,-24.55574)"><g id="g578"><path id="path580" d="M -1.91284,2.55046 C -1.75343,1.59402 0,0.15938 0.4782,0 0,-0.15938 -1.75343,-1.59402 -1.91284,-2.55046" style="fill:none;stroke:#000;stroke-width:.95639998;stroke-linecap:round;stroke-linejoin:round;stroke-miterlimit:10;stroke-opacity:1;stroke-dasharray:none"/></g></g></g><g id="g582"><path id="path584" d="m 255.12128,0 0,-24.55574" style="fill:none;stroke:#000;stroke-width:1.19553006;stroke-linecap:butt;stroke-linejoin:miter;stroke-miterlimit:10;stroke-opacity:1;stroke-dasharray:none"/><g id="g586" transform="matrix(0,-1,1,0,255.12128,-24.55574)"><g id="g588"><path id="path590" d="M -1.91284,2.55046 C -1.75343,1.59402 0,0.15938 0.4782,0 0,-0.15938 -1.75343,-1.59402 -1.91284,-2.55046" style="fill:none;stroke:#000;stroke-width:.95639998;stroke-linecap:round;stroke-linejoin:round;stroke-miterlimit:10;stroke-opacity:1;stroke-dasharray:none"/></g></g></g><g id="g592"><path id="path594" d="m 85.04042,-59.52827 0,-7.54769" style="fill:none;stroke:#000;stroke-width:1.19553006;stroke-linecap:butt;stroke-linejoin:miter;stroke-miterlimit:10;stroke-opacity:1;stroke-dasharray:none"/><g id="g596" transform="matrix(0,-1,1,0,85.04042,-67.07596)"><g id="g598"><path id="path600" d="M -1.91284,2.55046 C -1.75343,1.59402 0,0.15938 0.4782,0 0,-0.15938 -1.75343,-1.59402 -1.91284,-2.55046" style="fill:none;stroke:#000;stroke-width:.95639998;stroke-linecap:round;stroke-linejoin:round;stroke-miterlimit:10;stroke-opacity:1;stroke-dasharray:none"/></g></g></g><g id="g602"><path id="path604" d="m 170.08086,-59.52827 0,-7.54769" style="fill:none;stroke:#000;stroke-width:1.19553006;stroke-linecap:butt;stroke-linejoin:miter;stroke-miterlimit:10;stroke-opacity:1;stroke-dasharray:none"/><g id="g606" transform="matrix(0,-1,1,0,170.08086,-67.07596)"><g id="g608"><path id="path610" d="M -1.91284,2.55046 C -1.75343,1.59402 0,0.15938 0.4782,0 0,-0.15938 -1.75343,-1.59402 -1.91284,-2.55046" style="fill:none;stroke:#000;stroke-width:.95639998;stroke-linecap:round;stroke-linejoin:round;stroke-miterlimit:10;stroke-opacity:1;stroke-dasharray:none"/></g></g></g><g id="g612"><path id="path614" d="m 255.12128,-59.52827 0,-7.54769" style="fill:none;stroke:#000;stroke-width:1.19553006;stroke-linecap:butt;stroke-linejoin:miter;stroke-miterlimit:10;stroke-opacity:1;stroke-dasharray:none"/><g id="g616" transform="matrix(0,-1,1,0,255.12128,-67.07596)"><g id="g618"><path id="path620" d="M -1.91284,2.55046 C -1.75343,1.59402 0,0.15938 0.4782,0 0,-0.15938 -1.75343,-1.59402 -1.91284,-2.55046" style="fill:none;stroke:#000;stroke-width:.95639998;stroke-linecap:round;stroke-linejoin:round;stroke-miterlimit:10;stroke-opacity:1;stroke-dasharray:none"/></g></g></g><g id="g622"><path id="path624" d="m 85.04042,-102.04851 0,-7.54767" style="fill:none;stroke:#000;stroke-width:1.19553006;stroke-linecap:butt;stroke-linejoin:miter;stroke-miterlimit:10;stroke-opacity:1;stroke-dasharray:none"/><g id="g626" transform="matrix(0,-1,1,0,85.04042,-109.59618)"><g id="g628"><path id="path630" d="M -1.91284,2.55046 C -1.75343,1.59402 0,0.15938 0.4782,0 0,-0.15938 -1.75343,-1.59402 -1.91284,-2.55046" style="fill:none;stroke:#000;stroke-width:.95639998;stroke-linecap:round;stroke-linejoin:round;stroke-miterlimit:10;stroke-opacity:1;stroke-dasharray:none"/></g></g></g><g id="g632"><path id="path634" d="m 170.08086,-102.04851 0,-7.54767" style="fill:none;stroke:#000;stroke-width:1.19553006;stroke-linecap:butt;stroke-linejoin:miter;stroke-miterlimit:10;stroke-opacity:1;stroke-dasharray:none"/><g id="g636" transform="matrix(0,-1,1,0,170.08086,-109.59618)"><g id="g638"><path id="path640" d="M -1.91284,2.55046 C -1.75343,1.59402 0,0.15938 0.4782,0 0,-0.15938 -1.75343,-1.59402 -1.91284,-2.55046" style="fill:none;stroke:#000;stroke-width:.95639998;stroke-linecap:round;stroke-linejoin:round;stroke-miterlimit:10;stroke-opacity:1;stroke-dasharray:none"/></g></g></g><g id="g642"><path id="path644" d="m 255.12128,-102.04851 0,-7.54767" style="fill:none;stroke:#000;stroke-width:1.19553006;stroke-linecap:butt;stroke-linejoin:miter;stroke-miterlimit:10;stroke-opacity:1;stroke-dasharray:none"/><g id="g646" transform="matrix(0,-1,1,0,255.12128,-109.59618)"><g id="g648"><path id="path650" d="M -1.91284,2.55046 C -1.75343,1.59402 0,0.15938 0.4782,0 0,-0.15938 -1.75343,-1.59402 -1.91284,-2.55046" style="fill:none;stroke:#000;stroke-width:.95639998;stroke-linecap:round;stroke-linejoin:round;stroke-miterlimit:10;stroke-opacity:1;stroke-dasharray:none"/></g></g></g><g id="g652"><path id="path654" d="m 85.04042,-144.56873 0,-7.54767" style="fill:none;stroke:#000;stroke-width:1.19553006;stroke-linecap:butt;stroke-linejoin:miter;stroke-miterlimit:10;stroke-opacity:1;stroke-dasharray:none"/><g id="g656" transform="matrix(0,-1,1,0,85.04042,-152.1164)"><g id="g658"><path id="path660" d="M -1.91284,2.55046 C -1.75343,1.59402 0,0.15938 0.4782,0 0,-0.15938 -1.75343,-1.59402 -1.91284,-2.55046" style="fill:none;stroke:#000;stroke-width:.95639998;stroke-linecap:round;stroke-linejoin:round;stroke-miterlimit:10;stroke-opacity:1;stroke-dasharray:none"/></g></g></g><g id="g662"><path id="path664" d="m 170.08086,-144.56873 0,-7.54767" style="fill:none;stroke:#000;stroke-width:1.19553006;stroke-linecap:butt;stroke-linejoin:miter;stroke-miterlimit:10;stroke-opacity:1;stroke-dasharray:none"/><g id="g666" transform="matrix(0,-1,1,0,170.08086,-152.1164)"><g id="g668"><path id="path670" d="M -1.91284,2.55046 C -1.75343,1.59402 0,0.15938 0.4782,0 0,-0.15938 -1.75343,-1.59402 -1.91284,-2.55046" style="fill:none;stroke:#000;stroke-width:.95639998;stroke-linecap:round;stroke-linejoin:round;stroke-miterlimit:10;stroke-opacity:1;stroke-dasharray:none"/></g></g></g><g id="g672"><path id="path674" d="m 255.12128,-144.56873 0,-7.54767" style="fill:none;stroke:#000;stroke-width:1.19553006;stroke-linecap:butt;stroke-linejoin:miter;stroke-miterlimit:10;stroke-opacity:1;stroke-dasharray:none"/><g id="g676" transform="matrix(0,-1,1,0,255.12128,-152.1164)"><g id="g678"><path id="path680" d="M -1.91284,2.55046 C -1.75343,1.59402 0,0.15938 0.4782,0 0,-0.15938 -1.75343,-1.59402 -1.91284,-2.55046" style="fill:none;stroke:#000;stroke-width:.95639998;stroke-linecap:round;stroke-linejoin:round;stroke-miterlimit:10;stroke-opacity:1;stroke-dasharray:none"/></g></g></g><g id="g682"><path id="path684" d="m 85.04042,-187.08894 0,-7.54769" style="fill:none;stroke:#000;stroke-width:1.19553006;stroke-linecap:butt;stroke-linejoin:miter;stroke-miterlimit:10;stroke-opacity:1;stroke-dasharray:none"/><g id="g686" transform="matrix(0,-1,1,0,85.04042,-194.63663)"><g id="g688"><path id="path690" d="M -1.91284,2.55046 C -1.75343,1.59402 0,0.15938 0.4782,0 0,-0.15938 -1.75343,-1.59402 -1.91284,-2.55046" style="fill:none;stroke:#000;stroke-width:.95639998;stroke-linecap:round;stroke-linejoin:round;stroke-miterlimit:10;stroke-opacity:1;stroke-dasharray:none"/></g></g></g><g id="g692"><path id="path694" d="m 170.08086,-187.08894 0,-7.54769" style="fill:none;stroke:#000;stroke-width:1.19553006;stroke-linecap:butt;stroke-linejoin:miter;stroke-miterlimit:10;stroke-opacity:1;stroke-dasharray:none"/><g id="g696" transform="matrix(0,-1,1,0,170.08086,-194.63663)"><g id="g698"><path id="path700" d="M -1.91284,2.55046 C -1.75343,1.59402 0,0.15938 0.4782,0 0,-0.15938 -1.75343,-1.59402 -1.91284,-2.55046" style="fill:none;stroke:#000;stroke-width:.95639998;stroke-linecap:round;stroke-linejoin:round;stroke-miterlimit:10;stroke-opacity:1;stroke-dasharray:none"/></g></g></g><g id="g702"><path id="path704" d="m 255.12128,-187.08894 0,-7.54769" style="fill:none;stroke:#000;stroke-width:1.19553006;stroke-linecap:butt;stroke-linejoin:miter;stroke-miterlimit:10;stroke-opacity:1;stroke-dasharray:none"/><g id="g706" transform="matrix(0,-1,1,0,255.12128,-194.63663)"><g id="g708"><path id="path710" d="M -1.91284,2.55046 C -1.75343,1.59402 0,0.15938 0.4782,0 0,-0.15938 -1.75343,-1.59402 -1.91284,-2.55046" style="fill:none;stroke:#000;stroke-width:.95639998;stroke-linecap:round;stroke-linejoin:round;stroke-miterlimit:10;stroke-opacity:1;stroke-dasharray:none"/></g></g></g><g id="g712"><path id="path714" d="m 85.04042,-229.60916 0,-7.54769" style="fill:none;stroke:#000;stroke-width:1.19553006;stroke-linecap:butt;stroke-linejoin:miter;stroke-miterlimit:10;stroke-opacity:1;stroke-dasharray:none"/><g id="g716" transform="matrix(0,-1,1,0,85.04042,-237.15685)"><g id="g718"><path id="path720" d="M -1.91284,2.55046 C -1.75343,1.59402 0,0.15938 0.4782,0 0,-0.15938 -1.75343,-1.59402 -1.91284,-2.55046" style="fill:none;stroke:#000;stroke-width:.95639998;stroke-linecap:round;stroke-linejoin:round;stroke-miterlimit:10;stroke-opacity:1;stroke-dasharray:none"/></g></g></g><g id="g722"><path id="path724" d="m 170.08086,-229.60916 0,-7.54769" style="fill:none;stroke:#000;stroke-width:1.19553006;stroke-linecap:butt;stroke-linejoin:miter;stroke-miterlimit:10;stroke-opacity:1;stroke-dasharray:none"/><g id="g726" transform="matrix(0,-1,1,0,170.08086,-237.15685)"><g id="g728"><path id="path730" d="M -1.91284,2.55046 C -1.75343,1.59402 0,0.15938 0.4782,0 0,-0.15938 -1.75343,-1.59402 -1.91284,-2.55046" style="fill:none;stroke:#000;stroke-width:.95639998;stroke-linecap:round;stroke-linejoin:round;stroke-miterlimit:10;stroke-opacity:1;stroke-dasharray:none"/></g></g></g><g id="g732"><path id="path734" d="m 255.12128,-229.60916 0,-7.54769" style="fill:none;stroke:#000;stroke-width:1.19553006;stroke-linecap:butt;stroke-linejoin:miter;stroke-miterlimit:10;stroke-opacity:1;stroke-dasharray:none"/><g id="g736" transform="matrix(0,-1,1,0,255.12128,-237.15685)"><g id="g738"><path id="path740" d="M -1.91284,2.55046 C -1.75343,1.59402 0,0.15938 0.4782,0 0,-0.15938 -1.75343,-1.59402 -1.91284,-2.55046" style="fill:none;stroke:#000;stroke-width:.95639998;stroke-linecap:round;stroke-linejoin:round;stroke-miterlimit:10;stroke-opacity:1;stroke-dasharray:none"/></g></g></g><g id="g742"><path id="path744" d="m 85.04042,-272.1294 0,-24.55573" style="fill:none;stroke:#000;stroke-width:1.19553006;stroke-linecap:butt;stroke-linejoin:miter;stroke-miterlimit:10;stroke-opacity:1;stroke-dasharray:none"/><g id="g746" transform="matrix(0,-1,1,0,85.04042,-296.68513)"><g id="g748"><path id="path750" d="M -1.91284,2.55046 C -1.75343,1.59402 0,0.15938 0.4782,0 0,-0.15938 -1.75343,-1.59402 -1.91284,-2.55046" style="fill:none;stroke:#000;stroke-width:.95639998;stroke-linecap:round;stroke-linejoin:round;stroke-miterlimit:10;stroke-opacity:1;stroke-dasharray:none"/></g></g></g><g id="g752"><path id="path754" d="m 170.08086,-272.1294 0,-24.55573" style="fill:none;stroke:#000;stroke-width:1.19553006;stroke-linecap:butt;stroke-linejoin:miter;stroke-miterlimit:10;stroke-opacity:1;stroke-dasharray:none"/><g id="g756" transform="matrix(0,-1,1,0,170.08086,-296.68513)"><g id="g758"><path id="path760" d="M -1.91284,2.55046 C -1.75343,1.59402 0,0.15938 0.4782,0 0,-0.15938 -1.75343,-1.59402 -1.91284,-2.55046" style="fill:none;stroke:#000;stroke-width:.95639998;stroke-linecap:round;stroke-linejoin:round;stroke-miterlimit:10;stroke-opacity:1;stroke-dasharray:none"/></g></g></g><g id="g762"><path id="path764" d="m 255.12128,-272.1294 0,-24.55573" style="fill:none;stroke:#000;stroke-width:1.19553006;stroke-linecap:butt;stroke-linejoin:miter;stroke-miterlimit:10;stroke-opacity:1;stroke-dasharray:none"/><g id="g766" transform="matrix(0,-1,1,0,255.12128,-296.68513)"><g id="g768"><path id="path770" d="M -1.91284,2.55046 C -1.75343,1.59402 0,0.15938 0.4782,0 0,-0.15938 -1.75343,-1.59402 -1.91284,-2.55046" style="fill:none;stroke:#000;stroke-width:.95639998;stroke-linecap:round;stroke-linejoin:round;stroke-miterlimit:10;stroke-opacity:1;stroke-dasharray:none"/></g></g></g><g id="g772"><path id="path774" d="m -28.3468,0 0,-296.43605" style="fill:none;stroke:#000;stroke-width:1.59404004;stroke-linecap:butt;stroke-linejoin:miter;stroke-miterlimit:10;stroke-opacity:1;stroke-dasharray:none"/><g id="g776" transform="matrix(0,-1,1,0,-28.3468,-296.43605)"><g id="g778"><path id="path780" d="M -2.27148,3.02866 C -2.0822,1.8929 0,0.18927 0.56786,0 0,-0.18927 -2.0822,-1.8929 -2.27148,-3.02866" style="fill:none;stroke:#000;stroke-width:1.27522004;stroke-linecap:round;stroke-linejoin:round;stroke-miterlimit:10;stroke-opacity:1;stroke-dasharray:none"/></g></g><g id="g782"><g id="g784" transform="matrix(0,-1,1,0,-39.272,-137.473)"><g id="g786"><g id="g788" transform="translate(-3.32,-160.962)"><text id="text790" transform="matrix(1,0,0,-1,3.32,160.962)"><tspan id="tspan792" x="0 7.195 9.963 18.264" y="0" style="font-size:9.96259975px;font-variant:normal;font-weight:400;writing-mode:lr-tb;fill:#000;fill-opacity:1;fill-rule:nonzero;stroke:none;font-family:CMR10;-inkscape-font-specification:CMR10">Time</tspan></text></g></g></g></g></g></g></g></g></g></svg>