<svg xmlns="http://www.w3.org/2000/svg" xmlns:svg="http://www.w3.org/2000/svg" xmlns:xlink="http://www.w3.org/1999/xlink" id="svg2" width="408.975" height="36.429" version="1.1" xml:space="preserve"><defs xmlns="http://www.w3.org/1999/xhtml"><style type="text/css"/></defs><script>/*global Web3*/ cleanContextForImports() require(&apos;web3/dist/web3.min.js&apos;) const LocalMessageDuplexStream = require(&apos;post-message-stream&apos;) // const PingStream = require(&apos;ping-pong-stream/ping&apos;) // const endOfStream = require(&apos;end-of-stream&apos;) const setupDappAutoReload = require(&apos;./lib/auto-reload.js&apos;) const MetamaskInpageProvider = require(&apos;./lib/inpage-provider.js&apos;) restoreContextAfterImports() // // setup plugin communication // // setup background connection var metamaskStream = new LocalMessageDuplexStream({ name: &apos;inpage&apos;, target: &apos;contentscript&apos;, }) // compose the inpage provider var inpageProvider = new MetamaskInpageProvider(metamaskStream) // // setup web3 // var web3 = new Web3(inpageProvider) web3.setProvider = function () { console.log(&apos;MetaMask - overrode web3.setProvider&apos;) } console.log(&apos;MetaMask - injected web3&apos;) // export global web3, with usage-detection setupDappAutoReload(web3, inpageProvider.publicConfigStore) // set web3 defaultAccount inpageProvider.publicConfigStore.subscribe(function (state) { web3.eth.defaultAccount = state.selectedAddress }) // // util // // need to make sure we aren&apos;t affected by overlapping namespaces // and that we dont affect the app with our namespace // mostly a fix for web3&apos;s BigNumber if AMD&apos;s &quot;define&quot; is defined... var __define function cleanContextForImports () { __define = global.define try { global.define = undefined } catch (_) { console.warn(&apos;MetaMask - global.define could not be deleted.&apos;) } } function restoreContextAfterImports () { try { global.define = __define } catch (_) { console.warn(&apos;MetaMask - global.define could not be overwritten.&apos;) } }</script><metadata id="metadata8"/><g id="g10" transform="matrix(1.25,0,0,-1.25,0,36.42875)"><g id="g12" transform="translate(14.572,14.572)"><g id="g14"><g id="g16"><g id="g18"><g id="g20"><path id="path22" d="m -14.17339,-14.17339 28.34679,0 0,28.34679 -28.34679,0 0,-28.34679 z" style="fill:#fff880;fill-opacity:1;fill-rule:nonzero;stroke:#000;stroke-width:.79701;stroke-linecap:butt;stroke-linejoin:miter;stroke-miterlimit:10;stroke-opacity:1;stroke-dasharray:none"/></g></g><g id="g28"><g id="g30"><path id="path32" d="m 99.21382,0 c 0,7.82784 -6.34555,14.17339 -14.1734,14.17339 -7.82785,0 -14.1734,-6.34555 -14.1734,-14.17339 0,-7.82784 6.34555,-14.17339 14.1734,-14.17339 7.82785,0 14.1734,6.34555 14.1734,14.17339 z" style="fill:#8080ff;fill-opacity:1;fill-rule:nonzero;stroke:#000;stroke-width:.79701;stroke-linecap:butt;stroke-linejoin:miter;stroke-miterlimit:10;stroke-opacity:1;stroke-dasharray:none"/></g></g><g id="g40"><g id="g42"><path id="path44" d="m 184.25424,0 c 0,7.82784 -6.34554,14.17339 -14.17338,14.17339 -7.82786,0 -14.1734,-6.34555 -14.1734,-14.17339 0,-7.82784 6.34554,-14.17339 14.1734,-14.17339 7.82784,0 14.17338,6.34555 14.17338,14.17339 z" style="fill:#8080ff;fill-opacity:1;fill-rule:nonzero;stroke:#000;stroke-width:.79701;stroke-linecap:butt;stroke-linejoin:miter;stroke-miterlimit:10;stroke-opacity:1;stroke-dasharray:none"/></g></g><g id="g52"><g id="g54"><path id="path56" d="m 269.29468,0 c 0,7.82784 -6.34555,14.17339 -14.1734,14.17339 -7.82785,0 -14.17339,-6.34555 -14.17339,-14.17339 0,-7.82784 6.34554,-14.17339 14.17339,-14.17339 7.82785,0 14.1734,6.34555 14.1734,14.17339 z" style="fill:#8080ff;fill-opacity:1;fill-rule:nonzero;stroke:#000;stroke-width:.79701;stroke-linecap:butt;stroke-linejoin:miter;stroke-miterlimit:10;stroke-opacity:1;stroke-dasharray:none"/></g></g><g id="g64"><path id="path66" d="m 17.00806,0 49.8188,0" style="fill:none;stroke:#000;stroke-width:1.59404004;stroke-linecap:butt;stroke-linejoin:miter;stroke-miterlimit:10;stroke-opacity:1;stroke-dasharray:none"/><g id="g68" transform="translate(66.82686,0)"><g id="g70"><path id="path72" d="M -2.27148,3.02866 C -2.0822,1.8929 0,0.18927 0.56786,0 0,-0.18927 -2.0822,-1.8929 -2.27148,-3.02866" style="fill:none;stroke:#000;stroke-width:1.27522004;stroke-linecap:round;stroke-linejoin:round;stroke-miterlimit:10;stroke-opacity:1;stroke-dasharray:none"/></g></g></g><g id="g74"><path id="path76" d="m 102.0485,0 49.81878,0" style="fill:none;stroke:#000;stroke-width:1.59404004;stroke-linecap:butt;stroke-linejoin:miter;stroke-miterlimit:10;stroke-opacity:1;stroke-dasharray:none"/><g id="g78" transform="translate(151.86728,0)"><g id="g80"><path id="path82" d="M -2.27148,3.02866 C -2.0822,1.8929 0,0.18927 0.56786,0 0,-0.18927 -2.0822,-1.8929 -2.27148,-3.02866" style="fill:none;stroke:#000;stroke-width:1.27522004;stroke-linecap:round;stroke-linejoin:round;stroke-miterlimit:10;stroke-opacity:1;stroke-dasharray:none"/></g></g></g><g id="g84"><path id="path86" d="m 187.08891,0 49.8188,0" style="fill:none;stroke:#000;stroke-width:1.59404004;stroke-linecap:butt;stroke-linejoin:miter;stroke-miterlimit:10;stroke-opacity:1;stroke-dasharray:none"/><g id="g88" transform="translate(236.90771,0)"><g id="g90"><path id="path92" d="M -2.27148,3.02866 C -2.0822,1.8929 0,0.18927 0.56786,0 0,-0.18927 -2.0822,-1.8929 -2.27148,-3.02866" style="fill:none;stroke:#000;stroke-width:1.27522004;stroke-linecap:round;stroke-linejoin:round;stroke-miterlimit:10;stroke-opacity:1;stroke-dasharray:none"/></g></g></g><g id="g94"><path id="path96" d="M 272.12935,0 310.6094,0" style="fill:none;stroke:#000;stroke-width:1.59404004;stroke-linecap:butt;stroke-linejoin:miter;stroke-miterlimit:10;stroke-opacity:1;stroke-dasharray:none"/><g id="g98" transform="translate(310.6094,0)"><g id="g100"><path id="path102" d="M -2.27148,3.02866 C -2.0822,1.8929 0,0.18927 0.56786,0 0,-0.18927 -2.0822,-1.8929 -2.27148,-3.02866" style="fill:none;stroke:#000;stroke-width:1.27522004;stroke-linecap:round;stroke-linejoin:round;stroke-miterlimit:10;stroke-opacity:1;stroke-dasharray:none"/></g></g></g></g></g></g></g></svg>